<?xml version="1.0" encoding="UTF-8"?>
<svg width="35px" height="40px" viewBox="0 0 35 40" version="1.1" xmlns="http://www.w3.org/2000/svg" xmlns:xlink="http://www.w3.org/1999/xlink">
    <title>isotipoVentus</title>
    <defs>
        <polygon id="path-1" points="0 0.0650406504 34.1957724 0.0650406504 34.1957724 39.6747317 0 39.6747317"></polygon>
    </defs>
    <g id="isotipoVentus" stroke="none" stroke-width="1" fill="none" fill-rule="evenodd">
        <g id="Group-20" transform="translate(0.000000, 0.260163)">
            <mask id="mask-2" fill="white">
                <use xlink:href="#path-1"></use>
            </mask>
            <g id="Clip-19"></g>
            <path d="M25.7053659,10.9079024 L25.7053659,17.5787967 C25.7053659,22.324813 21.8442276,26.1862764 17.0978862,26.1862764 C12.3515447,26.1862764 8.4904065,22.324813 8.4904065,17.5787967 L8.4904065,10.9079024 C7.89756098,10.6896911 7.47447154,10.1196098 7.47447154,9.45099187 C7.47447154,8.5937561 8.16943089,7.89879675 9.02666667,7.89879675 C9.88390244,7.89879675 10.5788618,8.5937561 10.5788618,9.45099187 C10.5788618,10.0981463 10.182439,10.6529431 9.61918699,10.8857886 L9.61918699,17.5787967 C9.61918699,21.702374 12.9743089,25.0574959 17.0978862,25.0574959 C21.2217886,25.0574959 24.5765854,21.702374 24.5765854,17.5787967 L24.5765854,10.8857886 C24.0136585,10.6529431 23.6169106,10.0981463 23.6169106,9.45099187 C23.6169106,8.5937561 24.3121951,7.89879675 25.1694309,7.89879675 C26.0263415,7.89879675 26.7213008,8.5937561 26.7213008,9.45099187 C26.7213008,10.1196098 26.2985366,10.6896911 25.7053659,10.9079024 M31.9674797,0.0649756098 L2.22861789,0.0649756098 C0.997723577,0.0649756098 0,1.06269919 0,2.2935935 L0,37.4461138 C0,38.6770081 0.997723577,39.6747317 2.22861789,39.6747317 L31.9674797,39.6747317 C33.1980488,39.6747317 34.1957724,38.6770081 34.1957724,37.4461138 L34.1957724,2.2935935 C34.1957724,1.06269919 33.1980488,0.0649756098 31.9674797,0.0649756098" id="Fill-18" fill="#2BB1E4" mask="url(#mask-2)"></path>
        </g>
    </g>
</svg>