<svg id="Layer_1" data-name="Layer 1" xmlns="http://www.w3.org/2000/svg" viewBox="0 0 350 350"><defs><style>.cls-1{fill:#282d40;}</style></defs><path class="cls-1" d="M123.07,224.36l-32,31-5.19,5a15.59,15.59,0,0,1,1.27-6.51,13,13,0,0,1,2.42-3.94,2.66,2.66,0,0,1,2.79-.95c4.08,1.31,5.83-5.1,1.77-6.41-4.35-1.4-8.38,1.16-10.84,4.61a23.11,23.11,0,0,0-4.06,11.74,19,19,0,0,0,.93,7l-4.92,4.76-7.92,7.64-3.95,3.83-2,1.91-.27.22c-.55-.76-1-1.62-1.47-2.18l-3.33-4.38-6.33-8.34c-2.55-3.36-8.33-.05-5.74,3.36L53.53,285c2.23,2.94,5.15,8.8,9.7,6.25,1.81-1,3.31-3,4.79-4.42l5.14-5,10.26-9.91c2.39,2.84,5.71,5,9.57,4.16,5-1.09,7-6.16,8-10.59a3.32,3.32,0,1,0-6.41-1.76,12.53,12.53,0,0,1-1.71,4.83c-.44.57-1.29,1.19-1.74,1.11-1.19-.2-2.29-1.43-3-2.36l39.59-38.24C130.86,226.08,126.15,221.38,123.07,224.36Z"/><path class="cls-1" d="M268.25,259.76a29.76,29.76,0,0,0-.33-4.81Q267,241,266.85,227c-.07-4.27-6.71-4.28-6.65,0,.09,6.73.34,13.44.66,20.16-3.65-.24-7.57,2.62-9.88,5.27a22,22,0,0,0-5.48,14.07c-.06,5.78,3.18,12,9.55,12.44a9.55,9.55,0,0,0,7.84-3.64c.13,1.4.24,2.8.38,4.2.44,4.21,7.09,4.26,6.65,0C269.24,272.93,268.71,266.35,268.25,259.76Zm-7.78-6c.07-.06.1,0,0,0Zm.74,9.67a19.53,19.53,0,0,1-1.71,5.19c-.2.38-.42.75-.65,1.11l-.41.61c-.24.31-.1.11-.05.05a6.83,6.83,0,0,1-1.74,1.55l-.22.12-.39.14-.32.08h-.31a2.42,2.42,0,0,1-1.28-.45,5.26,5.26,0,0,1-1.93-3.8,15.14,15.14,0,0,1,5.86-13.19c-.18.13.62-.41.79-.51a5.57,5.57,0,0,1,.58-.32c-.31.15,0,0,.15-.06s.42-.13.64-.18c-.4.09-.11.07.09,0a3.55,3.55,0,0,0,.67.47,20.9,20.9,0,0,1,.4,2.21c.05.91.12,1.83.19,2.74A19.85,19.85,0,0,1,261.21,263.46Z"/><path class="cls-1" d="M240.21,114.39l-7.68,8.44c-2.87,3.16,1.82,7.87,4.7,4.7l13.48-14.81c-.11,2.87-.2,5.75-.31,8.63a3,3,0,0,0,2.95,3.19,3,3,0,0,0,2.66-.32c7.32-4.39,13.61-11.18,16.57-19.27a23,23,0,0,0,1.08-4.21l12.78,11.88,7.62,7.09c3.13,2.91,7.85-1.78,4.7-4.7L271.59,89.75l19.92-21.9,7.67-8.44c2.88-3.16-1.81-7.88-4.7-4.7L266.73,85.23l-8.15-7.57c.09-2.52.17-5,.27-7.55.16-4.28-6.49-4.27-6.65,0,0,.52,0,1,0,1.56l-6.66-6.18-7.62-7.09c-3.14-2.91-7.85,1.78-4.71,4.7l18.68,17.36c-.26,7.33-.53,14.66-.77,22ZM267,100.09c-1.14,5.91-5,11.17-9.76,15.1q.18-5,.35-10.08l9.05-9.94a2.61,2.61,0,0,1,.24.41A8.62,8.62,0,0,1,267,100.09Zm-6.61-11.66a11,11,0,0,0-2.26,1.31l.12-3.3Z"/><path class="cls-1" d="M116.52,67.85l7.68-8.44c2.87-3.16-1.82-7.88-4.71-4.7l-18.92,20.8A3.23,3.23,0,0,0,95.77,73a2.73,2.73,0,0,0-2.34.38,36.75,36.75,0,0,0-7,6.84L70.5,65.49,62.88,58.4c-3.13-2.91-7.85,1.78-4.7,4.7Q70.45,74.51,82.73,85.92a31.17,31.17,0,0,0-3.66,13.24L65.22,114.39l-7.68,8.44c-2.87,3.16,1.82,7.87,4.71,4.7q9.5-10.45,19-20.9a7.87,7.87,0,0,0,1.08,1.08,8.68,8.68,0,0,0,8,1.31c3.64-1.17,6.07-4.2,7.68-7.64.45,2.05.91,4.1,1.43,6.13.89,3.51,5.62,2.78,6.4-.06l5.57,5.17,7.62,7.09c3.13,2.91,7.85-1.78,4.7-4.7l-20-18.59q-1.26-6.08-2.14-12.22ZM94.32,81.24l.06,1.09-2.64,2.9-.48-.44A28.89,28.89,0,0,1,94.32,81.24ZM87,102.77a1.56,1.56,0,0,1-1.13-1.24l6.24-6.86,1.07,1A15.26,15.26,0,0,1,90.57,101C89.74,102.05,88.41,103.12,87,102.77Z"/><path class="cls-1" d="M140,194.44a84.41,84.41,0,0,0-47.68-17,76.27,76.27,0,0,0-12.37.54,4,4,0,0,0-.52.11c-.12,0-.24,0-.37,0a73.38,73.38,0,0,0-42.52,21.28c-10.89,11.1-18.27,25.42-22,40.45-4.21,17-4.42,35.7,1.39,52.31s18,28.74,33.26,37C63.44,336.8,80.14,341.73,96.43,341A69.91,69.91,0,0,0,137.73,325c24.07-19.72,34.75-53.32,29.79-83.6C164.48,222.78,155,205.94,140,194.44Zm1.06,118.13a65.36,65.36,0,0,1-34.63,20.51c-14.54,3.13-29.66.45-43.36-4.85-14-5.41-27.95-14.39-35.9-27.44-8.81-14.46-10.4-32.84-8.14-49.33C22.94,223,40.5,195.86,68.9,187.07a74.11,74.11,0,0,1,11.42-2.52c32.33-3.84,66.47,13.78,77.45,45.32C167.41,257.59,160.76,290.76,141.08,312.57Z"/><path class="cls-1" d="M309.84,194.44a84.47,84.47,0,0,0-47.69-17,76.37,76.37,0,0,0-12.37.54,3.82,3.82,0,0,0-.51.11c-.13,0-.25,0-.37,0a73.41,73.41,0,0,0-42.53,21.28c-10.88,11.1-18.27,25.42-22,40.45-4.21,17-4.42,35.7,1.38,52.31s18,28.74,33.26,37C233.25,336.8,250,341.73,266.24,341A70,70,0,0,0,307.55,325c24.06-19.72,34.75-53.32,29.79-83.6C334.29,222.78,324.8,205.94,309.84,194.44Zm1.06,118.13a65.42,65.42,0,0,1-34.64,20.51c-14.54,3.13-29.65.45-43.35-4.85-14-5.41-27.95-14.39-35.9-27.44-8.81-14.46-10.4-32.84-8.15-49.33,3.9-28.49,21.45-55.6,49.85-64.39a74.37,74.37,0,0,1,11.42-2.52c32.34-3.84,66.47,13.78,77.45,45.32C337.23,257.59,330.58,290.76,310.9,312.57Z"/><path class="cls-1" d="M140,26A84.27,84.27,0,0,0,92.34,9,77.42,77.42,0,0,0,80,9.51a4,4,0,0,0-.52.12c-.12,0-.24,0-.37,0A73.44,73.44,0,0,0,36.56,30.91C25.67,42,18.29,56.34,14.55,71.37c-4.21,17-4.42,35.69,1.39,52.31s18,28.73,33.26,37c14.24,7.7,30.94,12.63,47.23,11.91a69.9,69.9,0,0,0,41.3-16c24.07-19.73,34.75-53.33,29.79-83.61C164.48,54.36,155,37.52,140,26Zm1.06,118.12a65.38,65.38,0,0,1-34.63,20.52c-14.54,3.12-29.66.45-43.36-4.85-14-5.41-27.95-14.4-35.9-27.44C18.38,117.9,16.79,99.52,19.05,83,22.94,54.54,40.5,27.43,68.9,18.65a73,73,0,0,1,11.42-2.52c32.33-3.84,66.47,13.77,77.45,45.32C167.41,89.16,160.76,122.33,141.08,144.14Z"/><path class="cls-1" d="M219,160.67c14.24,7.7,30.94,12.63,47.23,11.91a70,70,0,0,0,41.31-16c24.06-19.73,34.75-53.33,29.79-83.61-3-18.57-12.54-35.41-27.5-46.91A84.32,84.32,0,0,0,262.15,9a77.52,77.52,0,0,0-12.37.53,3.81,3.81,0,0,0-.51.12c-.13,0-.25,0-.37,0a73.47,73.47,0,0,0-42.53,21.28c-10.88,11.11-18.27,25.43-22,40.46-4.21,17-4.42,35.69,1.38,52.31S203.75,152.41,219,160.67ZM188.86,83c3.9-28.49,21.45-55.6,49.85-64.38a73.21,73.21,0,0,1,11.42-2.52c32.34-3.84,66.47,13.77,77.45,45.32,9.65,27.71,3,60.88-16.68,82.69a65.44,65.44,0,0,1-34.64,20.52c-14.54,3.12-29.65.45-43.35-4.85-14-5.41-27.95-14.4-35.9-27.44C188.2,117.9,186.61,99.52,188.86,83Z"/></svg>