<svg id="Layer_1" data-name="Layer 1" xmlns="http://www.w3.org/2000/svg" viewBox="0 0 250 250"><defs><style>.cls-1{fill:#5cfa9d;}.cls-2{fill:#282d40;}</style></defs><circle class="cls-1" cx="125" cy="125" r="125"/><path class="cls-2" d="M56.87,171.39h3.61a5.08,5.08,0,0,1,2.29.49,3.71,3.71,0,0,1,1.54,1.39,4.25,4.25,0,0,1,0,4.18,3.71,3.71,0,0,1-1.54,1.39,5.08,5.08,0,0,1-2.29.5H56.87Zm3.52,6.44a2.68,2.68,0,0,0,1.9-.67,2.64,2.64,0,0,0,0-3.6,2.68,2.68,0,0,0-1.9-.66H58.71v4.93Z"/><path class="cls-2" d="M66.25,171.39h1.84v8H66.25Z"/><path class="cls-2" d="M70.76,179.22a4.52,4.52,0,0,1-1.41-.67l.62-1.38a4.21,4.21,0,0,0,1.22.6,4.61,4.61,0,0,0,1.41.22,2.22,2.22,0,0,0,1.16-.23.69.69,0,0,0,.37-.62.59.59,0,0,0-.22-.47,1.91,1.91,0,0,0-.57-.3,9.12,9.12,0,0,0-.94-.25,12.77,12.77,0,0,1-1.48-.43,2.38,2.38,0,0,1-1-.69,1.93,1.93,0,0,1-.41-1.28,2.19,2.19,0,0,1,.37-1.25,2.57,2.57,0,0,1,1.13-.89,4.64,4.64,0,0,1,1.85-.33,6.2,6.2,0,0,1,1.49.18,4.7,4.7,0,0,1,1.27.52l-.57,1.4a4.38,4.38,0,0,0-2.2-.62,2,2,0,0,0-1.14.25.74.74,0,0,0-.37.65.64.64,0,0,0,.42.61,7.21,7.21,0,0,0,1.3.39,12.79,12.79,0,0,1,1.49.44,2.35,2.35,0,0,1,1,.68A1.81,1.81,0,0,1,76,177a2.19,2.19,0,0,1-.38,1.24,2.59,2.59,0,0,1-1.14.89,4.67,4.67,0,0,1-1.85.33A6.57,6.57,0,0,1,70.76,179.22Z"/><path class="cls-2" d="M83.37,177.86v1.48H77.22v-8h6v1.47H79.05v1.73h3.69V176H79.05v1.84Z"/><path class="cls-2" d="M92.13,171.39v8H90.62l-4-4.83v4.83H84.84v-8h1.52l4,4.82v-4.82Zm-3.33-.74a3.5,3.5,0,0,1-.52-.32l-.3-.21a.53.53,0,0,0-.23-.06.5.5,0,0,0-.39.16.74.74,0,0,0-.16.47h-.9a2.1,2.1,0,0,1,.38-1.21,1.27,1.27,0,0,1,1.48-.33,4.55,4.55,0,0,1,.53.34,2.2,2.2,0,0,0,.3.2.43.43,0,0,0,.23.07.49.49,0,0,0,.38-.16.7.7,0,0,0,.17-.45h.89a1.89,1.89,0,0,1-.38,1.18,1.15,1.15,0,0,1-.94.44A1.13,1.13,0,0,1,88.8,170.65Z"/><path class="cls-2" d="M99.25,177.63H95.56l-.71,1.71H93l3.54-8h1.82l3.55,8H100Zm-.58-1.4-1.26-3-1.26,3Z"/><path class="cls-2" d="M111.2,171.74a2.7,2.7,0,0,1,1.2,1,2.74,2.74,0,0,1,.42,1.53,2.79,2.79,0,0,1-.42,1.53,2.7,2.7,0,0,1-1.2,1,4.49,4.49,0,0,1-1.83.34h-1.6v2.2h-1.84v-8h3.44A4.33,4.33,0,0,1,111.2,171.74Zm-.67,3.55a1.44,1.44,0,0,0,0-2,1.93,1.93,0,0,0-1.26-.36h-1.5v2.76h1.5A2,2,0,0,0,110.53,175.29Z"/><path class="cls-2" d="M120.28,177.86v1.48h-6.15v-8h6v1.47H116v1.73h3.7V176H116v1.84Z"/><path class="cls-2" d="M129,171.39v8h-1.51l-4-4.83v4.83h-1.81v-8h1.52l4,4.82v-4.82Z"/><path class="cls-2" d="M131.71,179.22a4.41,4.41,0,0,1-1.41-.67l.62-1.38a4.21,4.21,0,0,0,1.22.6,4.61,4.61,0,0,0,1.41.22,2.18,2.18,0,0,0,1.15-.23.7.7,0,0,0,.38-.62.62.62,0,0,0-.22-.47,1.91,1.91,0,0,0-.57-.3,9.12,9.12,0,0,0-.94-.25,13.65,13.65,0,0,1-1.49-.43,2.41,2.41,0,0,1-1-.69,1.88,1.88,0,0,1-.41-1.28,2.19,2.19,0,0,1,.37-1.25,2.57,2.57,0,0,1,1.13-.89,4.6,4.6,0,0,1,1.85-.33,6.12,6.12,0,0,1,1.48.18,4.64,4.64,0,0,1,1.28.52l-.57,1.4a4.41,4.41,0,0,0-2.21-.62,2.05,2.05,0,0,0-1.14.25.76.76,0,0,0-.37.65.65.65,0,0,0,.43.61,7,7,0,0,0,1.3.39,12.79,12.79,0,0,1,1.49.44,2.41,2.41,0,0,1,1,.68,1.81,1.81,0,0,1,.42,1.26,2.19,2.19,0,0,1-.38,1.24,2.59,2.59,0,0,1-1.14.89,4.69,4.69,0,0,1-1.86.33A6.55,6.55,0,0,1,131.71,179.22Z"/><path class="cls-2" d="M143.4,177.63h-3.69l-.7,1.71h-1.89l3.55-8h1.81l3.56,8h-1.93Zm-.58-1.4-1.26-3-1.26,3Z"/><path class="cls-2" d="M154.16,171.39v8h-1.51l-4-4.83v4.83h-1.81v-8h1.52l4,4.82v-4.82Z"/><path class="cls-2" d="M156,171.39h3.61a5,5,0,0,1,2.29.49,3.73,3.73,0,0,1,1.55,1.39,4.25,4.25,0,0,1,0,4.18,3.73,3.73,0,0,1-1.55,1.39,5,5,0,0,1-2.29.5H156Zm3.52,6.44a2.71,2.71,0,0,0,1.91-.67,2.66,2.66,0,0,0,0-3.6,2.7,2.7,0,0,0-1.91-.66h-1.68v4.93Z"/><path class="cls-2" d="M167,178.94a4.05,4.05,0,0,1,0-7.16,5,5,0,0,1,4.46,0,4.06,4.06,0,0,1,1.55,1.47,4.19,4.19,0,0,1,0,4.22,4.06,4.06,0,0,1-1.55,1.47,5,5,0,0,1-4.46,0Zm3.5-1.36a2.43,2.43,0,0,0,.9-.9,2.88,2.88,0,0,0,0-2.64,2.43,2.43,0,0,0-.9-.9,2.68,2.68,0,0,0-2.54,0,2.33,2.33,0,0,0-.89.9,2.81,2.81,0,0,0,0,2.64,2.33,2.33,0,0,0,.89.9,2.68,2.68,0,0,0,2.54,0Z"/><path class="cls-2" d="M184.38,177.86v1.48h-6.16v-8h6v1.47h-4.18v1.73h3.69V176h-3.69v1.84Z"/><path class="cls-2" d="M193.13,171.39v8h-1.51l-4-4.83v4.83h-1.82v-8h1.52l3.95,4.82v-4.82Z"/><path class="cls-2" d="M66.38,186.51H63.84V185h6.93v1.5H68.22V193H66.38Z"/><path class="cls-2" d="M72.5,192.16a3.66,3.66,0,0,1-1-2.7V185h1.84v4.39q0,2.13,1.77,2.13a1.64,1.64,0,0,0,1.32-.52,2.4,2.4,0,0,0,.45-1.61V185h1.82v4.45a3.76,3.76,0,0,1-6.25,2.7Z"/><path class="cls-2" d="M81.36,192.84a4.36,4.36,0,0,1-1.42-.66l.63-1.39a4.43,4.43,0,0,0,1.21.61,4.61,4.61,0,0,0,1.41.22,2.32,2.32,0,0,0,1.16-.23.71.71,0,0,0,.38-.62.58.58,0,0,0-.23-.47,1.42,1.42,0,0,0-.56-.3c-.24-.08-.55-.16-.94-.25a13,13,0,0,1-1.49-.43,2.39,2.39,0,0,1-1-.7,1.84,1.84,0,0,1-.42-1.27,2.19,2.19,0,0,1,.38-1.25,2.45,2.45,0,0,1,1.13-.89,4.59,4.59,0,0,1,1.84-.33,6.14,6.14,0,0,1,1.49.18,4.18,4.18,0,0,1,1.27.52l-.57,1.4a4.37,4.37,0,0,0-2.2-.63,2.14,2.14,0,0,0-1.14.25.76.76,0,0,0-.37.66.64.64,0,0,0,.43.61,6.73,6.73,0,0,0,1.3.39,13.65,13.65,0,0,1,1.49.43,2.59,2.59,0,0,1,1,.68,1.82,1.82,0,0,1,.41,1.26,2.14,2.14,0,0,1-.38,1.25,2.55,2.55,0,0,1-1.14.89,4.64,4.64,0,0,1-1.85.33A6.46,6.46,0,0,1,81.36,192.84Z"/><path class="cls-2" d="M98.32,185v8H96.48V189.7H92.87V193H91v-8h1.84v3.14h3.61V185Z"/><path class="cls-2" d="M106.36,191.49V193H100.2v-8h6v1.48H102v1.73h3.69v1.43H102v1.84Z"/><path class="cls-2" d="M112.89,193l-1.53-2.21h-1.7V193h-1.84v-8h3.44a4.35,4.35,0,0,1,1.84.36,2.68,2.68,0,0,1,1.2,1,2.8,2.8,0,0,1,.42,1.54,2.61,2.61,0,0,1-.43,1.52,2.71,2.71,0,0,1-1.21,1l1.78,2.55Zm-.47-6.09a1.91,1.91,0,0,0-1.26-.36h-1.5v2.77h1.5a1.91,1.91,0,0,0,1.26-.36,1.44,1.44,0,0,0,0-2Z"/><path class="cls-2" d="M121.24,193l-1.54-2.21H118V193h-1.84v-8h3.44a4.35,4.35,0,0,1,1.84.36,2.71,2.71,0,0,1,1.19,1,2.8,2.8,0,0,1,.42,1.54,2.68,2.68,0,0,1-.42,1.52,2.77,2.77,0,0,1-1.21,1l1.78,2.55Zm-.47-6.09a1.93,1.93,0,0,0-1.26-.36H118v2.77h1.5a1.93,1.93,0,0,0,1.26-.36,1.44,1.44,0,0,0,0-2Z"/><path class="cls-2" d="M129.75,191.26h-3.69l-.7,1.7h-1.89l3.55-8h1.81l3.56,8h-1.93Zm-.58-1.4-1.26-3-1.26,3Z"/><path class="cls-2" d="M140.45,193v-4.77l-2.34,3.93h-.83l-2.33-3.83V193h-1.72v-8h1.52l3,4.94,2.93-4.94h1.51l0,8Z"/><path class="cls-2" d="M144.06,185h1.84v8h-1.84Z"/><path class="cls-2" d="M153.94,191.49V193h-6.15v-8h6v1.48h-4.18v1.73h3.69v1.43h-3.69v1.84Z"/><path class="cls-2" d="M162.7,185v8h-1.51l-4-4.82V193h-1.81v-8h1.52l3.95,4.83V185Z"/><path class="cls-2" d="M166.23,186.51h-2.55V185h6.93v1.5h-2.54V193h-1.84Z"/><path class="cls-2" d="M176.44,191.26h-3.69L172,193h-1.88l3.54-8h1.82l3.55,8h-1.93Zm-.58-1.4-1.26-3-1.26,3Z"/><path class="cls-2" d="M180.69,192.84a4.21,4.21,0,0,1-1.41-.66l.62-1.39a4.49,4.49,0,0,0,1.22.61,4.59,4.59,0,0,0,1.4.22,2.3,2.3,0,0,0,1.16-.23.71.71,0,0,0,.38-.62.6.6,0,0,0-.22-.47,1.54,1.54,0,0,0-.57-.3,9.12,9.12,0,0,0-.94-.25,13.65,13.65,0,0,1-1.49-.43,2.53,2.53,0,0,1-1-.7,1.83,1.83,0,0,1-.41-1.27,2.19,2.19,0,0,1,.37-1.25,2.51,2.51,0,0,1,1.13-.89,4.6,4.6,0,0,1,1.85-.33,6.12,6.12,0,0,1,1.48.18,4.35,4.35,0,0,1,1.28.52L185,187a4.43,4.43,0,0,0-2.21-.63,2.14,2.14,0,0,0-1.14.25.79.79,0,0,0-.37.66.66.66,0,0,0,.43.61,7,7,0,0,0,1.3.39,13,13,0,0,1,1.49.43,2.51,2.51,0,0,1,1,.68,1.83,1.83,0,0,1,.42,1.26,2.22,2.22,0,0,1-.38,1.25,2.64,2.64,0,0,1-1.15.89,4.6,4.6,0,0,1-1.85.33A6.51,6.51,0,0,1,180.69,192.84Z"/><path class="cls-2" d="M85.16,198.64h3.61a5,5,0,0,1,2.29.5,3.67,3.67,0,0,1,1.55,1.39,4,4,0,0,1,.55,2.09,4,4,0,0,1-.55,2.09,3.8,3.8,0,0,1-1.55,1.39,5,5,0,0,1-2.29.49H85.16Zm3.52,6.44a2.7,2.7,0,0,0,1.91-.66,2.37,2.37,0,0,0,.7-1.8,2.34,2.34,0,0,0-.7-1.8,2.67,2.67,0,0,0-1.91-.67H87v4.93Z"/><path class="cls-2" d="M94.54,198.64h1.84v8H94.54Z"/><path class="cls-2" d="M99.06,206.47a4.36,4.36,0,0,1-1.42-.66l.63-1.39a4.15,4.15,0,0,0,1.21.6,4.34,4.34,0,0,0,1.41.23,2.32,2.32,0,0,0,1.16-.23.7.7,0,0,0,.37-.62.57.57,0,0,0-.22-.47,1.47,1.47,0,0,0-.57-.3,9.56,9.56,0,0,0-.93-.25,15.44,15.44,0,0,1-1.49-.43,2.39,2.39,0,0,1-1-.7A1.85,1.85,0,0,1,97.8,201a2.19,2.19,0,0,1,.38-1.25,2.47,2.47,0,0,1,1.13-.9,4.59,4.59,0,0,1,1.84-.32,6.14,6.14,0,0,1,1.49.18,4.28,4.28,0,0,1,1.27.52l-.57,1.4a4.39,4.39,0,0,0-2.2-.63,2.05,2.05,0,0,0-1.14.25.76.76,0,0,0-.37.66.65.65,0,0,0,.43.61,6.73,6.73,0,0,0,1.3.39,12.77,12.77,0,0,1,1.48.43,2.45,2.45,0,0,1,1,.68,1.85,1.85,0,0,1,.41,1.26,2.14,2.14,0,0,1-.38,1.25,2.55,2.55,0,0,1-1.14.89,4.64,4.64,0,0,1-1.85.33A6.46,6.46,0,0,1,99.06,206.47Z"/><path class="cls-2" d="M110.79,199a2.63,2.63,0,0,1,1.62,2.54,2.73,2.73,0,0,1-.42,1.52,2.64,2.64,0,0,1-1.2,1,4.51,4.51,0,0,1-1.84.35h-1.6v2.19h-1.84v-8H109A4.51,4.51,0,0,1,110.79,199Zm-.68,3.55a1.24,1.24,0,0,0,.43-1,1.25,1.25,0,0,0-.43-1,1.93,1.93,0,0,0-1.26-.36h-1.5v2.76h1.5A1.93,1.93,0,0,0,110.11,202.54Z"/><path class="cls-2" d="M115.44,206.19a3.85,3.85,0,0,1-1.55-1.47,4.06,4.06,0,0,1,1.55-5.68,4.63,4.63,0,0,1,2.24-.53,4.55,4.55,0,0,1,2.22.53,4,4,0,0,1,1.56,1.47,4,4,0,0,1-1.56,5.68,4.56,4.56,0,0,1-2.22.54A4.64,4.64,0,0,1,115.44,206.19Zm3.51-1.35a2.36,2.36,0,0,0,.89-.91,2.86,2.86,0,0,0,0-2.63,2.27,2.27,0,0,0-.89-.9,2.63,2.63,0,0,0-2.55,0,2.27,2.27,0,0,0-.89.9,2.86,2.86,0,0,0,0,2.63,2.36,2.36,0,0,0,.89.91,2.7,2.7,0,0,0,2.55,0Z"/><path class="cls-2" d="M130.7,198.64v8h-1.51l-4-4.83v4.83h-1.82v-8h1.52l3.95,4.83v-4.83Z"/><path class="cls-2" d="M132.59,198.64h1.84v8h-1.84Z"/><path class="cls-2" d="M143.21,203.18a2,2,0,0,1,.39,1.24,1.85,1.85,0,0,1-.81,1.61,4.19,4.19,0,0,1-2.37.56h-4.11v-8h3.88a3.84,3.84,0,0,1,2.24.56,1.77,1.77,0,0,1,.77,1.51,2,2,0,0,1-.27,1,2.08,2.08,0,0,1-.78.72A2,2,0,0,1,143.21,203.18ZM138.14,200v1.87H140a1.82,1.82,0,0,0,1-.24.78.78,0,0,0,.35-.7.77.77,0,0,0-.35-.7,1.83,1.83,0,0,0-1-.23Zm3.24,4.94a.82.82,0,0,0,.37-.74c0-.66-.49-1-1.46-1h-2.15v2h2.15A2.13,2.13,0,0,0,141.38,205Z"/><path class="cls-2" d="M145,198.64h1.84v6.45h4v1.5H145Z"/><path class="cls-2" d="M158,205.11v1.48h-6.15v-8h6v1.48h-4.17v1.72h3.69v1.43h-3.69v1.84Z"/><path class="cls-2" d="M160.27,206.47a4.36,4.36,0,0,1-1.42-.66l.63-1.39a4.15,4.15,0,0,0,1.21.6,4.34,4.34,0,0,0,1.41.23,2.32,2.32,0,0,0,1.16-.23.7.7,0,0,0,.37-.62.57.57,0,0,0-.22-.47,1.47,1.47,0,0,0-.57-.3,9.56,9.56,0,0,0-.93-.25,15.44,15.44,0,0,1-1.49-.43,2.39,2.39,0,0,1-1-.7A1.85,1.85,0,0,1,159,201a2.19,2.19,0,0,1,.38-1.25,2.47,2.47,0,0,1,1.13-.9,4.56,4.56,0,0,1,1.84-.32,6.2,6.2,0,0,1,1.49.18,4.28,4.28,0,0,1,1.27.52l-.57,1.4a4.39,4.39,0,0,0-2.2-.63,2,2,0,0,0-1.14.25.76.76,0,0,0-.37.66.65.65,0,0,0,.43.61,6.73,6.73,0,0,0,1.3.39,12.77,12.77,0,0,1,1.48.43,2.45,2.45,0,0,1,1,.68,1.85,1.85,0,0,1,.41,1.26,2.22,2.22,0,0,1-.38,1.25,2.55,2.55,0,0,1-1.14.89,4.64,4.64,0,0,1-1.85.33A6.46,6.46,0,0,1,160.27,206.47Z"/><path class="cls-2" d="M112.28,115.34,138.8,115l3.73-.06a1.11,1.11,0,0,0,1.11-1.11l-.63-7.06a1.13,1.13,0,0,0-1.11-1.11l-26.52.06h-3.74a1.07,1.07,0,0,0-.49.11.91.91,0,0,0-.62,1q.33,3.72.64,7.44A1.13,1.13,0,0,0,112.28,115.34Zm25.88-7.51h2.73c.14,1.62.29,3.24.44,4.86l-25.32.38-2.72,0c-.15-1.74-.29-3.48-.44-5.22Z"/><path class="cls-2" d="M183.64,111.62c-.15-1.05-.31-2.1-.47-3.15s-.31-2.1-.47-3.16-.27-2.07-1.38-2.42a4,4,0,0,0-1.5,0l-1.59.12-2.71.21,0-1.38c0-1.81-.05-3.63-.08-5.44a1.13,1.13,0,0,0-1.11-1.11l-3.52.05-.06-1.55a.85.85,0,0,0-.83-.84l-2.11-.08a.09.09,0,0,0,0,0l-.22-.48c-.18-.53-.35-1.06-.52-1.59l1.62-1.45a.82.82,0,0,0,0-1.17l-3.87-3.68a.85.85,0,0,0-1.17,0l-1.54,1.44h0l-.54-.2L160,84.9l.12-2.17a.84.84,0,0,0-.84-.83l-5.33.18a.84.84,0,0,0-.83.83l-.06,2.23-.12,0-.41.16-.84.32-1.53-1.87a.85.85,0,0,0-1.18,0l-3.83,3.71a.85.85,0,0,0,0,1.18l1.35,1.58,0,0-.19.46c-.27.49-.54,1-.82,1.48l-2.19-.2a.84.84,0,0,0-.84.83l0,2.84-1.56,0-10.12.16q-.1-7.55-.22-15.1l2-.29a1.12,1.12,0,0,0,.81-1.07l0-3.54,1.22,0c.12.58.25,1.16.38,1.73a1.12,1.12,0,0,0,1.07.82h5.63a1.12,1.12,0,0,0,1.11-1.11l-.36-10.27A1.13,1.13,0,0,0,141.31,66l-5.79-.21a1.13,1.13,0,0,0-1.11,1.11l-.12,1.59-1.73,0c-1.57-3.65-6.81-4.17-10.34-3.77a16.58,16.58,0,0,0-12.24,7,12.66,12.66,0,0,0-2.11,7.55.13.13,0,0,0,0,.06,1,1,0,0,0,.14.5,1.12,1.12,0,0,0,1.52.4h0a1,1,0,0,0,.27-.18,26.57,26.57,0,0,1,4.4-2.43c.73-.35,1.47-.68,2.21-1l0,0c.65,1.15,1.32,2.29,2,3.41.32.51.55,1,1.17,1.18a5.16,5.16,0,0,0,.89.13c-.19,4.92-.32,9.85-.35,14.78l-7.79.12L96,96.44a15.28,15.28,0,0,1,.23-7.63c.9-2.62,2.81-4.78,4-7.28,2.11-4.54,2.45-9.79-.61-14a7.31,7.31,0,0,0-5.94-3.41,1.13,1.13,0,0,0-1.11,1.11c-.18,2.68-.27,5.37-.34,8l-3.51.06a75.58,75.58,0,0,0-2.19-8,1.15,1.15,0,0,0-1.07-.81,7.3,7.3,0,0,0-6.3,4.54C77.78,72,78,75.59,78.62,78.66s2.65,5.27,4.35,7.85a9.07,9.07,0,0,1,1.59,4.28A22.44,22.44,0,0,1,84.19,96a1.13,1.13,0,0,0,.08.64c-2.84,0-5.68,0-8.51.15h-.17a1,1,0,0,0-.93.55,1.2,1.2,0,0,0-.18.56c-.09,1.76-.19,3.52-.28,5.28L71.77,103l-1.59-.12a4,4,0,0,0-1.5,0c-1.11.35-1.23,1.44-1.38,2.42l-.47,3.16c-.16,1-.32,2.1-.47,3.15a2.27,2.27,0,0,0,.14,1.6,1.82,1.82,0,0,0,1.34.75c1.9.32,3.81.62,5.72.93q-.61,11-1.21,22.08l-.3,5.55a1.12,1.12,0,0,0,1.11,1.11l10.15-.22,24.38-.54,29.37-.65,25.38-.56c4.11-.09,8.25-.06,12.35-.28H175a1.13,1.13,0,0,0,1.11-1.11q-.12-7.44-.23-14.88L175.7,115a1.2,1.2,0,0,0,.19,0l6.27-1a1.82,1.82,0,0,0,1.34-.75A2.27,2.27,0,0,0,183.64,111.62Zm-110,1.07-4.27-.7c-.27,0-.56-.13-.84-.17,0-.14,0-.27,0-.4l.39-2.56c.13-.85.25-1.71.38-2.56.07-.43.11-.86.19-1.28h0c1.5.08,3,.21,4.49.33ZM144.12,93.8l2.1.2a.86.86,0,0,0,.8-.61c.25-.6.5-1.2.74-1.8l.53-1a.86.86,0,0,0-.13-1l-1.26-1.47,2.63-2.54c.44.55.89,1.1,1.34,1.64a.81.81,0,0,0,.81.22c.88-.35,1.77-.69,2.65-1.06a.83.83,0,0,0,.41-.72c0-.66,0-1.32,0-2l3.65-.13c0,.69-.07,1.38-.11,2.08a.86.86,0,0,0,.61.8l1.91.69.9.45a.88.88,0,0,0,1-.13l1.44-1.34,2.65,2.51L165.29,90a.86.86,0,0,0-.13,1l.83,1.8.33,1a.86.86,0,0,0,.8.61l2,.08,0,.79-4.65.07h-.63a7,7,0,0,0-2.53-5.16,7.61,7.61,0,0,0-5.53-1.6c-3.64.43-5.92,3.54-6.3,7l-5.4.08Zm18.06,1.63-11,.17c.33-2.54,1.94-4.9,4.64-5.3a6,6,0,0,1,4.35,1.13A5.32,5.32,0,0,1,162.18,95.43ZM120.54,79.05c-.92-1.45-1.8-2.94-2.63-4.44a1.14,1.14,0,0,0-1.26-.51,50.5,50.5,0,0,0-6.43,3,12.36,12.36,0,0,1,8-9.2,15.67,15.67,0,0,1,8-.93c1.86.33,3.9.85,4.42,2.88a1.12,1.12,0,0,0,1.07.81l3.55.08a1.13,1.13,0,0,0,1.11-1.1l.12-1.58,3.69.13c.1,2.7.19,5.39.28,8.09h-3.59l-.38-1.72a1.13,1.13,0,0,0-1.07-.81l-3.21-.07a1.12,1.12,0,0,0-1.11,1.11l0,3.71q-1.77.26-3.54.42A31.37,31.37,0,0,1,120.54,79.05Zm8,16.89-6.11.1c0-4.89.16-9.78.35-14.66h1.12c1.47,0,3-.15,4.42-.3Q128.43,88.51,128.53,95.94ZM81.75,80.83a14.39,14.39,0,0,1-1.24-8.77c.37-2.2,1.8-4.7,4.11-5.18.85,2.58,1.48,5.24,2.1,7.88a1.13,1.13,0,0,0,1.07.82l5.46-.1a1.13,1.13,0,0,0,1.11-1.11c.07-2.63.15-5.28.3-7.91,2,.49,3.35,2.4,4.14,4.2a11.26,11.26,0,0,1-.08,8.66c-1.18,3.11-3.48,5.61-4.61,8.73a16.62,16.62,0,0,0-.36,8.43l-6,.09H86.32s0,0,0,0c.46-3,.89-6.12-.29-9C85,85.06,83,83.18,81.75,80.83ZM75.1,127.37q.65-12,1.3-24L76.64,99l8.79-.14,23.6-.36L137.49,98l24.68-.37,8.11-.13c.94,0,2,.06,2.94,0q.1,6.84.2,13.69l.33,21.7-9,.26-24.21.7-29.27.85-25.37.73c-3.75.11-7.52.13-11.26.31Zm89.71,12-24.37.53-29.37.65-25.39.57-8.36.18c-1,0-2,0-3,0l.18-3.31,9.07-.26,24.21-.7,29.27-.85,25.37-.73c3.78-.11,7.57-.13,11.34-.31l.06,4Zm16.37-27.51-.59.1-4.92.8-.12-7.41c1.62-.13,3.24-.28,4.86-.36h0c.08.42.12.85.19,1.28.13.85.25,1.71.38,2.56l.39,2.56.06.41Z"/></svg>