<svg id="Layer_1" data-name="Layer 1" xmlns="http://www.w3.org/2000/svg" viewBox="0 0 350 350"><defs><style>.cls-1{fill:#282d40;}</style></defs><path class="cls-1" d="M138.26,208.09,214.85,207l10.79-.15a3.24,3.24,0,0,0,3.2-3.21q-.92-10.2-1.84-20.41a3.28,3.28,0,0,0-3.21-3.21l-76.58.18-10.78,0a3.21,3.21,0,0,0-1.43.32,2.62,2.62,0,0,0-1.78,2.88q.92,10.76,1.84,21.5A3.27,3.27,0,0,0,138.26,208.09ZM213,186.42l7.87,0q.63,7,1.27,14l-73.1,1.07-7.86.12q-.65-7.53-1.28-15Z"/><path class="cls-1" d="M344.35,197.36c-.44-3-.91-6.08-1.36-9.11s-.91-6.07-1.36-9.11c-.43-2.84-.78-6-4-7a11.22,11.22,0,0,0-4.36-.12l-4.57.34-7.83.59-.06-4-.24-15.71a3.24,3.24,0,0,0-3.2-3.2l-10.17.15c-.05-1.5-.11-3-.16-4.5a2.46,2.46,0,0,0-2.41-2.4l-6.08-.25,0-.13-.65-1.4c-.5-1.53-1-3.05-1.51-4.58l4.7-4.18a2.41,2.41,0,0,0,0-3.4l-11.17-10.6a2.45,2.45,0,0,0-3.4,0l-4.45,4.15-.08,0-1.56-.56-4.26-2.11q.16-3.14.32-6.27a2.42,2.42,0,0,0-2.4-2.41l-15.4.52a2.45,2.45,0,0,0-2.4,2.4c-.06,2.15-.12,4.29-.17,6.44l-.34.14-1.19.46-2.44.94L247.74,117a2.43,2.43,0,0,0-3.4,0l-11.08,10.71a2.47,2.47,0,0,0,0,3.4l3.92,4.57c0,.05-.07.1-.1.16l-.54,1.31-2.36,4.29-6.34-.6a2.44,2.44,0,0,0-2.41,2.41c0,2.73-.06,5.47-.1,8.2l-4.5.07L191.6,152,191,108.37c1.93-.26,3.85-.53,5.77-.84a3.2,3.2,0,0,0,2.35-3.09l.07-10.21,3.52.07q.56,2.52,1.12,5a3.24,3.24,0,0,0,3.09,2.35h16.25a3.24,3.24,0,0,0,3.21-3.2q-.53-14.84-1-29.67a3.26,3.26,0,0,0-3.21-3.2L205.38,65a3.27,3.27,0,0,0-3.2,3.21c-.11,1.53-.23,3-.34,4.58l-5-.11C192.29,62.14,177.17,60.63,167,61.78c-14.06,1.6-27.46,8.28-35.35,20.32a36.77,36.77,0,0,0-6.11,21.8,1.48,1.48,0,0,0,0,.19,3.11,3.11,0,0,0,.41,1.42c.77,1.36,3,2.21,4.38,1.15h0a2.78,2.78,0,0,0,.77-.53,78,78,0,0,1,12.72-7c2.11-1,4.24-2,6.38-2.89l.14-.06c1.88,3.32,3.8,6.62,5.83,9.85.92,1.47,1.6,2.93,3.39,3.4a14.1,14.1,0,0,0,2.56.36c-.55,14.23-.93,28.46-1,42.7l-22.48.34-47.48.73c-1.19-7.51-1.89-14.69.65-22.05,2.6-7.55,8.14-13.78,11.49-21,6.08-13.14,7-28.29-1.79-40.46-4.08-5.61-9.93-10-17.13-9.83a3.28,3.28,0,0,0-3.21,3.2c-.52,7.74-.77,15.5-1,23.25l-10.12.18a221.2,221.2,0,0,0-6.34-23,3.31,3.31,0,0,0-3.09-2.35c-8.1.06-15,6-18.2,13.1C38.65,83,39.12,93.3,41.05,102.15c2,9,7.66,15.22,12.57,22.69a26.29,26.29,0,0,1,4.59,12.35c.4,5-.31,10-1.06,14.92a3.34,3.34,0,0,0,.23,1.86c-8.2,0-16.41.05-24.58.45h-.48a2.94,2.94,0,0,0-2.69,1.6,3.19,3.19,0,0,0-.51,1.6q-.42,7.62-.83,15.25l-7-.53L16.7,172a11.22,11.22,0,0,0-4.36.12c-3.19,1-3.54,4.17-4,7L7,188.25c-.45,3-.92,6.07-1.36,9.11-.23,1.59-.49,3.15.42,4.6a5.19,5.19,0,0,0,3.85,2.17c5.5.93,11,1.81,16.52,2.7Q24.7,238.72,23,270.59q-.45,8-.88,16a3.25,3.25,0,0,0,3.21,3.21l29.32-.65L125,287.62l84.82-1.88,73.3-1.62c11.87-.26,23.8-.16,35.66-.79h.51a3.24,3.24,0,0,0,3.2-3.2q-.31-21.5-.64-43l-.45-30a4.87,4.87,0,0,0,.54,0c6-1,12.09-1.95,18.13-3a5.19,5.19,0,0,0,3.85-2.17C344.84,200.51,344.58,199,344.35,197.36ZM26.79,200.43l-12.33-2c-.76-.12-1.61-.36-2.42-.48.05-.39.08-.79.13-1.15l1.11-7.4q.56-3.69,1.1-7.4c.19-1.23.32-2.48.56-3.69h0c4.32.23,8.64.61,13,1Q27.37,189.84,26.79,200.43Zm203.42-54.55,6.07.58a2.45,2.45,0,0,0,2.32-1.77l2.14-5.19,1.52-2.77a2.49,2.49,0,0,0-.37-2.91l-3.63-4.24,7.58-7.33c1.28,1.58,2.57,3.15,3.86,4.73a2.31,2.31,0,0,0,2.34.62c2.56-1,5.12-2,7.65-3.06a2.37,2.37,0,0,0,1.19-2.07l.15-5.7,10.53-.35c-.1,2-.21,4-.31,6a2.46,2.46,0,0,0,1.77,2.32l5.5,2,2.62,1.3a2.5,2.5,0,0,0,2.91-.38l4.15-3.88,7.65,7.25q-2.25,2-4.49,4a2.46,2.46,0,0,0-.38,2.91l2.4,5.22c.31,1,.63,1.92.95,2.88a2.46,2.46,0,0,0,2.31,1.76l5.71.24.08,2.27-13.43.2-1.81,0a20.19,20.19,0,0,0-7.3-14.9,22,22,0,0,0-16-4.63c-10.51,1.24-17.1,10.24-18.19,20.17l-15.58.24C230.16,149.55,230.19,147.72,230.21,145.88Zm52.17,4.7-31.82.49c1-7.31,5.61-14.13,13.41-15.28a17.33,17.33,0,0,1,12.58,3.27A15.35,15.35,0,0,1,282.38,150.58ZM162.12,103.31c-2.67-4.2-5.19-8.5-7.61-12.84A3.22,3.22,0,0,0,150.89,89c-6.15,2.55-12.72,5.16-18.58,8.64,2-12.22,11.52-22.17,23.17-26.56a44.85,44.85,0,0,1,23.23-2.69c5.37.93,11.24,2.44,12.74,8.3A3.26,3.26,0,0,0,194.54,79l10.26.24a3.28,3.28,0,0,0,3.21-3.2l.33-4.55L219,71.9l.81,23.36H209.45q-.54-2.48-1.1-5A3.26,3.26,0,0,0,205.26,88l-9.28-.2a3.25,3.25,0,0,0-3.2,3.21c0,3.57-.05,7.14-.08,10.71-3.39.49-6.81.89-10.22,1.22C175.83,103.51,168.8,104.17,162.12,103.31Zm23.08,48.77-17.65.27c.08-14.12.45-28.23,1-42.33,1.08,0,2.16,0,3.24,0,4.26-.13,8.53-.43,12.78-.86ZM50.09,108.45c-3.93-7.25-5-17.26-3.58-25.34,1.08-6.35,5.21-13.57,11.88-15,2.44,7.45,4.29,15.13,6.06,22.76a3.25,3.25,0,0,0,3.09,2.35L83.31,93a3.25,3.25,0,0,0,3.2-3.2c.21-7.62.44-15.25.88-22.85,5.65,1.41,9.67,6.94,12,12.12,3.58,8.12,2.85,16.86-.24,25-3.39,9-10,16.2-13.3,25.21-2.91,8.06-2.3,16.1-1.06,24.33l-17.36.27c-1.36,0-2.72,0-4.08,0a.29.29,0,0,0,0-.1c1.32-8.63,2.58-17.66-.85-26C59.52,120.64,53.77,115.22,50.09,108.45Zm-19.2,134.4q1.88-34.59,3.76-69.19.36-6.43.7-12.87l25.37-.39,68.17-1.05,82.18-1.26L282.34,157l23.41-.36c2.74,0,5.67.17,8.49.05l.6,39.54.93,62.67-26,.75-69.92,2-84.53,2.44-73.27,2.12c-10.82.31-21.69.37-32.51.9ZM290,277.56l-70.38,1.56L134.76,281l-73.3,1.62-24.16.53c-2.78.06-5.75-.12-8.61,0,.18-3.19.35-6.37.52-9.56l26.2-.76,69.92-2,84.53-2.44,73.27-2.12c10.9-.31,21.85-.37,32.74-.9l.18,11.64Zm47.27-79.43-1.7.28-14.23,2.33q-.15-10.69-.32-21.41c4.67-.37,9.35-.8,14-1h0c.23,1.22.37,2.47.56,3.7q.54,3.71,1.1,7.4l1.11,7.4L338,198C337.73,198,337.45,198.1,337.24,198.13Z"/></svg>