<svg id="Layer_1" data-name="Layer 1" xmlns="http://www.w3.org/2000/svg" viewBox="0 0 350 350"><defs><style>.cls-1{fill:#282d40;}</style></defs><path class="cls-1" d="M310.1,47.51c2.32-2.56-1.46-6.37-3.79-3.8q-10.6,11.65-21.2,23.3L268.85,51.9l-5.76-5.36c-2.53-2.35-6.34,1.44-3.8,3.8L281.5,71l-16.73,18.4q-3,3.28-6,6.56c-2.33,2.55,1.46,6.36,3.79,3.8l22.83-25.1,14.79,13.75L306,93.74c2.53,2.35,6.34-1.44,3.8-3.79L289,70.67q7.54-8.31,15.1-16.6Q307.13,50.79,310.1,47.51Z"/><path class="cls-1" d="M339.38,57.63A56.79,56.79,0,0,0,314.3,18.89,64.41,64.41,0,0,0,272.13,9c-.18,0-.34.07-.49.11s-.14,0-.23,0c-25.14,3.47-43.48,23.21-49.52,47.24-3.34,13.28-3.49,28,1.23,41,4.52,12.45,13.83,21.6,25.35,27.83,11,5.94,23.84,9.73,36.4,9.15A53.83,53.83,0,0,0,316.55,122C335,106.77,343.23,80.91,339.38,57.63Zm-20.64,54.82A49.89,49.89,0,0,1,292.39,128c-11.12,2.39-22.7.34-33.18-3.72-10.75-4.17-21.5-11.09-27.54-21.16-6.72-11.21-7.92-25.46-6-38.18,1.8-12.1,6.59-24,14.7-33.27a52,52,0,0,1,32.12-17.29c24.8-2.86,50.85,10.56,59.24,34.79C339.05,70.38,333.87,95.81,318.74,112.45Z"/><path class="cls-1" d="M96.33,109.44a3.63,3.63,0,0,0-3.58-3.58c-19.76-.24-39.51-.37-59.26-.27-6.72,0-13.44.1-20.16.27a3.38,3.38,0,0,0-1.91.59l-.07,0-.16.1a3.23,3.23,0,0,0-1.44,2.84c0,4.59,0,9.19,0,13.79,0,1.47-.15,3,0,4.48.22,2.19,1.82,3.54,3.26,5.07,5.14,5.48,10.54,10.73,16,15.93q.55,15.09,1.1,30.17l-4.66,2c-1.8.75-3,2.36-2.5,4.4.44,1.69,2.62,3.25,4.4,2.5l3-1.27q.33,8.88.65,17.77l-3.58,1.5c-1.8.76-3,2.37-2.5,4.41.44,1.69,2.62,3.25,4.4,2.5l2-.82q.22,6.34.46,12.69c.05,1.32.1,2.63.14,3.95l-5.18,2.18c-1.8.75-3,2.36-2.5,4.4.44,1.69,2.62,3.25,4.4,2.5l3.56-1.49.63,17.13-4.58,1.91c-1.8.76-3,2.37-2.5,4.41.44,1.69,2.62,3.25,4.4,2.5l3-1.24.54,14.81.09,2.5-3.53,1.48c-1.79.75-3,2.36-2.5,4.41.45,1.68,2.62,3.24,4.41,2.5l1.9-.8c.06,1.73.13,3.47.19,5.21.09,2.37.06,4.34,1,6.56q9,21.12,18.06,42.23c1.05,2.44,5.07,2.23,6.18,0L78.55,301.3c1.29-2.58,2.57-4.66,2.46-7.57l-.48-12.68q-.27-7.33-.55-14.67l2.64-1.11c1.8-.76,3-2.36,2.5-4.41-.44-1.68-2.62-3.24-4.4-2.5l-1,.43L79,241.49l1.63-.68c1.8-.75,3-2.36,2.5-4.4-.44-1.69-2.62-3.25-4.4-2.5h0q-.33-8.57-.65-17.12l1-.44c1.79-.75,3-2.36,2.5-4.4a3.75,3.75,0,0,0-3.83-2.65l-.63-16.73,2.68-1.12c1.79-.75,3-2.36,2.5-4.4-.45-1.69-2.62-3.25-4.41-2.5l-1.06.44q-.14-3.7-.28-7.41l-.39-10.35,1.63-.68c1.79-.76,3-2.37,2.5-4.41-.45-1.68-2.62-3.25-4.41-2.5h0l-.42-11,18.43-17c1.23-1.14,2.15-1.91,2.36-3.77a47.5,47.5,0,0,0,0-4.92Zm-26.1,88.13q.27,7.29.55,14.59L38.94,225.52l-.45-12.3c-.05-1.45-.11-2.9-.16-4.35l31.82-13.34C70.18,196.21,70.2,196.89,70.23,197.57Zm-4,112.52-9.62,19.29-15-35.08c0-.08-.08-.17-.11-.26.09-1.4-.11-2.88-.16-4.27-.08-2.35-.17-4.71-.26-7.06l31.91-13.38q.3,7.77.59,15.54l.27,7.19a21.12,21.12,0,0,0,0,2.76c-.51.94-1,1.93-1.42,2.87Zm-25.43-35-.14-3.88q-.26-6.71-.49-13.42L72,244.45q.32,8.38.64,16.77c0,.17,0,.35,0,.53Zm-.91-24.89-.63-17.13,31.85-13.35q.33,8.55.65,17.12Zm-1.79-48.95q-.31-8.88-.65-17.77l31.8-13.33L69.86,188Zm-.92-25.35q-.3-8-.59-16c-.14-4-.2-8.08-.44-12.11a6.15,6.15,0,0,0-2.23-4.35c-4.09-3.94-8.15-7.91-12.13-12q-2.46-2.51-4.83-5.1c0-4.49,0-9,0-13.46,22.94-.5,45.91-.24,68.85,0l3.41,0v13.3L72.16,142c-1.68,1.55-3.67,2.83-3.83,5.31-.07,1.19.1,2.46.14,3.65q.23,5.81.44,11.61Z"/><path class="cls-1" d="M267.76,148.9a3.64,3.64,0,0,0-3.59-3.58c-19.07-.23-38.18-.48-57.26,0a3.53,3.53,0,0,0-1.92.6l-.05,0a1,1,0,0,0-.17.12,3.2,3.2,0,0,0-1.44,2.83q0,5.32,0,10.66a24.29,24.29,0,0,0,0,2.56c.22,1.9,1.39,3,2.64,4.31,3.62,3.86,7.42,7.56,11.24,11.22l.75,20.68-2.6,1.09c-1.79.75-3.06,2.37-2.51,4.4.47,1.68,2.61,3.26,4.41,2.5l1-.41.39,10.7-1.83.77c-1.78.74-3.06,2.37-2.5,4.4.47,1.68,2.61,3.25,4.41,2.5l.2-.08c.09,2.59.19,5.19.28,7.78,0,.7.05,1.4.08,2.1l-3,1.25c-1.78.75-3.06,2.37-2.5,4.41.47,1.68,2.61,3.25,4.41,2.5l1.35-.57c.13,3.41.25,6.82.38,10.23L217.38,253c-1.79.75-3.06,2.37-2.51,4.4.47,1.68,2.61,3.26,4.41,2.5l.91-.38c.12,3.14.23,6.28.35,9.42l0,.94-1.79.75c-1.78.75-3.06,2.37-2.5,4.41.46,1.68,2.61,3.25,4.41,2.5l.16-.07.09,2.37a13,13,0,0,0,.84,5.12q6.5,15.24,13,30.48c1.05,2.44,5.07,2.23,6.18,0q6.94-13.91,13.88-27.82c1-1.94,1.88-3.56,1.83-5.75,0-3-.22-6.07-.34-9.1-.13-3.34-.25-6.69-.38-10l1.15-.48c1.78-.74,3.06-2.37,2.5-4.4a3.73,3.73,0,0,0-3.93-2.63l-.39-10.43.41-.17c1.78-.75,3.06-2.37,2.5-4.41a3.87,3.87,0,0,0-3.19-2.66L254.65,227c1.77-.75,3-2.37,2.49-4.4a3.92,3.92,0,0,0-2.76-2.59L254,209.49l1.17-.49c1.78-.75,3.06-2.37,2.5-4.41a3.71,3.71,0,0,0-4-2.61l-.14-3.9-.26-6.87.41-.17c1.78-.75,3.06-2.37,2.5-4.4A3.9,3.9,0,0,0,253,184l-.24-6.37c4.36-4,8.77-8,13.07-12.11,2.09-2,1.9-4.12,1.9-6.85Zm-57.27,11.84c0-2.77,0-5.55,0-8.32,16.7-.34,33.41-.18,50.1,0v8.17l-11.94,11.06c-1.46,1.35-2.92,2.36-3.08,4.52a20.74,20.74,0,0,0,.1,2.49c.1,2.63.19,5.27.29,7.91L225,195.37c-.13-3.42-.25-6.85-.38-10.27-.11-2.93,0-6-.32-8.91-.32-2.59-2.54-4.06-4.31-5.79C216.77,167.25,213.55,164.07,210.49,160.74Zm35.76,33.43c.13,3.56.27,7.13.4,10.69l-21,8.79L225.29,203Zm.69,18.27c.12,3.3.25,6.59.37,9.88l-21,8.81-.36-9.89Zm.66,17.47q.18,5.11.38,10.22l-21,8.81c-.12-3.41-.25-6.82-.37-10.23Zm.67,17.81q.19,5.13.38,10.26a.31.31,0,0,1,0,.1l-21,8.81-.06-1.45-.32-8.91ZM243,295.43q-2.4,4.81-4.81,9.64c-3.25-7.79-6.45-15.62-10-23.27.05-1-.07-2-.11-3-.05-1.45-.11-2.89-.16-4.34l21-8.82.36,9.36c.06,1.8.13,3.59.2,5.38,0,.47-.1,1.35,0,2-.43.8-.8,1.66-1.2,2.45Z"/><path class="cls-1" d="M182,136.35a3.64,3.64,0,0,0-3.58-3.58c-21.6-.26-43.22-.54-64.81,0a3.47,3.47,0,0,0-1.92.6l-.06,0-.17.11a3.24,3.24,0,0,0-1.43,2.83c0,3.8,0,7.59,0,11.38a33.86,33.86,0,0,0,0,3.49c.19,2,1.35,3.06,2.64,4.43,4.19,4.49,8.61,8.79,13.05,13l.88,23.92L123.33,194c-1.79.75-3.06,2.37-2.5,4.41.46,1.68,2.61,3.25,4.4,2.5l1.68-.71.48,13.11-2.42,1c-1.78.75-3.06,2.37-2.5,4.4.46,1.68,2.61,3.26,4.4,2.5l.8-.33c.12,3.25.23,6.49.35,9.74l.09,2.45-3.73,1.56c-1.78.75-3.06,2.37-2.5,4.41.46,1.68,2.61,3.25,4.4,2.5l2.11-.88q.23,6.29.46,12.58l-3.24,1.35c-1.78.75-3.06,2.37-2.5,4.41.46,1.68,2.61,3.25,4.41,2.5l1.61-.68q.19,5.7.41,11.38l.05,1.35-2.38,1c-1.79.75-3.06,2.37-2.5,4.41.46,1.68,2.61,3.25,4.4,2.5l.76-.32.12,3.37a14.32,14.32,0,0,0,.93,5.65q7.34,17.22,14.72,34.41c1.05,2.45,5.07,2.24,6.18,0l15.59-31.23c1.09-2.2,2.22-4.07,2.13-6.56-.13-3.37-.25-6.74-.38-10.11l-.45-11.82,1.66-.69c1.78-.75,3.06-2.37,2.5-4.41-.46-1.68-2.61-3.25-4.4-2.5l0,0L168,244.56l.83-.35c1.78-.75,3.06-2.37,2.5-4.41a3.83,3.83,0,0,0-3.61-2.67l-.48-12.73.35-.15c1.78-.75,3.06-2.37,2.5-4.41a3.9,3.9,0,0,0-3.12-2.66l-.48-12.55,1.69-.71c1.78-.74,3.06-2.37,2.5-4.4-.46-1.68-2.61-3.25-4.4-2.5l-.07,0c-.06-1.68-.13-3.35-.19-5l-.31-8.08.83-.34c1.78-.75,3.06-2.37,2.5-4.41a3.81,3.81,0,0,0-3.6-2.67l-.3-7.89,14.83-13.73c2.39-2.21,2.12-4.54,2.12-7.6ZM117.23,150c0-3.36,0-6.72,0-10.07,19.2-.41,38.44-.22,57.65,0v9.93L161,162.63c-1.5,1.39-3,2.4-3.15,4.63a26.27,26.27,0,0,0,.11,2.94c.11,3,.23,6.08.34,9.12l-24.64,10.33q-.23-6.06-.44-12.12c-.13-3.37,0-6.87-.38-10.22-.31-2.72-2.66-4.26-4.52-6.07C124.57,157.56,120.79,153.85,117.23,150ZM159.41,208q.22,5.88.44,11.76l-24.68,10.35-.45-12.19,24.67-10.34C159.4,207.73,159.41,207.87,159.41,208Zm.73,19.34q.24,6.28.47,12.58L135.9,250.29q-.22-6.28-.46-12.58Zm-5.33,75.24q-2.92,5.85-5.84,11.71l-11.7-27.36,0-.05c0-1.14-.09-2.34-.13-3.47-.06-1.74-.13-3.48-.19-5.23l24.74-10.37q.22,5.82.44,11.63c.08,2,.15,4,.23,6,0,.48-.1,1.43,0,2.1-.53,1-1,2-1.52,3Q157.79,296.6,154.81,302.59ZM162.6,287c.21-.5.42-.78,0,0Zm-26-16.38c0-.76,0-1.52-.08-2.28-.13-3.49-.25-7-.38-10.45l24.72-10.37.48,12.72h0Zm-2.2-60.26q-.24-6.56-.47-13.11l24.65-10.34q.24,6.56.49,13.1Z"/></svg>