<svg id="Layer_1" data-name="Layer 1" xmlns="http://www.w3.org/2000/svg" viewBox="0 0 250 250"><defs><style>.cls-1{fill:#5cfa9d;}.cls-2{fill:#282d40;}</style></defs><circle class="cls-1" cx="125" cy="125" r="125"/><path class="cls-2" d="M73.88,177.72v1.48H67.72v-7.95h6v1.48H69.55v1.72h3.69v1.43H69.55v1.84Z"/><path class="cls-2" d="M76.13,179.08a4,4,0,0,1-1.41-.67l.62-1.38a4.21,4.21,0,0,0,1.22.6,4.51,4.51,0,0,0,1.4.23,2.3,2.3,0,0,0,1.16-.23.72.72,0,0,0,.38-.62.6.6,0,0,0-.22-.47,1.54,1.54,0,0,0-.57-.3c-.23-.08-.55-.16-.94-.25a12.79,12.79,0,0,1-1.49-.44,2.41,2.41,0,0,1-1-.69,1.85,1.85,0,0,1-.42-1.27,2.25,2.25,0,0,1,.38-1.26,2.57,2.57,0,0,1,1.13-.89,4.6,4.6,0,0,1,1.85-.33,6.12,6.12,0,0,1,1.48.18,4.45,4.45,0,0,1,1.27.53l-.56,1.39a4.52,4.52,0,0,0-2.21-.62,2.05,2.05,0,0,0-1.14.25.79.79,0,0,0-.37.66.67.67,0,0,0,.43.61,7,7,0,0,0,1.3.39,13,13,0,0,1,1.49.43,2.48,2.48,0,0,1,1,.68,1.81,1.81,0,0,1,.42,1.26,2.1,2.1,0,0,1-.39,1.24,2.5,2.5,0,0,1-1.14.9,4.6,4.6,0,0,1-1.85.33A6.51,6.51,0,0,1,76.13,179.08Z"/><path class="cls-2" d="M84.12,172.75H81.58v-1.5H88.5v1.5H86v6.45H84.12Z"/><path class="cls-2" d="M94.33,177.5H90.64l-.71,1.7H88.05l3.54-7.95h1.82L97,179.2H95Zm-.58-1.4-1.26-3-1.26,3Z"/><path class="cls-2" d="M105.08,171.25v7.95h-1.51l-4-4.83v4.83H97.79v-7.95h1.52l4,4.83v-4.83Z"/><path class="cls-2" d="M107,171.25h3.61a5.1,5.1,0,0,1,2.29.49,3.78,3.78,0,0,1,1.54,1.39,3.91,3.91,0,0,1,.55,2.09,3.86,3.86,0,0,1-.55,2.09,3.64,3.64,0,0,1-1.54,1.39,5.11,5.11,0,0,1-2.29.5H107Zm3.52,6.44a2.64,2.64,0,0,0,1.9-.67,2.35,2.35,0,0,0,.71-1.8,2.38,2.38,0,0,0-.71-1.8,2.68,2.68,0,0,0-1.9-.66h-1.68v4.93Z"/><path class="cls-2" d="M121.47,177.5h-3.69l-.71,1.7h-1.88l3.54-7.95h1.82l3.55,7.95h-1.93Zm-.58-1.4-1.26-3-1.26,3Z"/><path class="cls-2" d="M130,179.2,128.47,177h-1.7v2.22h-1.84v-7.95h3.44a4.51,4.51,0,0,1,1.84.35,2.83,2.83,0,0,1,1.19,4.06,2.63,2.63,0,0,1-1.21,1L132,179.2Zm-.47-6.09a1.93,1.93,0,0,0-1.26-.36h-1.5v2.77h1.5a1.93,1.93,0,0,0,1.26-.36,1.28,1.28,0,0,0,.43-1A1.23,1.23,0,0,0,129.53,173.11Z"/><path class="cls-2" d="M133.28,171.25h1.84v7.95h-1.84Z"/><path class="cls-2" d="M143.44,177.7v1.5h-6.95V178l4.36-5.26h-4.27v-1.5h6.69v1.19l-4.35,5.26Z"/><path class="cls-2" d="M149.86,177.5h-3.69l-.71,1.7h-1.88l3.54-7.95h1.82l3.55,7.95h-1.93Zm-.58-1.4-1.26-3-1.26,3Z"/><path class="cls-2" d="M154.82,178.81a4,4,0,0,1-1.55-1.47,4.27,4.27,0,0,1,0-4.23,3.92,3.92,0,0,1,1.55-1.47,4.6,4.6,0,0,1,2.21-.53,4.48,4.48,0,0,1,1.86.37,3.76,3.76,0,0,1,1.41,1l-1.18,1.09a2.55,2.55,0,0,0-2-.93,2.71,2.71,0,0,0-1.32.32,2.25,2.25,0,0,0-.9.91,2.79,2.79,0,0,0,0,2.63,2.17,2.17,0,0,0,.9.9,2.61,2.61,0,0,0,1.32.33,2.56,2.56,0,0,0,2-.94l1.18,1.09a3.68,3.68,0,0,1-1.41,1.05,4.74,4.74,0,0,1-1.88.37A4.55,4.55,0,0,1,154.82,178.81Z"/><path class="cls-2" d="M161.53,171.25h1.84v7.95h-1.84Z"/><path class="cls-2" d="M166.88,178.8a3.88,3.88,0,0,1-1.56-1.47,4.24,4.24,0,0,1,0-4.21,3.88,3.88,0,0,1,1.56-1.47,4.85,4.85,0,0,1,4.45,0,4,4,0,0,1,0,7.15,4.85,4.85,0,0,1-4.45,0Zm3.5-1.36a2.2,2.2,0,0,0,.89-.9,2.79,2.79,0,0,0,0-2.63,2.29,2.29,0,0,0-.89-.91,2.68,2.68,0,0,0-2.54,0,2.38,2.38,0,0,0-.9.91,2.86,2.86,0,0,0,0,2.63,2.29,2.29,0,0,0,.9.9,2.61,2.61,0,0,0,2.54,0Zm-.77-8.47h1.91l-2.06,1.63h-1.38Z"/><path class="cls-2" d="M182.13,171.25v7.95h-1.51l-4-4.83v4.83h-1.82v-7.95h1.53l3.95,4.83v-4.83Z"/><path class="cls-2" d="M82.11,185.23a2.7,2.7,0,0,1,1.2,1,2.74,2.74,0,0,1,.42,1.53,2.79,2.79,0,0,1-.42,1.53,2.7,2.7,0,0,1-1.2,1,4.46,4.46,0,0,1-1.83.34h-1.6v2.2H76.84v-8h3.44A4.3,4.3,0,0,1,82.11,185.23Zm-.67,3.55a1.44,1.44,0,0,0,0-2.05,1.93,1.93,0,0,0-1.26-.35h-1.5v2.76h1.5A1.93,1.93,0,0,0,81.44,188.78Z"/><path class="cls-2" d="M86.77,192.43a4.06,4.06,0,0,1,0-7.16,5,5,0,0,1,4.46,0,4.06,4.06,0,0,1,0,7.16,5,5,0,0,1-4.46,0Zm3.5-1.36a2.36,2.36,0,0,0,.9-.9,2.88,2.88,0,0,0,0-2.64,2.43,2.43,0,0,0-.9-.9,2.55,2.55,0,0,0-1.27-.32,2.58,2.58,0,0,0-1.27.32,2.33,2.33,0,0,0-.89.9,2.88,2.88,0,0,0,0,2.64,2.27,2.27,0,0,0,.89.9,2.48,2.48,0,0,0,1.27.33A2.45,2.45,0,0,0,90.27,191.07Z"/><path class="cls-2" d="M99.8,192.83l-1.53-2.22H96.58v2.22H94.74v-8h3.44a4.33,4.33,0,0,1,1.83.35,2.7,2.7,0,0,1,1.2,1,2.74,2.74,0,0,1,.42,1.53,2.6,2.6,0,0,1-1.63,2.51l1.78,2.56Zm-.46-6.1a1.93,1.93,0,0,0-1.26-.35h-1.5v2.77h1.5a1.88,1.88,0,0,0,1.26-.37,1.44,1.44,0,0,0,0-2.05Z"/><path class="cls-2" d="M112.45,191.35v1.48H106.3v-8h6v1.47h-4.18v1.73h3.69v1.43h-3.69v1.84Z"/><path class="cls-2" d="M121.21,184.88v8H119.7l-4-4.83v4.83h-1.81v-8h1.52l4,4.82v-4.82Z"/><path class="cls-2" d="M124.7,192.43a3.94,3.94,0,0,1-1.54-1.46,4.23,4.23,0,0,1,0-4.24,3.94,3.94,0,0,1,1.54-1.46,4.63,4.63,0,0,1,2.21-.53,4.69,4.69,0,0,1,1.87.36,3.83,3.83,0,0,1,1.4,1.05L129,187.24a2.55,2.55,0,0,0-2-.93,2.74,2.74,0,0,0-1.32.32,2.43,2.43,0,0,0-.9.9,2.88,2.88,0,0,0,0,2.64,2.36,2.36,0,0,0,.9.9,2.64,2.64,0,0,0,1.32.33,2.54,2.54,0,0,0,2-1l1.18,1.09a3.71,3.71,0,0,1-1.41,1.06,4.69,4.69,0,0,1-1.87.36A4.5,4.5,0,0,1,124.7,192.43Z"/><path class="cls-2" d="M131.42,184.88h1.84v8h-1.84Z"/><path class="cls-2" d="M142.38,192.83l0-4.77L140,192h-.83l-2.33-3.83v4.67h-1.73v-8h1.52l3,4.94,2.93-4.94h1.51l0,8Z"/><path class="cls-2" d="M151.22,191.12h-3.69l-.7,1.71h-1.89l3.55-8h1.81l3.56,8h-1.93Zm-.58-1.39-1.26-3-1.26,3Z"/><path class="cls-2" d="M157.9,184.88h3.61a5.08,5.08,0,0,1,2.29.49,3.65,3.65,0,0,1,1.54,1.39,4.25,4.25,0,0,1,0,4.18,3.65,3.65,0,0,1-1.54,1.39,5.08,5.08,0,0,1-2.29.5H157.9Zm3.52,6.44a2.67,2.67,0,0,0,1.9-.67,2.64,2.64,0,0,0,0-3.6,2.66,2.66,0,0,0-1.9-.66h-1.68v4.93Z"/><path class="cls-2" d="M173.44,191.35v1.48h-6.16v-8h6v1.47h-4.18v1.73h3.69v1.43h-3.69v1.84Z"/><path class="cls-2" d="M75.81,206.06a4,4,0,0,1-1.55-1.46,4.29,4.29,0,0,1,0-4.24,4,4,0,0,1,1.55-1.46,4.48,4.48,0,0,1,2.2-.53,4.65,4.65,0,0,1,1.87.36,3.68,3.68,0,0,1,1.41,1.05l-1.19,1.09a2.52,2.52,0,0,0-2-.93,2.58,2.58,0,0,0-1.32.32,2.29,2.29,0,0,0-.9.9,2.8,2.8,0,0,0,0,2.64,2.29,2.29,0,0,0,.9.9,2.58,2.58,0,0,0,1.32.32,2.5,2.5,0,0,0,2-.94l1.19,1.09a3.81,3.81,0,0,1-1.41,1.06,4.74,4.74,0,0,1-1.88.36A4.55,4.55,0,0,1,75.81,206.06Z"/><path class="cls-2" d="M84,206.06a4.06,4.06,0,0,1,0-7.16,5,5,0,0,1,4.46,0,4.06,4.06,0,0,1,0,7.16,5,5,0,0,1-4.46,0Zm3.5-1.36a2.43,2.43,0,0,0,.9-.9,2.88,2.88,0,0,0,0-2.64,2.43,2.43,0,0,0-2.17-1.22,2.47,2.47,0,0,0-1.27.32,2.4,2.4,0,0,0-.89.9,2.88,2.88,0,0,0,0,2.64,2.4,2.4,0,0,0,.89.9,2.47,2.47,0,0,0,1.27.32A2.45,2.45,0,0,0,87.47,204.7Z"/><path class="cls-2" d="M99.23,198.51v7.94H97.72l-4-4.82v4.82H91.94v-7.94h1.52l4,4.82v-4.82Z"/><path class="cls-2" d="M103,200v2.1h3.68v1.48H103v2.89h-1.84v-7.94h6V200Z"/><path class="cls-2" d="M108.37,198.51h1.84v7.94h-1.84Z"/><path class="cls-2" d="M117.47,202.35h1.68v3.23a4.59,4.59,0,0,1-1.5.75,6,6,0,0,1-1.72.26,4.67,4.67,0,0,1-2.22-.53,3.9,3.9,0,0,1-1.55-1.46,4.29,4.29,0,0,1,0-4.24,3.86,3.86,0,0,1,1.56-1.46,4.62,4.62,0,0,1,2.25-.53,5,5,0,0,1,1.89.35,3.82,3.82,0,0,1,1.43,1l-1.18,1.09a2.7,2.7,0,0,0-2-.89,2.8,2.8,0,0,0-1.35.31,2.28,2.28,0,0,0-.92.9,2.83,2.83,0,0,0,0,2.65,2.38,2.38,0,0,0,.91.9A2.68,2.68,0,0,0,116,205a3,3,0,0,0,1.43-.34Z"/><path class="cls-2" d="M121.73,205.65a3.65,3.65,0,0,1-1-2.69v-4.45h1.84v4.38q0,2.13,1.77,2.13a1.67,1.67,0,0,0,1.32-.51,2.45,2.45,0,0,0,.46-1.62v-4.38H128V203a3.76,3.76,0,0,1-6.25,2.69Z"/><path class="cls-2" d="M134.86,206.45l-1.53-2.21h-1.69v2.21H129.8v-7.94h3.44a4.3,4.3,0,0,1,1.83.35,2.64,2.64,0,0,1,1.2,1,3,3,0,0,1,0,3.06,2.82,2.82,0,0,1-1.21,1l1.78,2.55Zm-.46-6.09a1.93,1.93,0,0,0-1.26-.36h-1.5v2.77h1.5a1.93,1.93,0,0,0,1.26-.36,1.44,1.44,0,0,0,0-2Z"/><path class="cls-2" d="M143.38,204.75h-3.69l-.7,1.7H137.1l3.54-7.94h1.82l3.56,7.94h-1.93Zm-.58-1.4-1.26-3-1.26,3Z"/><path class="cls-2" d="M148.34,206.06a4,4,0,0,1-1.55-1.46,4.29,4.29,0,0,1,0-4.24,4,4,0,0,1,1.55-1.46,4.49,4.49,0,0,1,2.21-.53,4.69,4.69,0,0,1,1.87.36,3.72,3.72,0,0,1,1.4,1.05l-1.18,1.09a2.55,2.55,0,0,0-2-.93,2.63,2.63,0,0,0-1.32.32,2.29,2.29,0,0,0-.9.9,2.81,2.81,0,0,0,0,2.64,2.29,2.29,0,0,0,.9.9,2.63,2.63,0,0,0,1.32.32,2.53,2.53,0,0,0,2-.94l1.18,1.09a3.81,3.81,0,0,1-1.41,1.06,4.72,4.72,0,0,1-1.87.36A4.59,4.59,0,0,1,148.34,206.06Z"/><path class="cls-2" d="M155.06,198.51h1.84v7.94h-1.84Z"/><path class="cls-2" d="M160.4,206.06a4.05,4.05,0,0,1,0-7.16,5,5,0,0,1,4.46,0,4.13,4.13,0,0,1,1.55,1.47,4.19,4.19,0,0,1,0,4.22,4.13,4.13,0,0,1-1.55,1.47,5,5,0,0,1-4.46,0Zm3.5-1.36a2.33,2.33,0,0,0,.89-.9,2.8,2.8,0,0,0,0-2.64,2.33,2.33,0,0,0-.89-.9,2.68,2.68,0,0,0-2.54,0,2.33,2.33,0,0,0-.89.9,2.81,2.81,0,0,0,0,2.64,2.33,2.33,0,0,0,.89.9,2.68,2.68,0,0,0,2.54,0Zm-.77-8.48H165L163,197.86H161.6Z"/><path class="cls-2" d="M175.66,198.51v7.94h-1.51l-4-4.82v4.82h-1.82v-7.94h1.53l4,4.82v-4.82Z"/><path class="cls-2" d="M175.65,57.13c.72-.79-.46-2-1.18-1.18l-6.57,7.23-5-4.69-1.79-1.66c-.78-.73-2,.45-1.17,1.18l6.88,6.4-5.18,5.7-1.85,2c-.72.79.45,2,1.17,1.18L168,65.54l4.58,4.26,1.79,1.66c.78.73,2-.44,1.18-1.18l-6.43-6,4.68-5.15Z"/><path class="cls-2" d="M184.72,60.27a17.59,17.59,0,0,0-7.77-12,20,20,0,0,0-13.07-3.06l-.16,0h-.07c-7.79,1.07-13.47,7.19-15.35,14.64a22.1,22.1,0,0,0,.38,12.71,16.2,16.2,0,0,0,7.86,8.62A22.09,22.09,0,0,0,167.82,84a16.69,16.69,0,0,0,9.82-3.83C183.38,75.5,185.92,67.48,184.72,60.27Zm-6.4,17a15.41,15.41,0,0,1-8.16,4.81,18.07,18.07,0,0,1-10.29-1.15c-3.33-1.29-6.66-3.44-8.54-6.56-2.08-3.47-2.45-7.89-1.86-11.83A20.18,20.18,0,0,1,154,52.21a16.15,16.15,0,0,1,10-5.35c7.69-.89,15.76,3.27,18.36,10.78A20.13,20.13,0,0,1,178.32,77.26Z"/><path class="cls-2" d="M109.38,76.33a1.11,1.11,0,0,0-1.11-1.11q-9.18-.12-18.36-.09c-2.09,0-4.17,0-6.25.09a1,1,0,0,0-.6.18h0s0,0,0,0a1,1,0,0,0-.45.88c0,1.42,0,2.85,0,4.27a12.89,12.89,0,0,0,0,1.39,2.76,2.76,0,0,0,1,1.57c1.59,1.7,3.26,3.33,5,4.94.11,3.12.22,6.23.34,9.35l-1.45.61a1.14,1.14,0,0,0-.77,1.36,1.11,1.11,0,0,0,1.36.78l.94-.4c.07,1.84.14,3.68.2,5.51l-1.11.47a1.14,1.14,0,0,0-.77,1.36,1.11,1.11,0,0,0,1.36.78l.61-.26.14,3.94c0,.41,0,.81,0,1.22l-1.61.68a1.13,1.13,0,0,0-.77,1.36,1.11,1.11,0,0,0,1.36.78l1.1-.46c.07,1.76.13,3.53.2,5.3l-1.42.6a1.13,1.13,0,0,0-.77,1.36,1.11,1.11,0,0,0,1.36.78l.91-.38.17,4.58,0,.78-1.09.46a1.14,1.14,0,0,0-.78,1.36,1.12,1.12,0,0,0,1.37.78l.59-.25c0,.54,0,1.08,0,1.62a5.21,5.21,0,0,0,.32,2q2.79,6.56,5.6,13.09a1.11,1.11,0,0,0,1.91,0q3-5.94,5.93-11.89a4.72,4.72,0,0,0,.77-2.35l-.15-3.93-.17-4.55.82-.34a1.15,1.15,0,0,0,.77-1.37,1.11,1.11,0,0,0-1.36-.77l-.32.13-.2-5.36.5-.21a1.16,1.16,0,0,0,.78-1.37,1.12,1.12,0,0,0-1.37-.77h0c-.07-1.77-.14-3.54-.2-5.31l.32-.13a1.12,1.12,0,0,0-.41-2.19c-.06-1.73-.13-3.46-.19-5.18l.83-.35a1.15,1.15,0,0,0,.77-1.37,1.11,1.11,0,0,0-1.36-.77l-.33.14-.09-2.3-.12-3.21.5-.21a1.16,1.16,0,0,0,.78-1.37,1.12,1.12,0,0,0-1.37-.77h0l-.13-3.41,5.71-5.29a1.65,1.65,0,0,0,.73-1.17,12.85,12.85,0,0,0,0-1.52Zm-8.09,27.31c.06,1.51.12,3,.17,4.53l-9.87,4.14c0-1.27-.09-2.54-.13-3.81,0-.45,0-.9,0-1.35l9.86-4.14C101.28,103.22,101.29,103.43,101.29,103.64ZM100,138.52l-3,6-4.65-10.87,0-.08a11.83,11.83,0,0,0-.05-1.33c0-.73,0-1.46-.08-2.19l9.89-4.14.18,4.81.09,2.23a4.93,4.93,0,0,0,0,.86c-.16.29-.3.6-.44.89Zm-7.88-10.84,0-1.2L92,122.32l9.88-4.14c.07,1.73.13,3.46.2,5.19v.17ZM91.87,120c-.06-1.77-.12-3.54-.19-5.31l9.87-4.14.2,5.3Zm-.55-15.17-.2-5.51L101,95.16l.21,5.5ZM91,96.94l-.18-5c0-1.25-.06-2.5-.13-3.75a2,2,0,0,0-.7-1.35c-1.26-1.22-2.52-2.45-3.76-3.71-.51-.51-1-1-1.49-1.58V77.42c7.11-.16,14.23-.08,21.34,0h1v4.13l-5.27,4.88c-.52.48-1.14.88-1.18,1.64a10.76,10.76,0,0,0,0,1.14c0,1.2.09,2.4.14,3.6Z"/><path class="cls-2" d="M162.52,88.56a1.13,1.13,0,0,0-1.11-1.11c-5.91-.07-11.84-.15-17.75,0a1.08,1.08,0,0,0-.59.18h0l-.05,0a1,1,0,0,0-.45.88q0,1.65,0,3.3a7.12,7.12,0,0,0,0,.8,2.29,2.29,0,0,0,.82,1.33c1.12,1.2,2.3,2.35,3.48,3.48l.24,6.41-.81.34a1.15,1.15,0,0,0-.78,1.36,1.13,1.13,0,0,0,1.37.78l.3-.13.12,3.32-.56.23a1.17,1.17,0,0,0-.78,1.37,1.12,1.12,0,0,0,1.37.77l.06,0,.09,2.41c0,.22,0,.44,0,.65l-.92.39a1.15,1.15,0,0,0-.78,1.37,1.12,1.12,0,0,0,1.37.77l.42-.18c0,1.06.07,2.12.11,3.18l-.79.33a1.14,1.14,0,0,0-.77,1.36,1.12,1.12,0,0,0,1.36.78l.29-.12c0,1,.07,1.94.1,2.92,0,.09,0,.19,0,.29l-.56.23a1.15,1.15,0,0,0-.77,1.37,1.1,1.1,0,0,0,1.36.77l0,0,0,.74a4,4,0,0,0,.26,1.58q2,4.72,4,9.45a1.12,1.12,0,0,0,1.92,0l4.3-8.62a3.74,3.74,0,0,0,.57-1.78c0-.94-.07-1.89-.11-2.82l-.12-3.12.36-.15a1.11,1.11,0,0,0-.44-2.17l-.13-3.24.13,0a1.15,1.15,0,0,0,.78-1.37,1.21,1.21,0,0,0-1-.82l-.12-3.28a1.14,1.14,0,0,0,.77-1.36,1.23,1.23,0,0,0-.86-.81l-.12-3.24.37-.15a1.12,1.12,0,0,0-.45-2.18l0-1.21-.08-2.13.13,0a1.13,1.13,0,0,0,.77-1.36,1.2,1.2,0,0,0-1-.83c0-.66,0-1.32-.07-2,1.35-1.24,2.72-2.48,4.05-3.75a2.48,2.48,0,0,0,.59-2.12Zm-17.75,3.67V89.65c5.18-.11,10.36-.06,15.53,0v2.54l-3.7,3.43c-.45.41-.91.73-1,1.4,0,.25,0,.52,0,.77,0,.82.06,1.63.1,2.45l-6.5,2.72c0-1.06-.07-2.12-.11-3.18,0-.91,0-1.86-.1-2.76s-.79-1.26-1.34-1.8C146.72,94.25,145.72,93.26,144.77,92.23Zm11.08,10.36c.05,1.11.09,2.21.13,3.31l-6.5,2.73-.12-3.32Zm.22,5.67c0,1,.07,2,.11,3.06l-6.5,2.73c0-1-.08-2-.11-3.07Zm.2,5.41.12,3.17-6.51,2.73-.12-3.17Zm.21,5.52.12,3.18v0l-6.52,2.73c0-.15,0-.3,0-.45l-.11-2.76ZM154.84,134c-.5,1-1,2-1.49,3-1-2.42-2-4.85-3.1-7.22,0-.3,0-.62,0-.92,0-.45,0-.9-.05-1.35l6.52-2.73c0,1,.07,1.93.11,2.9l.06,1.67c0,.14,0,.42,0,.61s-.25.52-.37.76Z"/><path class="cls-2" d="M136,84.67a1.13,1.13,0,0,0-1.11-1.11c-6.69-.08-13.4-.17-20.09,0a1.09,1.09,0,0,0-.59.19h0l0,0a1,1,0,0,0-.45.88c0,1.18,0,2.35,0,3.53,0,.35,0,.72,0,1.08a2.26,2.26,0,0,0,.82,1.37c1.3,1.39,2.67,2.73,4.05,4l.27,7.42-1,.43a1.13,1.13,0,0,0-.77,1.36,1.12,1.12,0,0,0,1.36.78l.52-.22.15,4.06-.75.32a1.13,1.13,0,0,0-.77,1.36,1.11,1.11,0,0,0,1.36.78l.25-.11c0,1,.07,2,.11,3l0,.76-1.16.49a1.15,1.15,0,0,0-.78,1.36,1.13,1.13,0,0,0,1.37.78l.65-.28c.05,1.3.1,2.6.14,3.9l-1,.42a1.15,1.15,0,0,0-.77,1.37,1.1,1.1,0,0,0,1.36.77l.5-.21c0,1.18.09,2.36.13,3.53v.42l-.73.31a1.14,1.14,0,0,0-.78,1.36,1.12,1.12,0,0,0,1.37.78l.23-.1c0,.35,0,.7,0,1a4.36,4.36,0,0,0,.29,1.75c1.51,3.56,3,7.11,4.56,10.66a1.12,1.12,0,0,0,1.92,0l4.83-9.68a4.07,4.07,0,0,0,.66-2l-.12-3.14c-.05-1.22-.09-2.44-.14-3.66l.51-.21a1.15,1.15,0,0,0,.78-1.37,1.11,1.11,0,0,0-1.37-.77h0l-.15-3.94.26-.11a1.15,1.15,0,0,0,.78-1.36,1.18,1.18,0,0,0-1.12-.83l-.15-4,.11,0a1.13,1.13,0,0,0,.77-1.36,1.22,1.22,0,0,0-1-.83c0-1.29-.09-2.59-.14-3.89l.52-.22a1.15,1.15,0,0,0,.78-1.36,1.13,1.13,0,0,0-1.37-.78h0l-.06-1.56-.09-2.5.25-.11a1.15,1.15,0,0,0,.78-1.36,1.19,1.19,0,0,0-1.12-.83l-.09-2.45,4.6-4.25c.73-.69.65-1.41.65-2.36Zm-20.09,4.21V85.76c6-.12,11.92-.07,17.87,0v3.07l-4.29,4c-.47.43-.93.74-1,1.43a6.93,6.93,0,0,0,0,.91c0,.94.07,1.88.1,2.83l-7.64,3.2-.13-3.76c0-1,0-2.13-.12-3.16-.1-.85-.82-1.33-1.4-1.89C118.14,91.24,117,90.09,115.86,88.88Zm13.08,18c0,1.22.09,2.43.13,3.65l-7.65,3.2c0-1.26-.09-2.51-.14-3.77l7.65-3.21Zm.22,6,.15,3.89L121.65,120c-.05-1.3-.09-2.6-.14-3.9Zm-1.65,23.32-1.81,3.63-3.63-8.48v0c0-.35,0-.72,0-1.08l-.06-1.61,7.67-3.22c0,1.2.09,2.4.13,3.6,0,.63,0,1.25.07,1.87,0,.15,0,.44,0,.65-.17.31-.32.63-.48.94C128.75,133.72,128.13,135,127.51,136.2Zm2.41-4.84c.07-.15.13-.24,0,0Zm-8-5.08,0-.7c0-1.08-.07-2.16-.11-3.24l7.66-3.22.15,3.95h0Zm-.68-18.68-.15-4.06,7.64-3.2.15,4.06Z"/></svg>