<svg id="Layer_1" data-name="Layer 1" xmlns="http://www.w3.org/2000/svg" viewBox="0 0 350 350"><defs><style>.cls-1{fill:#282d40;}</style></defs><path class="cls-1" d="M223,73.07c4.27,0,4.28-6.69,0-6.64l-55.94.66-89,1-20.26.24c-4.28.05-4.29,6.7,0,6.65l55.94-.67,89-1Z"/><path class="cls-1" d="M181,110.41c4.28-.07,4.29-6.72,0-6.65l-40.44.66-64.76,1.06L61,105.72c-4.27.07-4.28,6.71,0,6.64l40.45-.66,64.76-1Z"/><path class="cls-1" d="M70.82,142.81l-9.84.24c-4.26.11-4.28,6.75,0,6.65L130.55,148l9.83-.24c4.27-.11,4.29-6.75,0-6.64Z"/><path class="cls-1" d="M340.11,317.53,294.78,275.8l-6.4-5.89a3.42,3.42,0,0,0-4-.52,51.41,51.41,0,0,0-5.25,3.55,224,224,0,0,1-16.66-16.09,46.24,46.24,0,0,0,3.58-3.8c10.11-12.16,14.46-28.22,14.1-43.86a88.48,88.48,0,0,0-1.56-14.32A69.86,69.86,0,0,0,235,143.49c-21.31-8.28-46.48-6-65.37,7.11-23.84,16.59-35.25,47.51-26.32,75.45a58,58,0,0,0,29.26,34c14.77,7.57,32,10.49,48.53,10.66,12.87.13,25.83-2.48,36.2-9.7a213.57,213.57,0,0,0,16.43,16l-11.16,8.18c-1.63,1.19-2.4,3.66-.68,5.22l46.19,41.82,6.55,5.93c1,.89,2.84,1.43,4,.52l20.8-15.94C341,321.52,341.85,319.13,340.11,317.53ZM184,257.84c-13.64-4.92-25.41-13.91-31.75-27.15-11.71-24.44-3.46-54.39,16.9-71.41C185,146,207,142.19,226.74,147.73c20,5.62,36.67,20.64,43.23,40.51a69.53,69.53,0,0,1,2.18,8.4c2.82,15,1.45,31.25-6.12,44.74s-20.7,21-36,22.39A109.32,109.32,0,0,1,184,257.84Zm89.16,33.81-3.67-3.32,11.19-8.2.16-.14a4.21,4.21,0,0,0,.51-.38,31.67,31.67,0,0,1,4.34-3.19L329,316.33l3.61,3.33-15.47,11.86Z"/><path class="cls-1" d="M129.16,246.85l-28.81.73q-.87-16.35-1.73-32.72c-.05-.87-.09-1.73-.14-2.6l5.23-.21,13-.52c4.26-.17,4.28-6.82,0-6.65l-35.3,1.42-56,2.24-9.7.39V22.47c0-1.53.12-3.18.15-4.8H273.3c2.52,0,5.22.23,7.83.19v142.6c0,4.28,6.64,4.29,6.64,0V14.35A3.36,3.36,0,0,0,284.45,11H46c-11,0-22.1-.43-33.09,0H12.4a3.36,3.36,0,0,0-3.32,3.32V187.9c0,8-.37,16.13,0,24.14v.35a3.36,3.36,0,0,0,3.32,3.32l35.3-1.42,44.15-1.77,1.74,32.84.12,2.39-13.92.36c-4.27.11-4.28,6.75,0,6.64l49.37-1.25C133.43,253.39,133.44,246.74,129.16,246.85Z"/><path class="cls-1" d="M231.45,166.15c-5.77-4.36-13.36-6.42-20.46-4.58-4.14,1.07-2.38,7.48,1.76,6.41,5.39-1.4,11.21.54,15.43,4,4.76,3.89,7.92,9.22,10.54,14.68a3.36,3.36,0,0,0,4.54,1.19,3.4,3.4,0,0,0,1.2-4.55C241.32,176.76,237.3,170.57,231.45,166.15Z"/><path class="cls-1" d="M30.48,38.25c4.28,0,4.29-6.64,0-6.64S26.2,38.25,30.48,38.25Z"/><path class="cls-1" d="M45.16,32.06a3.31,3.31,0,0,0-1.68-.45h-.59a2.53,2.53,0,0,0-1.28.28,3,3,0,0,0-1.76,1.76,2.45,2.45,0,0,0-.28,1.28l.12.88a3.26,3.26,0,0,0,.85,1.47l.67.52a3.31,3.31,0,0,0,1.68.45h.59A2.56,2.56,0,0,0,44.76,38a2.6,2.6,0,0,0,1.07-.69,2.48,2.48,0,0,0,.68-1.07,2.46,2.46,0,0,0,.29-1.28l-.12-.88a3.35,3.35,0,0,0-.85-1.47Z"/><path class="cls-1" d="M56.47,31.61c-4.27,0-4.28,6.64,0,6.64S60.76,31.61,56.47,31.61Z"/></svg>