<svg id="Layer_1" data-name="Layer 1" xmlns="http://www.w3.org/2000/svg" viewBox="0 0 250 250"><defs><style>.cls-1{fill:#5cfa9d;}.cls-2{fill:#282d40;}</style></defs><circle class="cls-1" cx="125" cy="125" r="125"/><path class="cls-2" d="M62.26,182.93H64.1v7.95H62.26Z"/><path class="cls-2" d="M73.28,182.93v7.95H71.77l-4-4.82v4.82H66v-7.95h1.52l3.95,4.83v-4.83Z"/><path class="cls-2" d="M82.76,182.93l-3.44,7.95H77.5l-3.43-7.95h2l2.42,5.68,2.45-5.68Z"/><path class="cls-2" d="M89.57,189.41v1.47H83.42v-7.95h6v1.48H85.25v1.73h3.69v1.43H85.25v1.84Z"/><path class="cls-2" d="M91.83,190.76a4.36,4.36,0,0,1-1.42-.66l.63-1.39a4.43,4.43,0,0,0,1.21.61,4.61,4.61,0,0,0,1.41.22,2.3,2.3,0,0,0,1.16-.23.71.71,0,0,0,.38-.62.58.58,0,0,0-.23-.47,1.42,1.42,0,0,0-.56-.3c-.23-.08-.55-.16-.94-.25a15.44,15.44,0,0,1-1.49-.43,2.46,2.46,0,0,1-1-.7,1.84,1.84,0,0,1-.42-1.27A2.19,2.19,0,0,1,91,184a2.45,2.45,0,0,1,1.13-.89,4.59,4.59,0,0,1,1.84-.33,6.14,6.14,0,0,1,1.49.18,4.18,4.18,0,0,1,1.27.52l-.56,1.4a4.43,4.43,0,0,0-2.21-.63,2.14,2.14,0,0,0-1.14.25.79.79,0,0,0-.37.66.64.64,0,0,0,.43.61,7,7,0,0,0,1.3.39,13.65,13.65,0,0,1,1.49.43,2.59,2.59,0,0,1,1,.68,1.81,1.81,0,0,1,.41,1.26,2.14,2.14,0,0,1-.38,1.25,2.55,2.55,0,0,1-1.14.89,4.64,4.64,0,0,1-1.85.33A6.51,6.51,0,0,1,91.83,190.76Z"/><path class="cls-2" d="M99.82,184.43H97.27v-1.5h6.93v1.5h-2.54v6.45H99.82Z"/><path class="cls-2" d="M105.19,182.93H107v7.95h-1.84Z"/><path class="cls-2" d="M114.29,186.78H116V190a5.27,5.27,0,0,1-1.5.75,6,6,0,0,1-1.72.26,4.64,4.64,0,0,1-2.22-.53A3.9,3.9,0,0,1,109,189a4.23,4.23,0,0,1,0-4.24,3.88,3.88,0,0,1,1.56-1.47,4.73,4.73,0,0,1,2.25-.52,4.82,4.82,0,0,1,1.89.35,3.61,3.61,0,0,1,1.43,1l-1.18,1.09a2.72,2.72,0,0,0-2.05-.9,2.81,2.81,0,0,0-1.35.32,2.22,2.22,0,0,0-.92.9,2.62,2.62,0,0,0-.33,1.33,2.58,2.58,0,0,0,.33,1.31,2.34,2.34,0,0,0,.91.91,2.75,2.75,0,0,0,1.33.32,3,3,0,0,0,1.44-.34Z"/><path class="cls-2" d="M122.9,189.18h-3.69l-.7,1.7h-1.89l3.55-7.95H122l3.56,7.95h-1.93Zm-.57-1.4-1.27-3-1.26,3Z"/><path class="cls-2" d="M134.86,183.28a2.74,2.74,0,0,1,1.19,1,2.8,2.8,0,0,1,.43,1.54,2.74,2.74,0,0,1-.43,1.52,2.61,2.61,0,0,1-1.19,1,4.35,4.35,0,0,1-1.84.35h-1.6v2.19h-1.84v-7.95H133A4.51,4.51,0,0,1,134.86,183.28Zm-.68,3.55a1.21,1.21,0,0,0,.43-1,1.25,1.25,0,0,0-.43-1,1.93,1.93,0,0,0-1.26-.36h-1.5v2.76h1.5A1.93,1.93,0,0,0,134.18,186.83Z"/><path class="cls-2" d="M142.85,190.88l-1.54-2.21h-1.69v2.21h-1.84v-7.95h3.44a4.51,4.51,0,0,1,1.84.35,2.64,2.64,0,0,1,1.61,2.54,2.68,2.68,0,0,1-.42,1.52,2.77,2.77,0,0,1-1.21,1l1.78,2.55Zm-.47-6.09a1.93,1.93,0,0,0-1.26-.36h-1.5v2.77h1.5a1.93,1.93,0,0,0,1.26-.36,1.44,1.44,0,0,0,0-2.05Z"/><path class="cls-2" d="M146.13,182.93H148v7.95h-1.84Z"/><path class="cls-2" d="M157.09,190.88v-4.77L154.74,190h-.83l-2.33-3.83v4.67h-1.73v-7.95h1.52l3,4.94,2.93-4.94h1.51l0,7.95Z"/><path class="cls-2" d="M166.85,189.41v1.47H160.7v-7.95h6v1.48h-4.18v1.73h3.69v1.43h-3.69v1.84Z"/><path class="cls-2" d="M173.38,190.88l-1.53-2.21h-1.69v2.21h-1.84v-7.95h3.44a4.49,4.49,0,0,1,1.83.35,2.77,2.77,0,0,1,1.2,1,2.8,2.8,0,0,1,.42,1.54,2.68,2.68,0,0,1-.42,1.52,2.77,2.77,0,0,1-1.21,1l1.78,2.55Zm-.46-6.09a1.93,1.93,0,0,0-1.26-.36h-1.5v2.77h1.5a1.93,1.93,0,0,0,1.26-.36,1.44,1.44,0,0,0,0-2.05Z"/><path class="cls-2" d="M178.28,190.48a3.85,3.85,0,0,1-1.55-1.47,3.94,3.94,0,0,1-.57-2.1,4,4,0,0,1,2.12-3.58,4.62,4.62,0,0,1,2.23-.53,4.57,4.57,0,0,1,2.23.53,3.94,3.94,0,0,1,2.12,3.58,4,4,0,0,1-.56,2.1,3.94,3.94,0,0,1-1.56,1.47,4.57,4.57,0,0,1-2.23.54A4.63,4.63,0,0,1,178.28,190.48Zm3.51-1.35a2.43,2.43,0,0,0,.89-.91,2.67,2.67,0,0,0,.32-1.31,2.74,2.74,0,0,0-.32-1.32,2.33,2.33,0,0,0-.89-.9,2.52,2.52,0,0,0-1.28-.33,2.48,2.48,0,0,0-1.27.33,2.27,2.27,0,0,0-.89.9,2.74,2.74,0,0,0-.32,1.32,2.67,2.67,0,0,0,.32,1.31,2.36,2.36,0,0,0,.89.91,2.58,2.58,0,0,0,1.27.32A2.61,2.61,0,0,0,181.79,189.13Z"/><path class="cls-2" d="M187.36,189.07a1,1,0,0,1,.31.79,1.74,1.74,0,0,1-.06.45,5.2,5.2,0,0,1-.25.69l-.64,1.63h-1.13l.5-1.8a1,1,0,0,1-.45-.37,1.08,1.08,0,0,1-.16-.6,1,1,0,0,1,.31-.79,1.09,1.09,0,0,1,.79-.3A1.06,1.06,0,0,1,187.36,189.07Z"/><path class="cls-2" d="M55.06,196.56h3.61a5.1,5.1,0,0,1,2.29.49,3.73,3.73,0,0,1,1.54,1.4,4.23,4.23,0,0,1,0,4.17A3.73,3.73,0,0,1,61,204a5.24,5.24,0,0,1-2.29.49H55.06ZM58.58,203a2.64,2.64,0,0,0,1.9-.67,2.62,2.62,0,0,0,0-3.59,2.64,2.64,0,0,0-1.9-.67H56.9V203Z"/><path class="cls-2" d="M70.59,203v1.48H64.44v-7.95h6V198H66.27v1.72H70v1.43H66.27V203Z"/><path class="cls-2" d="M72.85,204.39a4.36,4.36,0,0,1-1.42-.66l.63-1.39a4.15,4.15,0,0,0,1.21.6,4.62,4.62,0,0,0,1.41.23,2.32,2.32,0,0,0,1.16-.23.7.7,0,0,0,.37-.62.57.57,0,0,0-.22-.47,1.47,1.47,0,0,0-.57-.3,9.56,9.56,0,0,0-.93-.25,12.79,12.79,0,0,1-1.49-.44,2.28,2.28,0,0,1-1-.69,1.85,1.85,0,0,1-.42-1.27,2.25,2.25,0,0,1,.38-1.26,2.52,2.52,0,0,1,1.13-.89,4.59,4.59,0,0,1,1.84-.33,5.74,5.74,0,0,1,1.49.19,4.28,4.28,0,0,1,1.27.52l-.57,1.39a4.48,4.48,0,0,0-2.2-.62,2.05,2.05,0,0,0-1.14.25.76.76,0,0,0-.37.66.65.65,0,0,0,.43.61,6.73,6.73,0,0,0,1.3.39,12.77,12.77,0,0,1,1.48.43,2.45,2.45,0,0,1,1,.68,1.85,1.85,0,0,1,.41,1.26,2.14,2.14,0,0,1-.38,1.25,2.55,2.55,0,0,1-1.14.89,4.64,4.64,0,0,1-1.85.33A6.46,6.46,0,0,1,72.85,204.39Z"/><path class="cls-2" d="M84.54,202.81H80.85l-.71,1.7H78.26l3.54-7.95h1.82l3.55,7.95H85.24Zm-.58-1.4-1.26-3-1.26,3Z"/><path class="cls-2" d="M93.07,204.51l-1.54-2.21H89.84v2.21H88v-7.95h3.44a4.51,4.51,0,0,1,1.84.35,2.8,2.8,0,0,1,1.19,1,3,3,0,0,1,0,3.06,2.63,2.63,0,0,1-1.21,1L95,204.51Zm-.47-6.09a1.93,1.93,0,0,0-1.26-.36h-1.5v2.77h1.5a1.93,1.93,0,0,0,1.26-.36,1.28,1.28,0,0,0,.43-1A1.25,1.25,0,0,0,92.6,198.42Z"/><path class="cls-2" d="M101.41,204.51l-1.53-2.21H98.19v2.21H96.35v-7.95h3.44a4.49,4.49,0,0,1,1.83.35,2.63,2.63,0,0,1,1.62,2.53,2.72,2.72,0,0,1-.42,1.53,2.68,2.68,0,0,1-1.21,1l1.78,2.56Zm-.46-6.09a1.93,1.93,0,0,0-1.26-.36h-1.5v2.77h1.5a1.93,1.93,0,0,0,1.26-.36,1.28,1.28,0,0,0,.43-1A1.25,1.25,0,0,0,101,198.42Z"/><path class="cls-2" d="M106.31,204.11a3.85,3.85,0,0,1-1.55-1.47,4.24,4.24,0,0,1,0-4.21,3.85,3.85,0,0,1,1.55-1.47,4.63,4.63,0,0,1,2.23-.54,4.57,4.57,0,0,1,2.23.54,3.94,3.94,0,0,1,1.56,1.47,4.24,4.24,0,0,1,0,4.21,3.94,3.94,0,0,1-1.56,1.47,4.57,4.57,0,0,1-2.23.54A4.63,4.63,0,0,1,106.31,204.11Zm3.51-1.35a2.43,2.43,0,0,0,.89-.91,2.86,2.86,0,0,0,0-2.63,2.43,2.43,0,0,0-.89-.91,2.7,2.7,0,0,0-2.55,0,2.36,2.36,0,0,0-.89.91,2.86,2.86,0,0,0,0,2.63,2.36,2.36,0,0,0,.89.91,2.7,2.7,0,0,0,2.55,0Z"/><path class="cls-2" d="M114.28,196.56h1.84V203h4v1.5h-5.83Z"/><path class="cls-2" d="M121.14,196.56H123V203h4v1.5h-5.82Z"/><path class="cls-2" d="M133.3,202.81h-3.69l-.7,1.7H127l3.54-7.95h1.82l3.56,7.95H134Zm-.58-1.4-1.26-3-1.26,3Z"/><path class="cls-2" d="M140,196.56h3.61a5.08,5.08,0,0,1,2.29.49,3.67,3.67,0,0,1,1.54,1.4,4.23,4.23,0,0,1,0,4.17,3.67,3.67,0,0,1-1.54,1.4,5.21,5.21,0,0,1-2.29.49H140ZM143.5,203a2.64,2.64,0,0,0,1.9-.67,2.62,2.62,0,0,0,0-3.59,2.64,2.64,0,0,0-1.9-.67h-1.68V203Z"/><path class="cls-2" d="M155.51,203v1.48h-6.15v-7.95h6V198h-4.18v1.72h3.69v1.43h-3.69V203Z"/><path class="cls-2" d="M157.77,204.39a4.36,4.36,0,0,1-1.42-.66l.63-1.39a4.15,4.15,0,0,0,1.21.6,4.62,4.62,0,0,0,1.41.23,2.32,2.32,0,0,0,1.16-.23.71.71,0,0,0,.38-.62.58.58,0,0,0-.23-.47,1.42,1.42,0,0,0-.56-.3c-.24-.08-.55-.16-.94-.25a12.79,12.79,0,0,1-1.49-.44,2.28,2.28,0,0,1-1-.69,1.85,1.85,0,0,1-.42-1.27,2.25,2.25,0,0,1,.38-1.26,2.52,2.52,0,0,1,1.13-.89,4.59,4.59,0,0,1,1.84-.33,5.69,5.69,0,0,1,1.49.19,4.18,4.18,0,0,1,1.27.52l-.57,1.39a4.45,4.45,0,0,0-2.2-.62,2.05,2.05,0,0,0-1.14.25.76.76,0,0,0-.37.66.65.65,0,0,0,.43.61,6.73,6.73,0,0,0,1.3.39,13.65,13.65,0,0,1,1.49.43,2.48,2.48,0,0,1,1,.68,1.81,1.81,0,0,1,.41,1.26,2.14,2.14,0,0,1-.38,1.25,2.55,2.55,0,0,1-1.14.89,4.64,4.64,0,0,1-1.85.33A6.46,6.46,0,0,1,157.77,204.39Z"/><path class="cls-2" d="M169.5,196.91a2.85,2.85,0,0,1,1.2,4.06,2.64,2.64,0,0,1-1.2,1,4.51,4.51,0,0,1-1.84.35h-1.6v2.19h-1.84v-7.95h3.44A4.51,4.51,0,0,1,169.5,196.91Zm-.68,3.55a1.42,1.42,0,0,0,0-2,1.89,1.89,0,0,0-1.26-.36h-1.5v2.76h1.5A1.89,1.89,0,0,0,168.82,200.46Z"/><path class="cls-2" d="M173.27,203.7a3.63,3.63,0,0,1-1-2.69v-4.45h1.84v4.38c0,1.43.59,2.14,1.77,2.14a1.64,1.64,0,0,0,1.32-.52,2.41,2.41,0,0,0,.45-1.62v-4.38h1.82V201a3.63,3.63,0,0,1-1,2.69,4.17,4.17,0,0,1-5.3,0Z"/><path class="cls-2" d="M187.49,203v1.48h-6.15v-7.95h6V198h-4.18v1.72h3.69v1.43h-3.69V203Zm-2.64-8.75h1.9l-2.05,1.63h-1.39Z"/><path class="cls-2" d="M189.75,204.39a4.36,4.36,0,0,1-1.42-.66l.63-1.39a4.15,4.15,0,0,0,1.21.6,4.62,4.62,0,0,0,1.41.23,2.32,2.32,0,0,0,1.16-.23.7.7,0,0,0,.37-.62.57.57,0,0,0-.22-.47,1.42,1.42,0,0,0-.56-.3c-.24-.08-.55-.16-.94-.25a12.79,12.79,0,0,1-1.49-.44,2.28,2.28,0,0,1-1-.69,1.85,1.85,0,0,1-.42-1.27,2.25,2.25,0,0,1,.38-1.26,2.52,2.52,0,0,1,1.13-.89,4.59,4.59,0,0,1,1.84-.33,5.69,5.69,0,0,1,1.49.19,4.28,4.28,0,0,1,1.27.52l-.57,1.39a4.45,4.45,0,0,0-2.2-.62,2.05,2.05,0,0,0-1.14.25.76.76,0,0,0-.37.66.65.65,0,0,0,.43.61,6.73,6.73,0,0,0,1.3.39,12.77,12.77,0,0,1,1.48.43,2.45,2.45,0,0,1,1,.68,1.85,1.85,0,0,1,.41,1.26,2.14,2.14,0,0,1-.38,1.25,2.55,2.55,0,0,1-1.14.89,4.64,4.64,0,0,1-1.85.33A6.46,6.46,0,0,1,189.75,204.39Z"/><path class="cls-2" d="M141,78.81a1.11,1.11,0,0,0,0-2.22l-18.69.22-29.75.35-6.77.08a1.11,1.11,0,0,0,0,2.22l18.69-.22,29.75-.35Z"/><path class="cls-2" d="M127,91.28a1.11,1.11,0,0,0,0-2.22l-13.52.22-21.63.35-4.94.08a1.11,1.11,0,0,0,0,2.22l13.51-.22,21.64-.35Z"/><path class="cls-2" d="M90.19,102.1l-3.28.08a1.11,1.11,0,0,0,0,2.22l23.24-.57,3.28-.08a1.11,1.11,0,0,0,0-2.22Z"/><path class="cls-2" d="M180.16,160.48,165,146.54l-2.14-2a1.15,1.15,0,0,0-1.35-.18,17.37,17.37,0,0,0-1.75,1.19,74.46,74.46,0,0,1-5.57-5.38,13.2,13.2,0,0,0,1.2-1.27,22.08,22.08,0,0,0,4.71-14.65,30.79,30.79,0,0,0-.52-4.78A23.35,23.35,0,0,0,145,102.33a23.68,23.68,0,0,0-21.84,2.38,22.68,22.68,0,0,0-8.8,25.2,19.39,19.39,0,0,0,9.78,11.38,36.83,36.83,0,0,0,16.21,3.56,20.72,20.72,0,0,0,12.1-3.24,70.86,70.86,0,0,0,5.49,5.33l-3.73,2.74a1.13,1.13,0,0,0-.23,1.74l15.43,14,2.19,2a1.14,1.14,0,0,0,1.35.18l6.95-5.33A1.13,1.13,0,0,0,180.16,160.48ZM128,140.54a18.28,18.28,0,0,1-10.6-9.08c-3.92-8.16-1.16-18.17,5.64-23.85a21.54,21.54,0,0,1,33.7,9.67,24.67,24.67,0,0,1,.73,2.81A22.3,22.3,0,0,1,155.41,135a14.78,14.78,0,0,1-12,7.47A36.55,36.55,0,0,1,128,140.54Zm29.79,11.29-1.22-1.11,3.73-2.74.05,0,.18-.13a10.24,10.24,0,0,1,1.45-1.07l14.48,13.34,1.21,1.11-5.17,4Z"/><path class="cls-2" d="M109.69,136.86l-9.63.25c-.19-3.65-.39-7.29-.58-10.94,0-.28,0-.57,0-.86l1.74-.07,4.35-.18c1.43,0,1.43-2.27,0-2.22l-11.79.47L75,124.06l-3.24.13V61.9c0-.51,0-1.06,0-1.6h86c.84,0,1.74.07,2.62.06V108a1.11,1.11,0,0,0,2.22,0V59.19a1.13,1.13,0,0,0-1.11-1.11H81.89c-3.67,0-7.38-.14-11,0h-.16a1.13,1.13,0,0,0-1.11,1.11v58c0,2.68-.12,5.39,0,8.06v.12a1.13,1.13,0,0,0,1.11,1.11L82.47,126l14.75-.6c.19,3.66.39,7.32.58,11,0,.27,0,.54,0,.8l-4.65.12c-1.42,0-1.43,2.26,0,2.22l16.5-.42A1.11,1.11,0,0,0,109.69,136.86Z"/><path class="cls-2" d="M143.86,109.9a8.16,8.16,0,0,0-6.84-1.53,1.11,1.11,0,0,0,.59,2.14,6,6,0,0,1,5.16,1.34,13.77,13.77,0,0,1,3.52,4.9,1.11,1.11,0,1,0,1.91-1.12A15.22,15.22,0,0,0,143.86,109.9Z"/><path class="cls-2" d="M76.72,67.17a1.11,1.11,0,0,0,0-2.22A1.11,1.11,0,0,0,76.72,67.17Z"/><path class="cls-2" d="M81.62,65.1a1.09,1.09,0,0,0-.56-.15h-.2a.87.87,0,0,0-.42.1,1,1,0,0,0-.59.59.87.87,0,0,0-.1.42l0,.3a1.16,1.16,0,0,0,.29.49l.22.17a1.12,1.12,0,0,0,.56.15h.2a.8.8,0,0,0,.43-.09.92.92,0,0,0,.36-.23.84.84,0,0,0,.22-.36.78.78,0,0,0,.1-.43c0-.1,0-.19,0-.29a1.14,1.14,0,0,0-.28-.49Z"/><path class="cls-2" d="M85.4,65a1.11,1.11,0,0,0,0,2.22A1.11,1.11,0,0,0,85.4,65Z"/></svg>