<svg id="Layer_1" data-name="Layer 1" xmlns="http://www.w3.org/2000/svg" viewBox="0 0 250 250"><defs><style>.cls-1{fill:#5cfa9d;}.cls-2{fill:#282d40;}</style></defs><circle class="cls-1" cx="125" cy="125" r="125"/><path class="cls-2" d="M154.58,82.28a34.82,34.82,0,0,0-4-2,1.15,1.15,0,0,0-1.53.4,1.07,1.07,0,0,0-.12.37,39.48,39.48,0,0,0-17.24,2.79A25,25,0,0,0,125,88.09,28.19,28.19,0,0,0,122.27,86c-5.57-3.71-12.77-5-19.36-4.94-.62,0-1.24,0-1.86.07a1.08,1.08,0,0,0-1.65-.77C88.52,84.91,79.74,94.91,78.81,107a30.3,30.3,0,0,0,3.67,17A22.61,22.61,0,0,0,93.8,133.8,31.37,31.37,0,0,0,109.88,136a25.81,25.81,0,0,0,14-6.56q.6-.54,1.17-1.11a26.8,26.8,0,0,0,10.92,6.77,30.15,30.15,0,0,0,16.61,0,24.33,24.33,0,0,0,12.72-7.79,28.92,28.92,0,0,0,6-16.07C172,99.08,164.91,88.19,154.58,82.28ZM125,125.06c-.19-.21-.37-.43-.55-.64l5.59-7A30.08,30.08,0,0,1,125,125.06Zm0-33.9c.31.32.61.65.9,1l-2.27.56C124,92.17,124.5,91.66,125,91.16Zm-3.3,4.19a1.19,1.19,0,0,0,.53,0l.78-.19c-.94,1-1.86,1.94-2.81,2.88A27.24,27.24,0,0,1,121.67,95.35Zm-3,6.59.1,0a4.47,4.47,0,0,0,2-.47c.88-.33,1.75-.72,2.61-1.11a54.2,54.2,0,0,0-5.39,5.11A21.22,21.22,0,0,1,118.64,101.94Zm13.27,9.39-5.93,3,5.33-5.76.85-.93A22.15,22.15,0,0,1,131.91,111.33Zm.08-6.17a1.18,1.18,0,0,0-.65.12l-6.24,3.15,5.76-5.23.64-.59A22.06,22.06,0,0,1,132,105.16Zm-12.81,5.63-1,.9a21.76,21.76,0,0,1-.36-3.31,1.19,1.19,0,0,0,.58-.15c2.49-1.33,5-2.53,7.63-3.68Zm-.33,3.29,8-4.06-5.3,5.73-1.38,1.5a1.7,1.7,0,0,0-.17.23,25.81,25.81,0,0,1-1.26-3.37Zm2.71,4.93,7.32-3.67-5.83,7.28a31.1,31.1,0,0,1-2.2-3.5A1.13,1.13,0,0,0,121.56,119Zm1.73-15.65c2.09-1.86,4.31-3.59,6.55-5.28.33.67.62,1.34.88,2C128.24,101.16,125.75,102.23,123.29,103.36Zm.13-5.45a53.74,53.74,0,0,1,4-3.86c.41.57.8,1.15,1.17,1.75A40,40,0,0,0,123.42,97.91Zm-10,35.05A28,28,0,0,1,98,132.88a22.09,22.09,0,0,1-11.61-7.18A27.3,27.3,0,0,1,84.9,95.32,32.68,32.68,0,0,1,96.8,84.07c.31-.18.63-.33.94-.5A39.9,39.9,0,0,1,117,85.73a22.67,22.67,0,0,1,6.42,3.93,29.4,29.4,0,0,0-4.78,6.58,24.51,24.51,0,0,0-2.28,17.57,30.29,30.29,0,0,0,7.14,12.87A24.4,24.4,0,0,1,113.37,133Zm52.36-10.39a20.46,20.46,0,0,1-10.33,9.17,29.44,29.44,0,0,1-14.87,2,23.41,23.41,0,0,1-12.84-6q-.59-.53-1.14-1.08c6.39-7.14,9.91-17,6.63-26.41a29.45,29.45,0,0,0-6.57-10.66,22.47,22.47,0,0,1,2.49-1.87c5.32-3.45,12.08-4.57,18.33-4.48,1.62,0,3.24.14,4.85.32,8.79,4.65,15.84,13.07,16.68,23.25A28.22,28.22,0,0,1,165.73,122.57Z"/><path class="cls-2" d="M100.9,75.31a2.9,2.9,0,0,0,2.7.44,4.5,4.5,0,0,0,2.58-2.57c.15.69.3,1.38.48,2.06a1.12,1.12,0,0,0,2.15-.59,66.81,66.81,0,0,1-1.76-10,1.14,1.14,0,0,0-1.12-1.12,1.07,1.07,0,0,0-.52.14.92.92,0,0,0-.79.13,12,12,0,0,0-3.51,4,10.2,10.2,0,0,0-1.31,5A3.21,3.21,0,0,0,100.9,75.31ZM103,69.08a10,10,0,0,1,2-2.66,20.27,20.27,0,0,1,0,2.81,7.23,7.23,0,0,1-1.24,3.83,1.26,1.26,0,0,1-1.19.59c-.41-.1-.44-.59-.44-1A8,8,0,0,1,103,69.08Z"/><path class="cls-2" d="M139.1,77.67a1.05,1.05,0,0,0,.9-.11,13,13,0,0,0,5.56-6.48,5.5,5.5,0,0,0,0-4.34,3.11,3.11,0,0,0-3.62-1.38,3.94,3.94,0,0,0-1.21.61q.1-3.3.23-6.59c.05-1.44-2.18-1.44-2.23,0-.22,5.74-.39,11.48-.61,17.21A1,1,0,0,0,139.1,77.67Zm1.59-7.93a6.46,6.46,0,0,1,.92-1.59,1.91,1.91,0,0,1,1.14-.68c.45,0,.73,0,.91.46a2.9,2.9,0,0,1,0,1.52,9.08,9.08,0,0,1-3.28,5.07c.05-1.53.11-3.07.16-4.6A1.08,1.08,0,0,0,140.69,69.74Z"/><path class="cls-2" d="M128.23,139.43a1.14,1.14,0,0,0-1.38.78,4.23,4.23,0,0,1-.57,1.63c-.15.19-.43.4-.59.37a2,2,0,0,1-1-.84A4,4,0,0,1,124,140a4.94,4.94,0,0,1,.3-3.12,4.63,4.63,0,0,1,.82-1.33.9.9,0,0,1,.94-.32c1.37.44,2-1.71.59-2.15a3.31,3.31,0,0,0-3.64,1.55,7.75,7.75,0,0,0-1.37,3.94,6.35,6.35,0,0,0,1,3.86c.81,1.19,2.1,2.26,3.63,1.92s2.35-2.07,2.7-3.55A1.15,1.15,0,0,0,128.23,139.43Z"/><path class="cls-2" d="M69.58,179.47h1.84v6.45h4v1.5H69.58Z"/><path class="cls-2" d="M77.92,187a3.85,3.85,0,0,1-1.55-1.47,4.24,4.24,0,0,1,0-4.21,3.85,3.85,0,0,1,1.55-1.47,4.63,4.63,0,0,1,2.23-.54,4.57,4.57,0,0,1,2.23.54,4,4,0,0,1,0,7.15,4.57,4.57,0,0,1-2.23.54A4.63,4.63,0,0,1,77.92,187Zm3.51-1.35a2.36,2.36,0,0,0,.89-.91,2.86,2.86,0,0,0,0-2.63,2.27,2.27,0,0,0-.89-.9,2.63,2.63,0,0,0-2.55,0,2.27,2.27,0,0,0-.89.9,2.86,2.86,0,0,0,0,2.63,2.36,2.36,0,0,0,.89.91,2.7,2.7,0,0,0,2.55,0Z"/><path class="cls-2" d="M96.34,187.42v-4.77L94,186.58h-.83l-2.33-3.83v4.67H89.1v-7.95h1.53l3,4.94,2.93-4.94H98l0,7.95Z"/><path class="cls-2" d="M105.18,185.72h-3.69l-.7,1.7H98.9l3.55-7.95h1.81l3.56,7.95h-1.93Zm-.58-1.4-1.26-3-1.26,3Zm-.75-7.13h1.91l-2.05,1.63h-1.39Z"/><path class="cls-2" d="M109.44,187.3a4.36,4.36,0,0,1-1.42-.66l.63-1.39a4.15,4.15,0,0,0,1.21.6,4.62,4.62,0,0,0,1.41.23,2.32,2.32,0,0,0,1.16-.23.7.7,0,0,0,.37-.62.57.57,0,0,0-.22-.47,1.47,1.47,0,0,0-.57-.3,9.56,9.56,0,0,0-.93-.25,12.79,12.79,0,0,1-1.49-.44,2.28,2.28,0,0,1-1-.69,1.85,1.85,0,0,1-.42-1.27,2.19,2.19,0,0,1,.38-1.25,2.47,2.47,0,0,1,1.13-.9,4.59,4.59,0,0,1,1.84-.33,5.74,5.74,0,0,1,1.49.19,4.28,4.28,0,0,1,1.27.52l-.57,1.4a4.39,4.39,0,0,0-2.2-.63,2.05,2.05,0,0,0-1.14.25.76.76,0,0,0-.37.66.65.65,0,0,0,.43.61,6.73,6.73,0,0,0,1.3.39,12.77,12.77,0,0,1,1.48.43,2.45,2.45,0,0,1,1,.68,1.85,1.85,0,0,1,.41,1.26,2.14,2.14,0,0,1-.38,1.25,2.55,2.55,0,0,1-1.14.89,4.64,4.64,0,0,1-1.85.33A6.46,6.46,0,0,1,109.44,187.3Z"/><path class="cls-2" d="M119.9,187.3a4.36,4.36,0,0,1-1.42-.66l.63-1.39a4.15,4.15,0,0,0,1.21.6,4.62,4.62,0,0,0,1.41.23,2.32,2.32,0,0,0,1.16-.23.7.7,0,0,0,.37-.62.57.57,0,0,0-.22-.47,1.54,1.54,0,0,0-.57-.3,9.56,9.56,0,0,0-.93-.25,12.22,12.22,0,0,1-1.49-.44,2.28,2.28,0,0,1-1-.69,1.85,1.85,0,0,1-.42-1.27,2.19,2.19,0,0,1,.38-1.25,2.47,2.47,0,0,1,1.13-.9,4.55,4.55,0,0,1,1.84-.33,5.74,5.74,0,0,1,1.49.19,4.28,4.28,0,0,1,1.27.52l-.57,1.4a4.39,4.39,0,0,0-2.2-.63,2,2,0,0,0-1.14.25.76.76,0,0,0-.37.66.66.66,0,0,0,.42.61,7.11,7.11,0,0,0,1.31.39,12.77,12.77,0,0,1,1.48.43,2.45,2.45,0,0,1,1,.68,1.85,1.85,0,0,1,.41,1.26,2.22,2.22,0,0,1-.38,1.25,2.55,2.55,0,0,1-1.14.89,4.67,4.67,0,0,1-1.85.33A6.46,6.46,0,0,1,119.9,187.3Z"/><path class="cls-2" d="M126.35,179.47h1.84v7.95h-1.84Z"/><path class="cls-2" d="M137.31,187.42v-4.77L135,186.58h-.83l-2.33-3.83v4.67h-1.72v-7.95h1.52l3,4.94,2.93-4.94H139l0,7.95Z"/><path class="cls-2" d="M146.2,179.82a2.8,2.8,0,0,1,1.19,1,3,3,0,0,1,0,3.06,2.67,2.67,0,0,1-1.19,1,4.51,4.51,0,0,1-1.84.35h-1.6v2.19h-1.84v-7.95h3.44A4.51,4.51,0,0,1,146.2,179.82Zm-.68,3.55a1.24,1.24,0,0,0,.43-1,1.25,1.25,0,0,0-.43-1,1.93,1.93,0,0,0-1.26-.36h-1.5v2.76h1.5A1.93,1.93,0,0,0,145.52,183.37Z"/><path class="cls-2" d="M149.12,179.47H151v6.45h4v1.5h-5.83Z"/><path class="cls-2" d="M162.13,185.94v1.48H156v-7.95h6V181h-4.18v1.72h3.69v1.43h-3.69v1.84Z"/><path class="cls-2" d="M173,185.94v1.48h-6.16v-7.95h6V181h-4.18v1.72h3.69v1.43h-3.69v1.84Z"/><path class="cls-2" d="M175.22,187.3a4.3,4.3,0,0,1-1.41-.66l.62-1.39a4.21,4.21,0,0,0,1.22.6,4.62,4.62,0,0,0,1.41.23,2.25,2.25,0,0,0,1.15-.23.71.71,0,0,0,.38-.62.57.57,0,0,0-.22-.47,1.54,1.54,0,0,0-.57-.3,9.12,9.12,0,0,0-.94-.25,12.55,12.55,0,0,1-1.48-.44,2.38,2.38,0,0,1-1-.69,1.9,1.9,0,0,1-.41-1.27,2.19,2.19,0,0,1,.37-1.25,2.52,2.52,0,0,1,1.13-.9,4.64,4.64,0,0,1,1.85-.33,5.8,5.8,0,0,1,1.49.19,4.4,4.4,0,0,1,1.27.52l-.57,1.4a4.39,4.39,0,0,0-2.2-.63,2.07,2.07,0,0,0-1.15.25.78.78,0,0,0-.36.66.66.66,0,0,0,.42.61,7.21,7.21,0,0,0,1.3.39,13,13,0,0,1,1.49.43,2.35,2.35,0,0,1,1,.68,1.81,1.81,0,0,1,.42,1.26,2.22,2.22,0,0,1-.38,1.25,2.67,2.67,0,0,1-1.14.89,4.69,4.69,0,0,1-1.86.33A6.56,6.56,0,0,1,175.22,187.3Z"/><path class="cls-2" d="M79.37,193.1h1.84v6.45h4v1.5H79.37Z"/><path class="cls-2" d="M87.71,200.65a4,4,0,0,1-2.12-3.58,3.94,3.94,0,0,1,.57-2.1,3.85,3.85,0,0,1,1.55-1.47,4.87,4.87,0,0,1,4.46,0A3.94,3.94,0,0,1,93.73,195a4,4,0,0,1,.56,2.1,3.94,3.94,0,0,1-2.12,3.58,5,5,0,0,1-4.46,0Zm3.51-1.36a2.33,2.33,0,0,0,.89-.9,2.74,2.74,0,0,0,.32-1.32,2.67,2.67,0,0,0-.32-1.31,2.43,2.43,0,0,0-.89-.91,2.61,2.61,0,0,0-1.28-.32,2.58,2.58,0,0,0-1.27.32,2.36,2.36,0,0,0-.89.91,2.57,2.57,0,0,0-.32,1.31,2.63,2.63,0,0,0,.32,1.32,2.27,2.27,0,0,0,.89.9,2.48,2.48,0,0,0,1.27.33A2.52,2.52,0,0,0,91.22,199.29Z"/><path class="cls-2" d="M106.13,201.05l0-4.77-2.33,3.93H103l-2.33-3.83v4.67H98.89v-8h1.52l3,4.94,2.93-4.94h1.51l0,8Z"/><path class="cls-2" d="M115,199.34h-3.69l-.7,1.71h-1.89l3.55-8h1.81l3.56,8h-1.93Zm-.58-1.39-1.26-3-1.26,3Zm-.75-7.14h1.91l-2,1.64h-1.39Z"/><path class="cls-2" d="M119.23,200.93a4.17,4.17,0,0,1-1.42-.67l.63-1.38a4.15,4.15,0,0,0,1.21.6,4.62,4.62,0,0,0,1.41.23,2.21,2.21,0,0,0,1.16-.24.69.69,0,0,0,.37-.61.61.61,0,0,0-.22-.48,1.91,1.91,0,0,0-.57-.3c-.23-.07-.54-.16-.93-.25a11.25,11.25,0,0,1-1.49-.43,2.28,2.28,0,0,1-1-.69,1.85,1.85,0,0,1-.42-1.27,2.25,2.25,0,0,1,.38-1.26,2.52,2.52,0,0,1,1.13-.89,4.55,4.55,0,0,1,1.84-.33,6.2,6.2,0,0,1,1.49.18,4.29,4.29,0,0,1,1.27.53l-.57,1.39a4.48,4.48,0,0,0-2.2-.62,2,2,0,0,0-1.14.25.75.75,0,0,0-.37.66.63.63,0,0,0,.42.6,6.3,6.3,0,0,0,1.31.4,11.05,11.05,0,0,1,1.48.43,2.45,2.45,0,0,1,1,.68,1.85,1.85,0,0,1,.41,1.26A2.19,2.19,0,0,1,124,200a2.42,2.42,0,0,1-1.14.89,4.64,4.64,0,0,1-1.85.33A6.45,6.45,0,0,1,119.23,200.93Z"/><path class="cls-2" d="M128.9,193.1h3.61a5,5,0,0,1,2.28.49,3.74,3.74,0,0,1,1.55,1.39,4.25,4.25,0,0,1,0,4.18,3.67,3.67,0,0,1-1.55,1.39,5,5,0,0,1-2.28.5H128.9Zm3.52,6.44a2.66,2.66,0,0,0,1.9-.67,2.35,2.35,0,0,0,.71-1.8,2.38,2.38,0,0,0-.71-1.8,2.7,2.7,0,0,0-1.9-.66h-1.69v4.93Z"/><path class="cls-2" d="M138.28,193.1h1.84v8h-1.84Z"/><path class="cls-2" d="M143.84,194.57v2.11h3.68v1.47h-3.68v2.9H142v-8h6v1.47Z"/><path class="cls-2" d="M149.26,193.1h1.84v8h-1.84Z"/><path class="cls-2" d="M154.59,200.66a4,4,0,0,1-1.55-1.47,4.07,4.07,0,0,1-.56-2.12A4.12,4.12,0,0,1,153,195a4,4,0,0,1,1.55-1.46,4.6,4.6,0,0,1,2.21-.53,4.69,4.69,0,0,1,1.87.36,4,4,0,0,1,1.4,1.05l-1.18,1.09a2.55,2.55,0,0,0-2-.93,2.74,2.74,0,0,0-1.32.32,2.25,2.25,0,0,0-.9.91,2.58,2.58,0,0,0-.33,1.31,2.64,2.64,0,0,0,.33,1.32,2.17,2.17,0,0,0,.9.9,2.64,2.64,0,0,0,1.32.33,2.54,2.54,0,0,0,2-1l1.18,1.09a3.61,3.61,0,0,1-1.41,1.06,4.72,4.72,0,0,1-1.87.36A4.58,4.58,0,0,1,154.59,200.66Z"/><path class="cls-2" d="M161.31,193.1h1.84v8h-1.84Z"/><path class="cls-2" d="M165,193.1h1.84v6.45h4v1.5H165Z"/></svg>