<svg id="Layer_1" data-name="Layer 1" xmlns="http://www.w3.org/2000/svg" viewBox="0 0 350 350"><defs><style>.cls-1{fill:#282d40;}</style></defs><path class="cls-1" d="M206.92,215.11q34-31,68-62,30.27-27.65,60.47-55.37l6.33-5.83a3.23,3.23,0,0,0,0-4.5Q312,54.15,280.07,23c-2.18-2.12-4.52-5.15-7.47-6.24s-5.46.05-7.67,2c-5.76,5-11.12,10.48-16.66,15.68q-16.49,15.49-33,30.93-66.6,62.21-133.67,123.91-37.85,35-75.62,70a2.82,2.82,0,0,0-1,2.14,2.78,2.78,0,0,0,1,2.37c21.49,19.72,41.29,41.43,61.16,62.76q2.93,3.15,5.86,6.31a3.23,3.23,0,0,0,4.5,0L96,316q23.65-21.5,47.3-43Q175.11,244.08,206.92,215.11ZM80.43,321.52c-1.61,1.45-3.46,2.87-5.12,4.41-15.8-17.09-31.79-34-48.18-50.54-4.68-4.71-9.41-9.37-14.25-13.91q9.39-8.72,18.8-17.41a3.13,3.13,0,0,0,.91,2.33q9.54,9.73,19.58,19a3.19,3.19,0,0,0,4.51-4.5q-10-9.24-19.59-19A3.19,3.19,0,0,0,35,241q8.18-7.59,16.37-15.16a3.34,3.34,0,0,0,.86,2Q58.16,234.43,64.1,241a3.19,3.19,0,0,0,4.5,0,3.24,3.24,0,0,0,0-4.5L56.75,223.35a3,3,0,0,0-1.79-.84l11.3-10.46a3.07,3.07,0,0,0,.87,1.76q9.56,9.74,19.59,19a3.19,3.19,0,1,0,4.5-4.51q-10-9.22-19.58-19a3.07,3.07,0,0,0-1.53-.83L86,193.77a3.45,3.45,0,0,0,.76,1.5l11.86,13.16a3.22,3.22,0,0,0,4.51,0,3.27,3.27,0,0,0,0-4.51L91.29,190.77a2.68,2.68,0,0,0-1.23-.74q5.44-5,10.87-10a3.18,3.18,0,0,0,.74,1.24q9.56,9.74,19.59,19a3.19,3.19,0,0,0,4.51-4.5q-10-9.24-19.59-19a2.91,2.91,0,0,0-1-.66l15.53-14.35a3.44,3.44,0,0,0,.62,1l11.86,13.16a3.21,3.21,0,0,0,4.5,0,3.26,3.26,0,0,0,0-4.51l-11.86-13.16a2.43,2.43,0,0,0-.75-.51l10.6-9.8a2.9,2.9,0,0,0,.54.77q9.54,9.74,19.58,19a3.19,3.19,0,1,0,4.51-4.51q-10-9.22-19.58-19a2.82,2.82,0,0,0-.55-.43l.9-.83q7.21-6.67,14.41-13.38a3.26,3.26,0,0,0,.38.61l11.86,13.15a3.22,3.22,0,0,0,4.51,0,3.28,3.28,0,0,0,0-4.51q-5.94-6.57-11.86-13.15a3.39,3.39,0,0,0-.39-.27l10.44-9.69a2.65,2.65,0,0,0,.33.42q9.56,9.73,19.59,19a3.19,3.19,0,1,0,4.51-4.51q-10-9.24-19.59-19c-.07-.07-.15-.12-.23-.19q7.61-7,15.2-14.11c.07.09.1.19.17.27l11.86,13.16a3.22,3.22,0,0,0,4.51,0,3.27,3.27,0,0,0,0-4.51L194.92,93l-.06,0c3.45-3.21,6.91-6.4,10.35-9.61l.1.12q9.54,9.72,19.58,19a3.19,3.19,0,0,0,4.51-4.51q-10-9.2-19.54-18.91L225,64.92s0,0,0,0q5.92,6.57,11.86,13.15a3.2,3.2,0,0,0,4.5,0,3.26,3.26,0,0,0,0-4.51l-11.72-13,9-8.39L255.08,36.7l7.68-7.23,3.84-3.62c.7-.67,2.68-3.26,3.63-3.24,1.22,0,3.12,2.7,3.86,3.42l4.4,4.31q4.2,4.13,8.37,8.3,8.52,8.52,16.88,17.2Q319.66,72.37,335,89.46q-28.16,25.91-56.42,51.7-33.95,31-68,62-32.39,29.5-64.8,59Q120.92,284.76,96,307.37Z"/><path class="cls-1" d="M285.76,96.49C294.09,95,300,87.32,300.13,79a3.41,3.41,0,0,0-.07-.73,18,18,0,0,0-11.66-16,17.85,17.85,0,0,0-19.72,5.27,17.81,17.81,0,0,0,17.08,28.95ZM272.48,73.12a11.46,11.46,0,1,1,.83,13A11.56,11.56,0,0,1,272.48,73.12Z"/><path class="cls-1" d="M341,131.36l-19.53,2.89c-1.71.26-2.64,2.41-2.23,3.92a3.27,3.27,0,0,0,3.92,2.23l14.27-2.12c-.33,1.16-.67,2.32-1,3.47a3.26,3.26,0,0,0-5.25-1.26l-19.31,18-46.38,43.32-55.9,52.21-48.51,45.31c-6.75,6.3-13.8,12.43-20.42,18.91.46-2.28.91-4.57,1.37-6.85l.51-2.51a3.19,3.19,0,1,0-6.15-1.69q-1.74,8.68-3.49,17.37c-.17.84-.34,1.67-.5,2.51a3.23,3.23,0,0,0,3.92,3.92l17.12-3.24,2.46-.47a3.2,3.2,0,0,0,2.23-3.92,3.26,3.26,0,0,0-3.92-2.22l-9,1.69L161,308.16l46.38-43.32,55.9-52.21,48.51-45.3c7.82-7.31,16.09-14.35,23.57-22l.07-.07-3.69,12.89-1,3.57c-1.14,4,5,5.64,6.14,1.7q3.53-12.27,7-24.55l1-3.57C345.62,132.72,343.26,131,341,131.36Z"/></svg>