<svg id="Layer_1" data-name="Layer 1" xmlns="http://www.w3.org/2000/svg" viewBox="0 0 250 250"><defs><style>.cls-1{fill:#5cfa9d;}.cls-2{fill:#282d40;}</style></defs><circle class="cls-1" cx="125" cy="125" r="125"/><path class="cls-2" d="M81.58,190.84v-4.77L79.23,190H78.4l-2.32-3.83v4.67H74.35v-8h1.52l3,4.94,2.93-4.94h1.51l0,8Z"/><path class="cls-2" d="M85.19,182.89H87v8H85.19Z"/><path class="cls-2" d="M88.92,182.89h3.61a5.08,5.08,0,0,1,2.29.49,3.65,3.65,0,0,1,1.54,1.39,4.25,4.25,0,0,1,0,4.18,3.65,3.65,0,0,1-1.54,1.39,5.08,5.08,0,0,1-2.29.5H88.92Zm3.52,6.44a2.67,2.67,0,0,0,1.9-.67,2.64,2.64,0,0,0,0-3.6,2.66,2.66,0,0,0-1.9-.66H90.76v4.93Z"/><path class="cls-2" d="M104.45,189.36v1.48H98.3v-8h6v1.47h-4.18v1.73h3.69v1.43h-3.69v1.84Z"/><path class="cls-2" d="M114.57,189.34v1.5h-6v-1.2l3.06-2.89a3.14,3.14,0,0,0,.66-.8,1.55,1.55,0,0,0,.17-.67.9.9,0,0,0-.32-.73,1.54,1.54,0,0,0-1-.25,2.19,2.19,0,0,0-.94.19,2,2,0,0,0-.71.6l-1.34-.86a3.15,3.15,0,0,1,1.29-1.09,4.28,4.28,0,0,1,1.87-.39,3.9,3.9,0,0,1,1.55.29,2.36,2.36,0,0,1,1,.82,2.07,2.07,0,0,1,.37,1.24,2.82,2.82,0,0,1-.27,1.22,4.45,4.45,0,0,1-1.06,1.29l-1.83,1.73Z"/><path class="cls-2" d="M126.69,182.89l-3.44,8h-1.82l-3.43-8h2l2.42,5.67,2.45-5.67Z"/><path class="cls-2" d="M133.5,189.36v1.48h-6.15v-8h6v1.47h-4.18v1.73h3.69v1.43h-3.69v1.84Z"/><path class="cls-2" d="M136.55,190.44A3.94,3.94,0,0,1,135,189a4.29,4.29,0,0,1,0-4.24,3.94,3.94,0,0,1,1.54-1.46,4.63,4.63,0,0,1,2.21-.53,4.69,4.69,0,0,1,1.87.36,3.75,3.75,0,0,1,1.4,1l-1.18,1.09a2.54,2.54,0,0,0-2-.93,2.74,2.74,0,0,0-1.32.32,2.43,2.43,0,0,0-.9.9,2.88,2.88,0,0,0,0,2.64,2.36,2.36,0,0,0,.9.9,2.64,2.64,0,0,0,1.32.33,2.53,2.53,0,0,0,2-.95l1.18,1.09a3.71,3.71,0,0,1-1.41,1.06,4.69,4.69,0,0,1-1.87.36A4.5,4.5,0,0,1,136.55,190.44Z"/><path class="cls-2" d="M149.43,189.36v1.48h-6.16v-8h6v1.47H145.1v1.73h3.69v1.43H145.1v1.84Z"/><path class="cls-2" d="M151.68,190.72a4,4,0,0,1-1.41-.67l.62-1.38a4.21,4.21,0,0,0,1.22.6,4.51,4.51,0,0,0,1.4.23,2.18,2.18,0,0,0,1.16-.24.7.7,0,0,0,.38-.62.63.63,0,0,0-.22-.47,1.91,1.91,0,0,0-.57-.3c-.23-.07-.55-.16-.94-.25a11.25,11.25,0,0,1-1.49-.43,2.41,2.41,0,0,1-1-.69,1.85,1.85,0,0,1-.42-1.27,2.23,2.23,0,0,1,.38-1.26,2.57,2.57,0,0,1,1.13-.89,4.59,4.59,0,0,1,1.84-.33,6.14,6.14,0,0,1,1.49.18,4.44,4.44,0,0,1,1.27.52l-.56,1.4a4.52,4.52,0,0,0-2.21-.62,2.05,2.05,0,0,0-1.14.25.76.76,0,0,0-.37.66.63.63,0,0,0,.43.6,6.17,6.17,0,0,0,1.3.4,11.72,11.72,0,0,1,1.49.43,2.48,2.48,0,0,1,1,.68,1.81,1.81,0,0,1,.41,1.26,2.11,2.11,0,0,1-.38,1.24,2.48,2.48,0,0,1-1.14.89,4.6,4.6,0,0,1-1.85.33A6.5,6.5,0,0,1,151.68,190.72Z"/><path class="cls-2" d="M159.7,189a1,1,0,0,1,.31.78,1.76,1.76,0,0,1-.06.46,5.19,5.19,0,0,1-.25.68l-.65,1.64h-1.12l.5-1.81a1,1,0,0,1-.45-.37,1.08,1.08,0,0,1-.16-.6,1,1,0,0,1,.31-.78,1.06,1.06,0,0,1,.79-.31A1,1,0,0,1,159.7,189Z"/><path class="cls-2" d="M80,204.07a3.94,3.94,0,0,1-1.54-1.46,4.29,4.29,0,0,1,0-4.24A3.94,3.94,0,0,1,80,196.91a4.51,4.51,0,0,1,2.21-.53,4.69,4.69,0,0,1,1.87.36,3.65,3.65,0,0,1,1.4,1l-1.18,1.09a2.54,2.54,0,0,0-2-.93,2.57,2.57,0,0,0-1.31.32,2.38,2.38,0,0,0-.91.9,2.88,2.88,0,0,0,0,2.64,2.38,2.38,0,0,0,.91.9,2.67,2.67,0,0,0,1.31.32,2.52,2.52,0,0,0,2-.94l1.18,1.09a3.73,3.73,0,0,1-1.41,1.06,4.69,4.69,0,0,1-1.87.36A4.62,4.62,0,0,1,80,204.07Z"/><path class="cls-2" d="M88.16,204.07a4.05,4.05,0,0,1,0-7.16,5,5,0,0,1,4.46,0,4.13,4.13,0,0,1,1.55,1.47,4.19,4.19,0,0,1,0,4.22,4.13,4.13,0,0,1-1.55,1.47,5,5,0,0,1-4.46,0Zm3.5-1.36a2.33,2.33,0,0,0,.89-.9,2.81,2.81,0,0,0,0-2.64,2.33,2.33,0,0,0-.89-.9,2.68,2.68,0,0,0-2.54,0,2.33,2.33,0,0,0-.89.9,2.8,2.8,0,0,0,0,2.64,2.33,2.33,0,0,0,.89.9,2.68,2.68,0,0,0,2.54,0Z"/><path class="cls-2" d="M101.19,204.46l-1.53-2.21H98v2.21H96.13v-8h3.44a4.33,4.33,0,0,1,1.83.36,2.64,2.64,0,0,1,1.2,1,2.74,2.74,0,0,1,.42,1.53,2.67,2.67,0,0,1-.43,1.53,2.7,2.7,0,0,1-1.21,1l1.79,2.55Zm-.47-6.09a1.89,1.89,0,0,0-1.26-.36H98v2.77h1.5a1.89,1.89,0,0,0,1.26-.36,1.41,1.41,0,0,0,0-2Z"/><path class="cls-2" d="M106,198h-2.54v-1.5h6.93V198h-2.55v6.45H106Z"/><path class="cls-2" d="M116.21,202.76h-3.69l-.7,1.7h-1.89l3.55-8h1.81l3.56,8h-1.93Zm-.57-1.4-1.27-3-1.26,3Z"/><path class="cls-2" d="M125.46,196.51v8h-1.84V198H122v-1.48Z"/><path class="cls-2" d="M138.2,196.51l-3.44,8h-1.82l-3.43-8h2l2.42,5.68,2.45-5.68Z"/><path class="cls-2" d="M145,203v1.47h-6.15v-8h6V198h-4.18v1.73h3.69v1.43h-3.69V203Z"/><path class="cls-2" d="M152.92,203v1.5H146v-1.19l4.36-5.26h-4.27v-1.5h6.69v1.2L148.4,203Z"/><path class="cls-2" d="M154.09,204.24a1.07,1.07,0,0,1-.32-.8,1,1,0,0,1,.32-.79,1.16,1.16,0,0,1,1.56,0,1,1,0,0,1,.32.79,1.07,1.07,0,0,1-.32.8,1.14,1.14,0,0,1-1.56,0Z"/><path class="cls-2" d="M131.81,126.24q11.83-10.78,23.67-21.59Q166,95,176.54,85.37l2.2-2a1.13,1.13,0,0,0,0-1.57q-10.35-11.56-21.46-22.44a8.71,8.71,0,0,0-2.6-2.17,2.59,2.59,0,0,0-2.67.68c-2,1.73-3.88,3.65-5.81,5.46q-5.73,5.4-11.49,10.77-23.19,21.66-46.54,43.14Q75,129.39,61.84,141.59a1.07,1.07,0,0,0,0,1.57C69.32,150,76.22,157.59,83.13,165c.69.73,1.37,1.47,2,2.2a1.14,1.14,0,0,0,1.57,0l6.44-5.84,16.47-15Zm-44,37.05c-.56.5-1.21,1-1.79,1.53-5.5-5.95-11.07-11.84-16.77-17.59-1.63-1.64-3.28-3.27-5-4.85l6.55-6.06a1.08,1.08,0,0,0,.32.81q3.31,3.39,6.82,6.61a1.11,1.11,0,0,0,1.57-1.57q-3.5-3.22-6.82-6.61a1.1,1.1,0,0,0-.73-.31l5.7-5.28a1.18,1.18,0,0,0,.3.71c1.38,1.52,2.75,3,4.13,4.58a1.13,1.13,0,0,0,1.57,0,1.15,1.15,0,0,0,0-1.57c-1.38-1.53-2.75-3.06-4.13-4.58a1,1,0,0,0-.62-.29l3.93-3.65a1.13,1.13,0,0,0,.3.62c2.22,2.25,4.5,4.46,6.82,6.6a1.14,1.14,0,0,0,1.57,0,1.12,1.12,0,0,0,0-1.57q-3.49-3.21-6.82-6.6a1.07,1.07,0,0,0-.53-.29l5.54-5.12a1.3,1.3,0,0,0,.27.52c1.37,1.53,2.75,3,4.13,4.58a1.12,1.12,0,0,0,1.57,0,1.15,1.15,0,0,0,0-1.57q-2.07-2.28-4.13-4.58a1,1,0,0,0-.43-.25L94.9,114a1.21,1.21,0,0,0,.26.43q3.33,3.39,6.82,6.6a1.11,1.11,0,0,0,1.57-1.57q-3.49-3.21-6.82-6.6a1,1,0,0,0-.35-.23l5.41-5a1.2,1.2,0,0,0,.22.35l4.12,4.58A1.11,1.11,0,0,0,107.7,111q-2.06-2.3-4.13-4.58a.81.81,0,0,0-.26-.18l3.69-3.41a1.15,1.15,0,0,0,.19.26q3.33,3.39,6.82,6.61a1.11,1.11,0,0,0,1.57-1.57c-2.33-2.14-4.6-4.35-6.82-6.6a.9.9,0,0,0-.19-.15l.31-.29,5-4.66a1.48,1.48,0,0,0,.13.21c1.38,1.53,2.76,3,4.13,4.58a1.11,1.11,0,0,0,1.57-1.57c-1.37-1.53-2.75-3.05-4.13-4.58,0,0-.09-.06-.13-.09l3.63-3.38a1.58,1.58,0,0,0,.12.15q3.32,3.39,6.82,6.6a1.12,1.12,0,0,0,1.57,0,1.14,1.14,0,0,0,0-1.57q-3.49-3.21-6.82-6.6s-.06,0-.08-.07L126,85.2s0,.07.06.09c1.38,1.53,2.75,3.06,4.13,4.58a1.11,1.11,0,0,0,1.57,0,1.12,1.12,0,0,0,0-1.56l-4.13-4.59s0,0,0,0l3.6-3.35s0,0,0,0q3.31,3.39,6.82,6.61a1.11,1.11,0,0,0,1.57-1.57q-3.49-3.21-6.81-6.59,2.64-2.44,5.26-4.91h0l4.13,4.58a1.12,1.12,0,0,0,1.57,0,1.15,1.15,0,0,0,0-1.57l-4.09-4.53,3.13-2.92,5.75-5.39,2.67-2.52,1.34-1.26c.24-.23.93-1.14,1.26-1.13s1.09.94,1.35,1.19l1.53,1.5,2.91,2.89q3,3,5.88,6,5.53,5.76,10.87,11.71-9.79,9-19.64,18-11.82,10.8-23.66,21.58l-22.56,20.54L93.19,158.36Z"/><path class="cls-2" d="M159.26,84.93a6.26,6.26,0,0,0,5-6.08,1.1,1.1,0,0,0,0-.26A6.29,6.29,0,0,0,160.18,73a6.2,6.2,0,1,0-.92,11.91Zm-4.62-8.13a4,4,0,1,1,.28,4.53A4,4,0,0,1,154.64,76.8Z"/><path class="cls-2" d="M178.48,97.08l-6.8,1a1.12,1.12,0,0,0-.77,1.37,1.13,1.13,0,0,0,1.36.77l5-.73c-.12.4-.23.8-.35,1.21a1.13,1.13,0,0,0-1.83-.44l-6.72,6.28-16.15,15.08L132.73,139.8l-16.89,15.77c-2.35,2.2-4.81,4.33-7.11,6.59l.47-2.39.18-.87a1.11,1.11,0,0,0-2.14-.59c-.41,2-.81,4-1.22,6.05l-.17.87a1.13,1.13,0,0,0,1.36,1.37l6-1.13.85-.16a1.12,1.12,0,0,0,.78-1.37,1.14,1.14,0,0,0-1.37-.77l-3.12.59,5.49-5.12L132,143.55l19.46-18.18,16.89-15.77c2.73-2.55,5.61-5,8.21-7.67l0,0c-.42,1.5-.85,3-1.28,4.49l-.36,1.24a1.11,1.11,0,0,0,2.14.59q1.23-4.28,2.45-8.55l.36-1.24A1.13,1.13,0,0,0,178.48,97.08Z"/></svg>