<svg id="Layer_1" data-name="Layer 1" xmlns="http://www.w3.org/2000/svg" viewBox="0 0 250 250"><defs><style>.cls-1{fill:#5cfa9d;}.cls-2{fill:#282d40;}</style></defs><circle class="cls-1" cx="125" cy="125" r="125"/><path class="cls-2" d="M86.68,179.69a2.7,2.7,0,0,1,1.2,1,2.74,2.74,0,0,1,.42,1.53,2.79,2.79,0,0,1-.42,1.53,2.7,2.7,0,0,1-1.2,1,4.49,4.49,0,0,1-1.83.34H83.24v2.19H81.4v-7.94h3.45A4.33,4.33,0,0,1,86.68,179.69ZM86,183.24a1.41,1.41,0,0,0,0-2.05,1.89,1.89,0,0,0-1.26-.36h-1.5v2.76h1.5A2,2,0,0,0,86,183.24Z"/><path class="cls-2" d="M89.6,179.34h1.84v7.94H89.6Z"/><path class="cls-2" d="M93.33,179.34h3.61a5.08,5.08,0,0,1,2.29.49,3.65,3.65,0,0,1,1.54,1.39,4.25,4.25,0,0,1,0,4.18,3.65,3.65,0,0,1-1.54,1.39,5.08,5.08,0,0,1-2.29.49H93.33Zm3.52,6.43a2.68,2.68,0,0,0,1.9-.66,2.64,2.64,0,0,0,0-3.6,2.68,2.68,0,0,0-1.9-.66H95.17v4.92Z"/><path class="cls-2" d="M108.86,185.81v1.47h-6.15v-7.94h6v1.47h-4.18v1.73h3.69V184h-3.69v1.84Z"/><path class="cls-2" d="M118.78,185.58h-3.69l-.71,1.7H112.5l3.54-7.94h1.82l3.55,7.94h-1.93Zm-.58-1.4-1.26-3-1.26,3Z"/><path class="cls-2" d="M125.57,184.47v2.81h-1.84v-2.83l-3.08-5.11h2l2.12,3.53,2.12-3.53h1.81Z"/><path class="cls-2" d="M130.2,186.48a3.61,3.61,0,0,1-.95-2.69v-4.45h1.84v4.38q0,2.13,1.77,2.13a1.68,1.68,0,0,0,1.32-.51,2.45,2.45,0,0,0,.45-1.62v-4.38h1.82v4.45a3.65,3.65,0,0,1-.95,2.69,4.21,4.21,0,0,1-5.3,0Z"/><path class="cls-2" d="M138.27,179.34h3.61a5.1,5.1,0,0,1,2.29.49,3.71,3.71,0,0,1,1.54,1.39,4.25,4.25,0,0,1,0,4.18,3.71,3.71,0,0,1-1.54,1.39,5.1,5.1,0,0,1-2.29.49h-3.61Zm3.52,6.43a2.7,2.7,0,0,0,1.9-.66,2.64,2.64,0,0,0,0-3.6,2.7,2.7,0,0,0-1.9-.66h-1.68v4.92Z"/><path class="cls-2" d="M152.77,185.58h-3.69l-.71,1.7h-1.88l3.54-7.94h1.82l3.55,7.94h-1.93Zm-.58-1.4-1.26-3-1.26,3Z"/><path class="cls-2" d="M163.26,184.47v2.81h-1.84v-2.83l-3.08-5.11h2l2.12,3.53,2.12-3.53h1.81Z"/><path class="cls-2" d="M59.78,199.21H56.09l-.71,1.7H53.5L57,193h1.82l3.55,7.95H60.48Zm-.58-1.4-1.26-3-1.26,3Z"/><path class="cls-2" d="M68.52,193.31a2.64,2.64,0,0,1,1.61,2.54,2.73,2.73,0,0,1-.42,1.52,2.67,2.67,0,0,1-1.19,1,4.51,4.51,0,0,1-1.84.35h-1.6v2.19H63.24V193h3.44A4.51,4.51,0,0,1,68.52,193.31Zm-.68,3.55a1.21,1.21,0,0,0,.43-1,1.25,1.25,0,0,0-.43-1,1.93,1.93,0,0,0-1.26-.36h-1.5v2.76h1.5A1.93,1.93,0,0,0,67.84,196.86Z"/><path class="cls-2" d="M76.5,200.91,75,198.7H73.28v2.21H71.44V193h3.44a4.46,4.46,0,0,1,1.83.35,2.77,2.77,0,0,1,1.2,1,2.8,2.8,0,0,1,.42,1.54,2.68,2.68,0,0,1-.42,1.52,2.77,2.77,0,0,1-1.21,1l1.78,2.55ZM76,194.82a1.93,1.93,0,0,0-1.26-.36h-1.5v2.77h1.5a1.93,1.93,0,0,0,1.26-.36,1.44,1.44,0,0,0,0-2.05Z"/><path class="cls-2" d="M85.94,199.44v1.47H79.79V193h6v1.48H81.61v1.72h3.7v1.44h-3.7v1.84Z"/><path class="cls-2" d="M94.7,193v7.95H93.19l-4-4.82v4.82H87.41V193h1.52l3.95,4.83V193Z"/><path class="cls-2" d="M96.58,193h3.61a5,5,0,0,1,2.29.5,3.73,3.73,0,0,1,1.55,1.39,4.25,4.25,0,0,1,0,4.18,3.8,3.8,0,0,1-1.55,1.39,5,5,0,0,1-2.29.49H96.58Zm3.52,6.44a2.7,2.7,0,0,0,1.91-.66,2.37,2.37,0,0,0,.7-1.8,2.34,2.34,0,0,0-.7-1.8,2.67,2.67,0,0,0-1.91-.67H98.42v4.93Z"/><path class="cls-2" d="M112.12,199.44v1.47H106V193h6v1.48h-4.18v1.72h3.69v1.44h-3.69v1.84Z"/><path class="cls-2" d="M122,199.21h-3.69l-.7,1.7h-1.89l3.54-7.95h1.82l3.56,7.95h-1.93Zm-.58-1.4-1.26-3-1.26,3Z"/><path class="cls-2" d="M125.5,193h1.84v6.45h4v1.5H125.5Z"/><path class="cls-2" d="M137.59,196.81h1.68V200a5,5,0,0,1-1.5.75,6,6,0,0,1-1.71.26,4.68,4.68,0,0,1-2.23-.53,3.92,3.92,0,0,1-1.55-1.47,4.27,4.27,0,0,1,0-4.23,4,4,0,0,1,1.56-1.47,4.78,4.78,0,0,1,2.25-.52,4.84,4.84,0,0,1,1.9.35,3.75,3.75,0,0,1,1.43,1l-1.18,1.09a2.74,2.74,0,0,0-2.06-.9,2.81,2.81,0,0,0-1.35.32,2.28,2.28,0,0,0-.92.9,2.62,2.62,0,0,0-.33,1.33,2.58,2.58,0,0,0,.33,1.31,2.34,2.34,0,0,0,.91.91,2.79,2.79,0,0,0,1.34.32,2.93,2.93,0,0,0,1.43-.34Z"/><path class="cls-2" d="M142.59,200.51A3.85,3.85,0,0,1,141,199a3.94,3.94,0,0,1-.57-2.1,4,4,0,0,1,2.12-3.58,5,5,0,0,1,4.46,0,3.94,3.94,0,0,1,2.12,3.58,4,4,0,0,1-.56,2.1,3.94,3.94,0,0,1-1.56,1.47,4.87,4.87,0,0,1-4.46,0Zm3.51-1.35a2.43,2.43,0,0,0,.89-.91,2.67,2.67,0,0,0,.32-1.31,2.74,2.74,0,0,0-.32-1.32,2.33,2.33,0,0,0-.89-.9,2.52,2.52,0,0,0-1.28-.33,2.48,2.48,0,0,0-1.27.33,2.27,2.27,0,0,0-.89.9,2.63,2.63,0,0,0-.32,1.32,2.57,2.57,0,0,0,.32,1.31,2.36,2.36,0,0,0,.89.91,2.58,2.58,0,0,0,1.27.32A2.61,2.61,0,0,0,146.1,199.16Z"/><path class="cls-2" d="M161.06,193v7.95h-1.51l-4-4.82v4.82h-1.82V193h1.52l4,4.83V193Z"/><path class="cls-2" d="M163.83,200.11a3.66,3.66,0,0,1-1-2.7V193h1.84v4.39q0,2.13,1.77,2.13a1.64,1.64,0,0,0,1.32-.52,2.4,2.4,0,0,0,.45-1.61V193h1.82v4.45a3.66,3.66,0,0,1-1,2.7,4.21,4.21,0,0,1-5.3,0Z"/><path class="cls-2" d="M178.05,199.44v1.47H171.9V193h6v1.48h-4.17v1.72h3.69v1.44h-3.69v1.84Z"/><path class="cls-2" d="M187.05,193l-3.44,7.95h-1.82L178.36,193h2l2.41,5.68,2.46-5.68Z"/><path class="cls-2" d="M189.23,200.51a3.85,3.85,0,0,1-1.55-1.47,3.94,3.94,0,0,1-.57-2.1,4,4,0,0,1,2.12-3.58,5,5,0,0,1,4.46,0,3.94,3.94,0,0,1,2.12,3.58,4,4,0,0,1-.56,2.1,3.94,3.94,0,0,1-1.56,1.47,4.87,4.87,0,0,1-4.46,0Zm3.51-1.35a2.43,2.43,0,0,0,.89-.91,2.67,2.67,0,0,0,.32-1.31,2.74,2.74,0,0,0-.32-1.32,2.33,2.33,0,0,0-.89-.9,2.52,2.52,0,0,0-1.28-.33,2.48,2.48,0,0,0-1.27.33,2.27,2.27,0,0,0-.89.9,2.63,2.63,0,0,0-.32,1.32,2.57,2.57,0,0,0,.32,1.31,2.36,2.36,0,0,0,.89.91,2.58,2.58,0,0,0,1.27.32A2.61,2.61,0,0,0,192.74,199.16Z"/><path class="cls-2" d="M92.6,81a83.11,83.11,0,0,1,1.92,12.14c.34,4,.23,8,.2,12,0,3.68.54,7.2,2.82,10.18a27.4,27.4,0,0,0,8,6.66,36.24,36.24,0,0,0,11.47,4.29c1.39.27,2-1.87.59-2.14-6.57-1.25-13.47-4.43-17.9-9.58-2.4-2.8-2.86-6.16-2.81-9.74.06-3.84.13-7.65-.18-11.49a88.06,88.06,0,0,0-2-12.9c-.33-1.39-2.47-.8-2.14.59Z"/><path class="cls-2" d="M131,123.47c4.1-1.38,7.13-5.08,9.28-8.69a29.42,29.42,0,0,0,3.95-12.33c.13-1.42-2.09-1.42-2.22,0a26.69,26.69,0,0,1-3.5,11c-1.83,3.17-4.49,6.72-8.1,7.93-1.35.46-.77,2.6.59,2.14Z"/><path class="cls-2" d="M112.6,124.66c-.09,4-.63,8-.91,12l1.11-1.11a57.27,57.27,0,0,0-9.29,1.41,15,15,0,0,0-7.1,3.37c-2.27,2.16-2.73,5.31-3.28,8.25q-1,5.19-1.51,10.46c-.14,1.42,2.08,1.41,2.22,0,.32-3.13.77-6.24,1.33-9.34.49-2.65.75-5.84,2.81-7.8,1.67-1.61,4-2.32,6.25-2.83a55.26,55.26,0,0,1,8.57-1.3,1.13,1.13,0,0,0,1.11-1.11c.28-4,.82-8,.91-12a1.11,1.11,0,0,0-2.22,0Z"/><path class="cls-2" d="M132.16,121.06c-.49,3.1-1,6.64.15,9.65s4.1,4.83,7.12,5.72c3.39,1,7,.86,10.4,1.81a10.7,10.7,0,0,1,7.26,6.87c1.61,4.35,1.11,9.08.65,13.59-.14,1.42,2.08,1.41,2.22,0,.72-7.13,1.11-15.84-5.34-20.63-3-2.21-6.78-2.54-10.34-3-3.06-.37-6.55-1-8.75-3.34-2.42-2.59-1.74-6.93-1.23-10.11.22-1.4-1.92-2-2.14-.59Z"/><path class="cls-2" d="M111.73,137.9a9.25,9.25,0,0,0,2,3.24,44.68,44.68,0,0,0,3.46,3.69q2.39,2.34,4.92,4.52a1.15,1.15,0,0,0,1.35.17,131.77,131.77,0,0,0,13.2-10.58c.75-.73,1.92-1.7,2.14-2.79.28-1.39-1.86-2-2.14-.59-.06.26.14-.12-.07.15s-.07.13-.23.33q-.56.65-1.17,1.23c-1.11,1.07-2.29,2.08-3.48,3.06-2.49,2.06-5.05,4-7.64,6-.57.43-1.15.87-1.73,1.29l1.34.18c-1.59-1.36-3.13-2.78-4.63-4.23-1.16-1.12-2.29-2.27-3.34-3.49a15.8,15.8,0,0,1-1.19-1.51,5.15,5.15,0,0,1-.65-1.24,1.11,1.11,0,0,0-2.14.59Z"/><path class="cls-2" d="M111.09,112.3a11.32,11.32,0,0,0,7.94,2.79,23.8,23.8,0,0,0,9.41-2.69c1.3-.6.17-2.51-1.12-1.91-4.44,2.06-10.52,4-14.66.24-1.06-1-2.63.61-1.57,1.57Z"/><path class="cls-2" d="M114,92.45,112.18,96a8.89,8.89,0,0,0-1.29,3.64,3.65,3.65,0,0,0,1.52,3.14,7,7,0,0,0,2.87,1.06,1.11,1.11,0,0,0,.59-2.14c-1.4-.27-3.06-.63-2.72-2.39a10.39,10.39,0,0,1,1.21-2.7l1.6-3.05c.66-1.26-1.25-2.38-1.92-1.12Z"/><path class="cls-2" d="M124.31,82.19a4.35,4.35,0,0,1,6.55,1.4,1.11,1.11,0,1,0,1.91-1.12,6.55,6.55,0,0,0-9.58-2.2,1.11,1.11,0,0,0,1.12,1.92Z"/><path class="cls-2" d="M100.53,84.57a5.88,5.88,0,0,1,3.38-2.37l.53-.13.3,0h.12A7.37,7.37,0,0,1,106,82l.42,0,.59.13a5.16,5.16,0,0,1,.52.16,2.34,2.34,0,0,1,.45.19,1.13,1.13,0,0,0,1.52-.4,1.11,1.11,0,0,0-.39-1.51,8.34,8.34,0,0,0-10.5,2.86,1.11,1.11,0,1,0,1.91,1.12Z"/><path class="cls-2" d="M104.61,87.14a7.23,7.23,0,0,0-.65,2.7,6.09,6.09,0,0,0,.38,2.51,2.17,2.17,0,0,0,1,1.19,1.61,1.61,0,0,0,1.81-.24,2.8,2.8,0,0,0,.65-2.38,14.49,14.49,0,0,0-.58-3.14,1.11,1.11,0,1,0-2.14.59,12,12,0,0,1,.33,1.31c0,.23.09.46.12.7,0-.2,0,0,0,.07l0,.37c0,.22,0,.44,0,.66,0,.06,0,.12,0,.18s0,.08,0-.11l0,.12a1.67,1.67,0,0,0-.05.18c.08-.17.09-.21,0-.1s0,.06.08-.09c-.14.14.22-.14.06,0a.68.68,0,0,1,.69,0c-.1-.06-.07,0,.08.06h0c0,.08.06.08,0,0l-.06-.12c.07.16.08.19,0,.08a.56.56,0,0,1,0-.12c0-.09-.06-.19-.08-.28a2,2,0,0,1-.12-.59c0,.31,0-.06,0-.13s0-.17,0-.25,0-.4,0-.6,0-.44,0-.12c0-.09,0-.17,0-.26s.08-.38.14-.57.07-.22.11-.33l.06-.16c-.06.14-.06.15,0,0a1.14,1.14,0,0,0-.4-1.51,1.12,1.12,0,0,0-1.52.39Z"/><path class="cls-2" d="M126.14,87.32a10,10,0,0,0-.47,2.71,3.42,3.42,0,0,0,.75,2.72,1.8,1.8,0,0,0,2.9-.5,4.82,4.82,0,0,0,0-2.74A6.77,6.77,0,0,0,128.24,87a1.22,1.22,0,0,0-.67-.51,1.15,1.15,0,0,0-.85.11,1.12,1.12,0,0,0-.4,1.52,6.43,6.43,0,0,1,.61,1c0,.12,0,.1,0,0l.06.14.1.28c.05.17.1.34.14.52a2.5,2.5,0,0,1,.05.29l0,.15c0-.17,0-.19,0-.07s0,.4,0,.61,0,.2,0,.3,0,.09,0,.13c0-.19,0-.22,0-.1-.1.29.09-.13,0,0a.51.51,0,0,1,.23-.23l.14-.06c-.09,0,0,0,.16,0h-.12c.2,0,.24,0,.13,0s-.08,0,.1.05l-.1-.06q.23.18.09.06.17.21.06.06a.75.75,0,0,1-.07-.12c.07.16.08.18,0,.07s0-.09,0-.14,0-.09,0-.14c0,.18,0,.2,0,.08s0-.4,0-.6,0-.42,0-.64l0-.33c0-.13,0-.12,0,0l0-.17a8.47,8.47,0,0,1,.32-1.32,1.11,1.11,0,1,0-2.14-.59Z"/><path class="cls-2" d="M112.27,46.35c-.33-1.38-.6-2.76-.82-4.16l-1.37,1.36a25.31,25.31,0,0,1,8.29,4.68c1.15,1,2.16,2.49,3.88,2a12,12,0,0,0,1.88-.89,22.36,22.36,0,0,1,2.25-1,25.16,25.16,0,0,1,18.48.51c1.3.56,2.43-1.35,1.12-1.92a27.48,27.48,0,0,0-18.74-1.2,26.47,26.47,0,0,0-4.51,1.79c-.25.13-.78.55-1.07.53s-.38-.22-.58-.41c-.6-.56-1.21-1.11-1.85-1.62a28.51,28.51,0,0,0-8.56-4.66c-.88-.3-1.48.6-1.36,1.37.22,1.4.49,2.78.82,4.16s2.47.8,2.14-.59Z"/><path class="cls-2" d="M140.78,51a19.29,19.29,0,0,1,11.58,6.06c2.82,3.15,4.51,7.55,3.52,11.77-.33,1.39,1.81,2,2.14.59,2.42-10.29-7.17-19.18-16.65-20.56-1.4-.2-2,1.94-.59,2.14Z"/><path class="cls-2" d="M92.83,82.07c-.12-1.26-.32-2.75.46-3.85a7.89,7.89,0,0,1,3.12-2.14,30.89,30.89,0,0,1,8.43-2.66,1.12,1.12,0,0,0,.78-1.37,1.13,1.13,0,0,0-1.37-.77,32.55,32.55,0,0,0-9.59,3.2,8.06,8.06,0,0,0-3.4,2.79,7.84,7.84,0,0,0-.65,4.8,1.14,1.14,0,0,0,1.11,1.11,1.11,1.11,0,0,0,1.11-1.11Z"/><path class="cls-2" d="M102.44,78.28c4.51.69,9.09-2.48,12.09-5.52,3.26-3.31,5.69-7.33,8.11-11.25.75-1.22-1.17-2.33-1.92-1.12a63.28,63.28,0,0,1-7.2,10.21A20.55,20.55,0,0,1,109,74.39c-1.65,1-3.94,2-5.92,1.75-1.39-.22-2,1.92-.59,2.14Z"/><path class="cls-2" d="M121.91,65.54c-.69,2.61,1.48,4.62,3.23,6.2a23.21,23.21,0,0,0,6.11,4.3,1.14,1.14,0,0,0,1.52-.4,1.1,1.1,0,0,0-.4-1.51,20.25,20.25,0,0,1-5.3-3.64,20.87,20.87,0,0,1-2.24-2.17,4.35,4.35,0,0,1-.69-1.07,1.68,1.68,0,0,1-.09-1.12,1.11,1.11,0,0,0-2.14-.59Z"/><path class="cls-2" d="M131.48,68.24A13.8,13.8,0,0,0,138,76.89a1.14,1.14,0,0,0,1.52-.4,1.12,1.12,0,0,0-.4-1.52,11.39,11.39,0,0,1-3.47-3,11.71,11.71,0,0,1-1.26-2.06,7.78,7.78,0,0,1-.42-1,12.26,12.26,0,0,1-.36-1.22,1.11,1.11,0,0,0-2.14.59Z"/><path class="cls-2" d="M115.67,48.17c-2.85-.47-5.57.08-8.36.65a39.83,39.83,0,0,0-8.06,2.43,20.55,20.55,0,0,0-11.1,11.81,22.1,22.1,0,0,0-1.36,9.46c.1,1.42,2.32,1.43,2.22,0a20.26,20.26,0,0,1,4.46-14.35c3.27-4,8.11-5.79,13-6.9,2.78-.63,5.76-1.43,8.63-1,1.39.23,2-1.91.59-2.14Z"/><path class="cls-2" d="M93.06,63.9a16,16,0,0,0-3.83,5,22.94,22.94,0,0,0-1.44,6.5c-.35,3.74,1.3,8.06,5.51,8.49,1.42.14,1.41-2.08,0-2.22a3.81,3.81,0,0,1-2.84-2.35,8.66,8.66,0,0,1-.31-4.94,17.64,17.64,0,0,1,1.32-5.07,15.63,15.63,0,0,1,3.16-3.82c1-1-.55-2.57-1.57-1.57Z"/><path class="cls-2" d="M141.24,73.71a69.12,69.12,0,0,0,5.25,23.43c.29.69,1.26,1.21,1.86.49,4-4.76,8.19-9.89,9.17-16.22a20.47,20.47,0,0,0-4.65-16.35c-.93-1.09-2.49.48-1.57,1.57a18.06,18.06,0,0,1,4,14.76c-1.07,5.71-4.89,10.33-8.5,14.67l1.85.49a67.49,67.49,0,0,1-5.17-22.84c-.06-1.42-2.28-1.43-2.22,0Z"/><path class="cls-2" d="M143.82,103.56a12,12,0,0,0,4.3-.26,7.72,7.72,0,0,0,3.65-1.86c2.18-2.18,1.9-5.42,1.39-8.2a1.11,1.11,0,0,0-1.36-.77,1.13,1.13,0,0,0-.78,1.36c.37,2,.74,4.59-.92,6.14a5.9,5.9,0,0,1-2.73,1.22,10.08,10.08,0,0,1-3.55.15,1.11,1.11,0,0,0-1.11,1.11,1.14,1.14,0,0,0,1.11,1.11Z"/><path class="cls-2" d="M167.58,50a8.1,8.1,0,0,1,4.28-5.55c2.18-1.13,5.54-1.37,7.08.91a4.76,4.76,0,0,1-1.37,6.44c-2.06,1.53-5.07,1.43-6.43,3.92a11.45,11.45,0,0,0-.9,5,58.45,58.45,0,0,0,0,5.92c.07,1.42,2.29,1.43,2.22,0a58.45,58.45,0,0,1,0-5.92c.08-1.56-.05-3.69,1.37-4.71,1.15-.84,2.67-1.06,3.94-1.7A7.7,7.7,0,0,0,181,51.19a6.68,6.68,0,0,0-1-8c-2.28-2.27-5.94-2.18-8.71-1a10.23,10.23,0,0,0-5.88,7.16c-.29,1.39,1.85,2,2.14.59Z"/><path class="cls-2" d="M174,73.64a1.75,1.75,0,0,0-.42-.55,2.17,2.17,0,0,0-.58-.41l-.18-.07a0,0,0,0,0,0,0,1.11,1.11,0,0,0-.51-.67,1.25,1.25,0,0,0-.85-.11,2.31,2.31,0,0,0-.75.3,2.51,2.51,0,0,0-.61.52,2.68,2.68,0,0,0-.44.67,2.53,2.53,0,0,0-.19.48,3.5,3.5,0,0,0-.09.55,2.27,2.27,0,0,0,.38,1.52,2.21,2.21,0,0,0,1.42,1,2.72,2.72,0,0,0,.9,0,2.82,2.82,0,0,0,.84-.26,2.26,2.26,0,0,0,1.07-1,2.33,2.33,0,0,0,.25-1A2.11,2.11,0,0,0,174,73.64Z"/><path class="cls-2" d="M78.87,102.69a8.07,8.07,0,0,1-4.28,5.55c-2.18,1.13-5.54,1.36-7.07-.91a4.75,4.75,0,0,1,1.36-6.44C70.94,99.36,74,99.46,75.31,97a11.45,11.45,0,0,0,.9-5,58.45,58.45,0,0,0,0-5.92c-.07-1.43-2.29-1.43-2.21,0,.09,2,.1,4,0,5.92-.08,1.56.05,3.68-1.37,4.71-1.15.83-2.67,1.06-3.93,1.69a7.82,7.82,0,0,0-3.22,3,6.7,6.7,0,0,0,1,8c2.28,2.26,5.94,2.18,8.71,1A10.24,10.24,0,0,0,81,103.28c.29-1.4-1.85-2-2.14-.59Z"/><path class="cls-2" d="M76.73,76.81a2.34,2.34,0,0,0-1.42-1,3,3,0,0,0-.9,0,2.88,2.88,0,0,0-.85.26,2.24,2.24,0,0,0-1.06,1,2.19,2.19,0,0,0-.26,1,2.26,2.26,0,0,0,.23,1,1.87,1.87,0,0,0,.42.55,2.35,2.35,0,0,0,.58.41l.18.07a0,0,0,0,1,0,0,1.09,1.09,0,0,0,.51.66,1.28,1.28,0,0,0,.86.12,2.18,2.18,0,0,0,.74-.3,2.34,2.34,0,0,0,.61-.52,2.72,2.72,0,0,0,.45-.67,4,4,0,0,0,.19-.48,3.5,3.5,0,0,0,.09-.55A2.38,2.38,0,0,0,76.73,76.81Z"/></svg>