<svg id="Layer_1" data-name="Layer 1" xmlns="http://www.w3.org/2000/svg" viewBox="0 0 350 350"><defs><style>.cls-1{fill:#282d40;}</style></defs><path class="cls-1" d="M262.37,279c-8.29-6.16-18.86-7.07-28.77-8.27-8.52-1-18.23-2.72-24.37-9.3-6.66-7.13-4.86-19-3.46-27.83,6.93-5,12.43-12.26,16.68-19.41A81.27,81.27,0,0,0,233.1,183a33.19,33.19,0,0,0,11.19-.8c3.67-.91,7.46-2.43,10.16-5.16,6.05-6.09,5.29-15.09,3.86-22.82a2.82,2.82,0,0,0-2-2.09c6.76-9.3,12.38-19.36,14.14-30.84a56.92,56.92,0,0,0-12.92-45.52c-2.58-3-6.93,1.35-4.37,4.36a50.26,50.26,0,0,1,11.07,41.11c-2.66,14.24-11.5,26.07-20.54,37.06a186.67,186.67,0,0,1-12.34-58.44c-.19-4-6.37-4-6.18,0A191.84,191.84,0,0,0,239.76,165c.79,1.9,3.5,3.36,5.16,1.36,2.55-3.06,5.14-6.18,7.65-9.38.94,5.42,1.52,11.87-2.77,15.9-2,1.89-5,2.79-7.59,3.39a28.39,28.39,0,0,1-9.9.41,2.21,2.21,0,0,0-1.14.17,3.3,3.3,0,0,0-3.9,2.91,74.4,74.4,0,0,1-9.72,30.49C212.44,219.11,205,229,195,232.37c-3.75,1.26-2.14,7.23,1.64,6,.81-.27,1.6-.58,2.38-.92-.91,7.05-1.24,14.5,1.27,21,2.27,5.91,6.87,10.08,12.28,12.92a3.25,3.25,0,0,0-.19.6.57.57,0,0,0,0,.22,1.15,1.15,0,0,0-.17.19c-.6.78-.18.36-.64.91a45.62,45.62,0,0,1-3.25,3.42c-3.09,3-6.38,5.78-9.69,8.53-6.93,5.74-14.06,11.24-21.25,16.64l-3.12,2.32q-5.56-4.86-10.86-10c-3.22-3.11-6.38-6.31-9.31-9.7a47.88,47.88,0,0,1-3.3-4.22,13,13,0,0,1-1.81-3.45,3,3,0,0,0-.21-.55,3.44,3.44,0,0,0,.32-1.27c.7-10.15,2-20.26,2.42-30.43,2.1.54,4.21,1,6.34,1.44,3.88.75,5.55-5.21,1.64-6-18.29-3.49-37.47-12.33-49.8-26.67-6.7-7.8-8-17.14-7.83-27.09.16-10.7.36-21.3-.51-32a243.4,243.4,0,0,0-5.62-35.91c-.69-3-4.35-2.69-5.61-.65a9.71,9.71,0,0,1,1.57-5.39c2-2.86,5.65-4.47,8.7-6A86,86,0,0,1,123.84,99c1.64-.27,2.57-2.31,2.16-3.8a3.16,3.16,0,0,0-3.8-2.15A91,91,0,0,0,95.5,102c-3.63,1.88-7.32,4.18-9.46,7.78A14.87,14.87,0,0,0,84.1,116c-.11-.2-.21-.4-.3-.61-2-4.24-1.6-9.26-.87-13.75.76-4.67,1.53-9.83,3.7-14.09s5.5-7.41,8.77-10.63c2.84-2.79-1.53-7.16-4.37-4.37-4.17,4.11-8.33,8.37-10.64,13.85-.22.52-.42,1.06-.62,1.61A55.79,55.79,0,0,1,92.18,56.57c9.1-11,22.58-16.1,36.12-19.2,7.74-1.77,16-4,24-2.68,3.89.64,5.56-5.31,1.64-6-7.92-1.29-15.49.23-23.26,1.81a111.76,111.76,0,0,0-22.43,6.77A57.15,57.15,0,0,0,77.38,70.17a61.74,61.74,0,0,0-3.8,26.34,3.19,3.19,0,0,0,3.4,3c-.25,1.69-.45,3.37-.61,5-1,10.32,3.57,22.27,15.11,23.58a230.56,230.56,0,0,1,3.64,25.77c.92,11.16.63,22.22.53,33.4-.09,10.24,1.5,20,7.86,28.32,5.89,7.68,14.09,13.71,22.39,18.55a100.83,100.83,0,0,0,19.47,8.72c-.3,9.81-1.49,19.55-2.26,29.33a159.61,159.61,0,0,0-23,3.69c-7.1,1.67-14.41,4.23-19.78,9.37-6.3,6-7.57,14.8-9.11,23-1.81,9.63-3.2,19.35-4.2,29.1-.41,4,5.77,3.92,6.17,0q1.35-13.06,3.71-26c1.36-7.38,2.08-16.26,7.8-21.73,4.67-4.46,11.27-6.44,17.42-7.85A153.63,153.63,0,0,1,143,278.33a.7.7,0,0,0,0,.14c.91,3.41,3.35,6.36,5.55,9a128.25,128.25,0,0,0,9.64,10.28c4.42,4.33,9,8.53,13.7,12.55a3.15,3.15,0,0,0,3.74.49c12.59-9.24,25.45-18.64,36.74-29.45,2.06-2,5.2-4.61,5.9-7.56.6.21,1.2.4,1.81.58,9.44,2.8,19.48,2.39,29,5,9.76,2.72,16.71,9.67,20.2,19.12,4.48,12.11,3.08,25.28,1.81,37.83-.4,3.95,5.78,3.93,6.17,0C279.25,316.52,280.33,292.3,262.37,279Z"/><path class="cls-1" d="M163.32,215c9.23-.2,17.94-3.64,26.19-7.47,3.61-1.67.47-7-3.11-5.33-12.35,5.73-29.3,11.2-40.82.68-2.93-2.67-7.31,1.68-4.37,4.37C147.22,212.72,155.26,215.17,163.32,215Z"/><path class="cls-1" d="M150.33,163.58l4.44-8.47c1.84-3.52-3.49-6.65-5.34-3.12l-5.18,9.89c-1.68,3.2-3.43,6.45-3.58,10.15a10.18,10.18,0,0,0,4.23,8.73c2.31,1.7,5.21,2.41,8,3a3.17,3.17,0,0,0,3.8-2.15,3.11,3.11,0,0,0-2.16-3.8C150.63,177,146,176,147,171.09,147.49,168.41,149.08,166,150.33,163.58Z"/><path class="cls-1" d="M196.23,127.31a3.09,3.09,0,1,0,5.34-3.12,18.64,18.64,0,0,0-11.44-9,18.43,18.43,0,0,0-15.24,2.85,3.18,3.18,0,0,0-1.11,4.23,3.12,3.12,0,0,0,4.23,1.11,12.1,12.1,0,0,1,18.22,3.89Z"/><path class="cls-1" d="M136.83,123.18a3.1,3.1,0,0,0-1.11-4.22,23.21,23.21,0,0,0-29.22,8,3.09,3.09,0,0,0,5.34,3.12,16.39,16.39,0,0,1,9.39-6.6c.49-.14,1-.25,1.48-.35l.73-.13.44-.06a20,20,0,0,1,3.19-.06,10.51,10.51,0,0,1,1.18.11c.55.09,1.1.21,1.64.35a14.09,14.09,0,0,1,1.44.44,7.7,7.7,0,0,1,1.28.54A3.15,3.15,0,0,0,136.83,123.18Z"/><path class="cls-1" d="M128.32,136.88a2.65,2.65,0,0,0-.9-.78c-1.35-.71-3.53-.46-4.23,1.11a20.36,20.36,0,0,0-1.83,7.52,17.3,17.3,0,0,0,1.09,7,5.76,5.76,0,0,0,2.64,3.3,4.48,4.48,0,0,0,5-.67c1.86-1.64,2-4.34,1.8-6.62A38.72,38.72,0,0,0,130.3,139,3.33,3.33,0,0,0,128.32,136.88Z"/><path class="cls-1" d="M192.08,143.8a18.62,18.62,0,0,0-3.13-7,3.36,3.36,0,0,0-1.85-1.42,3.19,3.19,0,0,0-2.38.31,3.51,3.51,0,0,0-.55.47,3.19,3.19,0,0,0-1.07,1.57,29,29,0,0,0-1.3,7.57c-.09,2.58,0,5.68,2.08,7.55,2.5,2.27,6.69,1.93,8.09-1.4C192.94,149.11,192.58,146.17,192.08,143.8Z"/><path class="cls-1" d="M138.54,25.32c.91,3.86,6.87,2.23,6-1.65q-.69-3-1.28-5.94A69.13,69.13,0,0,1,161.48,28.9c3.21,2.75,6,6.94,10.81,5.6A31.47,31.47,0,0,0,177.5,32a64.47,64.47,0,0,1,6.29-2.67,70.13,70.13,0,0,1,51.43,1.41c3.61,1.58,6.76-3.74,3.12-5.33a76.63,76.63,0,0,0-52.17-3.36,74.51,74.51,0,0,0-12.54,5c-.7.35-2.19,1.53-3,1.47s-1.08-.6-1.63-1.13c-1.65-1.58-3.36-3.09-5.15-4.51a78.15,78.15,0,0,0-23.81-13c-2.45-.83-4.13,1.67-3.79,3.8Q137.19,19.57,138.54,25.32Z"/><path class="cls-1" d="M223.84,36.6a53.48,53.48,0,0,1,32.25,16.86c7.84,8.77,12.54,21,9.78,32.74-.91,3.87,5.05,5.52,6,1.64,6.74-28.63-20-53.36-46.34-57.2C221.6,30.07,219.92,36,223.84,36.6Z"/><path class="cls-1" d="M173.37,65.87c2.09-3.4-3.25-6.5-5.33-3.12-6.09,9.85-12.12,19.9-20,28.42a57.45,57.45,0,0,1-12.72,10.54c-4.6,2.71-11,5.7-16.47,4.87-3.89-.6-5.57,5.35-1.64,6,12.54,1.92,25.3-6.9,33.64-15.36C159.87,88,166.62,76.79,173.37,65.87Z"/><path class="cls-1" d="M200.46,101c-5.55-2.4-10.27-6.12-14.76-10.12a57.4,57.4,0,0,1-6.25-6,12.1,12.1,0,0,1-1.9-3,4.49,4.49,0,0,1-.25-3.13c1-3.84-4.94-5.49-6-1.64-1.93,7.28,4.12,12.87,9,17.26,5.15,4.65,10.59,9.21,17,12a3.19,3.19,0,0,0,4.23-1.1C202.33,103.9,202,101.65,200.46,101Z"/><path class="cls-1" d="M216.16,108.66a3.09,3.09,0,0,0,3.11-5.33,32,32,0,0,1-9.67-8.4,35.08,35.08,0,0,1-3.5-5.74,22,22,0,0,1-1.18-2.83c-.39-1.12-.72-2.25-1-3.39A3.09,3.09,0,1,0,198,84.61,38.28,38.28,0,0,0,216.16,108.66Z"/><path class="cls-1" d="M333.1,14.87c-6.34-6.3-16.53-6.06-24.24-2.68a28.51,28.51,0,0,0-16.37,19.92c-.8,3.88,5.16,5.54,6,1.64a22.52,22.52,0,0,1,11.91-15.46c6.06-3.13,15.41-3.79,19.69,2.55,4.06,6,1.8,13.76-3.79,17.91s-14.12,4-17.9,10.92c-2.26,4.13-2.28,9.21-2.51,13.8-.28,5.49-.25,11,0,16.49.2,4,6.38,4,6.18,0-.27-5.5-.3-11,0-16.49.22-4.35-.13-10.26,3.82-13.11,3.21-2.32,7.44-3,10.95-4.72a21.67,21.67,0,0,0,9-8.48C339.82,30.06,339,20.73,333.1,14.87Z"/><path class="cls-1" d="M315.1,98.09A6.54,6.54,0,0,0,313.48,97l-.51-.19s0-.07,0-.1a3.13,3.13,0,0,0-1.41-1.85,3.52,3.52,0,0,0-2.39-.31,6.21,6.21,0,0,0-2.07.83,7.15,7.15,0,0,0-1.71,1.44,7.9,7.9,0,0,0-1.23,1.86,11.11,11.11,0,0,0-.53,1.35,11.35,11.35,0,0,0-.25,1.53,6.43,6.43,0,0,0,1.06,4.24,6.24,6.24,0,0,0,3.95,2.67,7.56,7.56,0,0,0,2.51.07,8.11,8.11,0,0,0,2.34-.71,6.26,6.26,0,0,0,3-2.78,6.51,6.51,0,0,0,.71-2.73,5.82,5.82,0,0,0-.64-2.65A5.29,5.29,0,0,0,315.1,98.09Z"/><path class="cls-1" d="M51.55,180.48a22.5,22.5,0,0,1-11.91,15.45c-6.06,3.13-15.41,3.79-19.69-2.54-4.06-6-1.8-13.76,3.79-17.92,5.74-4.27,14.12-4,17.9-10.91,2.26-4.13,2.28-9.22,2.51-13.8a164.9,164.9,0,0,0,0-16.49c-.2-4-6.38-4-6.18,0a164.9,164.9,0,0,1,0,16.49c-.22,4.34.13,10.25-3.82,13.11-3.21,2.32-7.44,2.95-10.95,4.71a21.69,21.69,0,0,0-9,8.49c-4.06,7.09-3.23,16.42,2.66,22.28,6.34,6.3,16.53,6.07,24.24,2.68a28.52,28.52,0,0,0,16.37-19.91C58.31,178.24,52.35,176.58,51.55,180.48Z"/><path class="cls-1" d="M34.9,116.14a6.25,6.25,0,0,0,1.62,1.12,5.27,5.27,0,0,0,.51.19s0,.07,0,.11a3.11,3.11,0,0,0,1.42,1.84,3.43,3.43,0,0,0,2.38.31,6,6,0,0,0,2.07-.83,6.89,6.89,0,0,0,1.71-1.43,8,8,0,0,0,1.23-1.87,7.1,7.1,0,0,0,.78-2.87,6.45,6.45,0,0,0-1.06-4.25,6.28,6.28,0,0,0-3.95-2.67,7.56,7.56,0,0,0-2.51-.06,7.79,7.79,0,0,0-2.34.7,6.29,6.29,0,0,0-3,2.79,6.43,6.43,0,0,0-.71,2.72,5.76,5.76,0,0,0,.64,2.65A5.21,5.21,0,0,0,34.9,116.14Z"/></svg>