<svg id="Layer_1" data-name="Layer 1" xmlns="http://www.w3.org/2000/svg" viewBox="0 0 250 250"><defs><style>.cls-1{fill:#5cfa9d;}.cls-2{fill:#282d40;}</style></defs><circle class="cls-1" cx="125" cy="125" r="125"/><path class="cls-2" d="M60.43,182.38v8H58.91l-4-4.83v4.83H53.13v-8h1.53l4,4.83v-4.83Z"/><path class="cls-2" d="M63.93,189.93a3.94,3.94,0,0,1-1.56-1.47,4.24,4.24,0,0,1,0-4.21,3.94,3.94,0,0,1,1.56-1.47,4.87,4.87,0,0,1,4.46,0,4.06,4.06,0,0,1,0,7.15,4.87,4.87,0,0,1-4.46,0Zm3.5-1.35a2.29,2.29,0,0,0,.89-.91,2.79,2.79,0,0,0,0-2.63,2.29,2.29,0,0,0-.89-.91,2.68,2.68,0,0,0-2.54,0A2.29,2.29,0,0,0,64,185a2.79,2.79,0,0,0,0,2.63,2.29,2.29,0,0,0,.89.91,2.68,2.68,0,0,0,2.54,0Z"/><path class="cls-2" d="M75.11,182.38H77v8H75.11Z"/><path class="cls-2" d="M86.12,182.38v8H84.61l-4-4.83v4.83H78.83v-8h1.52l4,4.83v-4.83Z"/><path class="cls-2" d="M88,182.38h1.84v8H88Z"/><path class="cls-2" d="M93.34,189.94a3.89,3.89,0,0,1-1.54-1.47,4.21,4.21,0,0,1,0-4.23,3.89,3.89,0,0,1,1.54-1.47,4.63,4.63,0,0,1,2.21-.53,4.69,4.69,0,0,1,1.87.37,3.81,3.81,0,0,1,1.4,1l-1.18,1.09a2.54,2.54,0,0,0-2-.93,2.74,2.74,0,0,0-1.32.32,2.38,2.38,0,0,0-.9.91,2.86,2.86,0,0,0,0,2.63,2.38,2.38,0,0,0,.9.91,2.74,2.74,0,0,0,1.32.32,2.55,2.55,0,0,0,2-.94l1.18,1.09a3.68,3.68,0,0,1-1.41,1,4.69,4.69,0,0,1-1.87.37A4.62,4.62,0,0,1,93.34,189.94Z"/><path class="cls-2" d="M100.06,182.38h1.84v8h-1.84Z"/><path class="cls-2" d="M109.94,188.85v1.48h-6.16v-8h6v1.48h-4.18v1.72h3.69V187h-3.69v1.84Z"/><path class="cls-2" d="M112.19,190.21a4.3,4.3,0,0,1-1.41-.66l.62-1.39a4.21,4.21,0,0,0,1.22.6A4.62,4.62,0,0,0,114,189a2.28,2.28,0,0,0,1.15-.23.71.71,0,0,0,.38-.62.57.57,0,0,0-.22-.47,1.54,1.54,0,0,0-.57-.3,9.12,9.12,0,0,0-.94-.25,12.55,12.55,0,0,1-1.48-.44,2.38,2.38,0,0,1-1-.69,1.85,1.85,0,0,1-.41-1.27,2.24,2.24,0,0,1,.37-1.26,2.57,2.57,0,0,1,1.13-.89,4.6,4.6,0,0,1,1.85-.33,5.67,5.67,0,0,1,1.48.19,4.35,4.35,0,0,1,1.28.52l-.57,1.39a4.51,4.51,0,0,0-2.2-.62,2.07,2.07,0,0,0-1.15.25.79.79,0,0,0-.37.66.67.67,0,0,0,.43.61,7.21,7.21,0,0,0,1.3.39,13,13,0,0,1,1.49.43,2.35,2.35,0,0,1,1,.68,1.81,1.81,0,0,1,.42,1.26,2.22,2.22,0,0,1-.38,1.25,2.67,2.67,0,0,1-1.14.89,4.69,4.69,0,0,1-1.86.33A6.56,6.56,0,0,1,112.19,190.21Z"/><path class="cls-2" d="M122.74,189.52a3.63,3.63,0,0,1-.95-2.69v-4.45h1.84v4.38c0,1.43.59,2.14,1.77,2.14a1.64,1.64,0,0,0,1.32-.52,2.41,2.41,0,0,0,.46-1.62v-4.38H129v4.45a3.75,3.75,0,0,1-6.25,2.69Z"/><path class="cls-2" d="M138.1,182.38v8h-1.51l-4-4.83v4.83h-1.82v-8h1.52l3.95,4.83v-4.83Z"/><path class="cls-2" d="M144.68,184.08a1.16,1.16,0,0,1,.16.59,1.07,1.07,0,0,1-.31.79,1.09,1.09,0,0,1-.79.3,1.06,1.06,0,0,1-1.1-1.09,1.74,1.74,0,0,1,.06-.45,5.19,5.19,0,0,1,.25-.68l.66-1.64h1.12l-.5,1.81A1,1,0,0,1,144.68,184.08Zm2.68,0a1.16,1.16,0,0,1,.16.59,1.07,1.07,0,0,1-.31.79,1.09,1.09,0,0,1-.79.3,1.06,1.06,0,0,1-1.1-1.09,1.74,1.74,0,0,1,.06-.45,5.19,5.19,0,0,1,.25-.68l.66-1.64h1.12l-.5,1.81A1,1,0,0,1,147.36,184.08Z"/><path class="cls-2" d="M149.76,190.21a4.36,4.36,0,0,1-1.42-.66l.63-1.39a4.15,4.15,0,0,0,1.21.6,4.62,4.62,0,0,0,1.41.23,2.32,2.32,0,0,0,1.16-.23.71.71,0,0,0,.38-.62.58.58,0,0,0-.23-.47,1.42,1.42,0,0,0-.56-.3c-.24-.08-.55-.16-.94-.25a12.79,12.79,0,0,1-1.49-.44,2.34,2.34,0,0,1-1-.69,1.85,1.85,0,0,1-.42-1.27,2.25,2.25,0,0,1,.38-1.26,2.52,2.52,0,0,1,1.13-.89,4.59,4.59,0,0,1,1.84-.33,5.69,5.69,0,0,1,1.49.19,4.18,4.18,0,0,1,1.27.52l-.56,1.39a4.52,4.52,0,0,0-2.21-.62,2.05,2.05,0,0,0-1.14.25.76.76,0,0,0-.37.66.65.65,0,0,0,.43.61,6.73,6.73,0,0,0,1.3.39,13.65,13.65,0,0,1,1.49.43,2.48,2.48,0,0,1,1,.68A1.81,1.81,0,0,1,155,188a2.14,2.14,0,0,1-.38,1.25,2.55,2.55,0,0,1-1.14.89,4.64,4.64,0,0,1-1.85.33A6.46,6.46,0,0,1,149.76,190.21Z"/><path class="cls-2" d="M161.49,182.73a2.85,2.85,0,0,1,1.2,4.06,2.64,2.64,0,0,1-1.2,1,4.51,4.51,0,0,1-1.84.35h-1.6v2.19h-1.84v-8h3.44A4.51,4.51,0,0,1,161.49,182.73Zm-.68,3.55a1.42,1.42,0,0,0,0-2,1.91,1.91,0,0,0-1.26-.36h-1.5v2.76h1.5A1.91,1.91,0,0,0,160.81,186.28Z"/><path class="cls-2" d="M169.48,190.33l-1.54-2.21h-1.69v2.21h-1.84v-8h3.44a4.51,4.51,0,0,1,1.84.35,2.63,2.63,0,0,1,1.62,2.53,2.72,2.72,0,0,1-.43,1.53,2.63,2.63,0,0,1-1.21,1l1.78,2.56Zm-.47-6.09a1.93,1.93,0,0,0-1.26-.36h-1.5v2.77h1.5a1.93,1.93,0,0,0,1.26-.36,1.28,1.28,0,0,0,.43-1A1.25,1.25,0,0,0,169,184.24Z"/><path class="cls-2" d="M172.76,182.38h1.84v8h-1.84Z"/><path class="cls-2" d="M183.78,182.38v8h-1.51l-4-4.83v4.83h-1.82v-8H178l4,4.83v-4.83Z"/><path class="cls-2" d="M187.31,183.88h-2.55v-1.5h6.93v1.5h-2.54v6.45h-1.84Z"/><path class="cls-2" d="M194.29,182.11a1,1,0,0,1,.31.79,1.82,1.82,0,0,1-.06.46,6.59,6.59,0,0,1-.24.68l-.66,1.63h-1.12l.49-1.79a1,1,0,0,1-.45-.38,1.11,1.11,0,0,1-.15-.6,1,1,0,0,1,.31-.79,1.09,1.09,0,0,1,.79-.3A1.06,1.06,0,0,1,194.29,182.11Zm2.68,0a1.09,1.09,0,0,1,.31.79,1.82,1.82,0,0,1-.06.46,6.59,6.59,0,0,1-.24.68l-.66,1.63H195.2l.49-1.79a1,1,0,0,1-.45-.38,1.11,1.11,0,0,1-.15-.6,1,1,0,0,1,.31-.79,1.09,1.09,0,0,1,.79-.3A1.06,1.06,0,0,1,197,182.11Z"/><path class="cls-2" d="M58.52,203.84a4.17,4.17,0,0,1-1.42-.67l.63-1.38a4.15,4.15,0,0,0,1.21.6,4.62,4.62,0,0,0,1.41.23,2.21,2.21,0,0,0,1.16-.24.69.69,0,0,0,.37-.62.6.6,0,0,0-.22-.47,1.79,1.79,0,0,0-.57-.3c-.23-.07-.54-.16-.93-.25a11.25,11.25,0,0,1-1.49-.43,2.28,2.28,0,0,1-1-.69,1.85,1.85,0,0,1-.42-1.27,2.23,2.23,0,0,1,.38-1.26,2.52,2.52,0,0,1,1.13-.89,4.59,4.59,0,0,1,1.84-.33,6.14,6.14,0,0,1,1.49.18,4.57,4.57,0,0,1,1.27.52L62.8,198a4.48,4.48,0,0,0-2.2-.62,2.05,2.05,0,0,0-1.14.25.74.74,0,0,0-.37.66.63.63,0,0,0,.43.6,6,6,0,0,0,1.3.4,11.05,11.05,0,0,1,1.48.43,2.45,2.45,0,0,1,1,.68,1.85,1.85,0,0,1,.41,1.26,2.11,2.11,0,0,1-.38,1.24,2.48,2.48,0,0,1-1.14.89,4.64,4.64,0,0,1-1.85.33A6.45,6.45,0,0,1,58.52,203.84Z"/><path class="cls-2" d="M65,196h1.84v8H65Z"/><path class="cls-2" d="M76,196v8H74.48l-4-4.83V204H68.7v-8h1.52l4,4.82V196Z"/><path class="cls-2" d="M82,203.15a3.59,3.59,0,0,1-1-2.69V196h1.84v4.38c0,1.42.59,2.14,1.77,2.14A1.69,1.69,0,0,0,86,202a2.41,2.41,0,0,0,.45-1.62V196h1.82v4.45a3.63,3.63,0,0,1-1,2.69,4.21,4.21,0,0,1-5.3,0Z"/><path class="cls-2" d="M97.33,196v8H95.82l-4-4.83V204H90v-8h1.52l4,4.82V196Z"/><path class="cls-2" d="M103.9,197.71a1,1,0,0,1,.16.59,1,1,0,0,1-.31.79,1.06,1.06,0,0,1-.78.3,1.09,1.09,0,0,1-.79-.3,1.06,1.06,0,0,1-.31-.79,1.74,1.74,0,0,1,.06-.45,4,4,0,0,1,.25-.68l.65-1.64H104l-.5,1.81A.89.89,0,0,1,103.9,197.71Zm2.68,0a1,1,0,0,1,.16.59,1,1,0,0,1-.31.79,1.06,1.06,0,0,1-.78.3,1.09,1.09,0,0,1-.79-.3,1.06,1.06,0,0,1-.31-.79,1.74,1.74,0,0,1,.06-.45,4,4,0,0,1,.25-.68l.65-1.64h1.13l-.5,1.81A.89.89,0,0,1,106.58,197.71Z"/><path class="cls-2" d="M109,203.84a4.21,4.21,0,0,1-1.41-.67l.62-1.38a4.21,4.21,0,0,0,1.22.6,4.62,4.62,0,0,0,1.41.23,2.21,2.21,0,0,0,1.16-.24.69.69,0,0,0,.37-.62.6.6,0,0,0-.22-.47,1.91,1.91,0,0,0-.57-.3c-.23-.07-.54-.16-.94-.25a11.05,11.05,0,0,1-1.48-.43,2.38,2.38,0,0,1-1-.69,1.9,1.9,0,0,1-.41-1.27,2.22,2.22,0,0,1,.37-1.26,2.57,2.57,0,0,1,1.13-.89,4.64,4.64,0,0,1,1.85-.33,6.2,6.2,0,0,1,1.49.18,4.57,4.57,0,0,1,1.27.52l-.57,1.4a4.48,4.48,0,0,0-2.2-.62,2,2,0,0,0-1.14.25.74.74,0,0,0-.37.66.63.63,0,0,0,.42.6,6.37,6.37,0,0,0,1.3.4,11.25,11.25,0,0,1,1.49.43,2.35,2.35,0,0,1,1,.68,1.81,1.81,0,0,1,.42,1.26,2.19,2.19,0,0,1-.38,1.24,2.59,2.59,0,0,1-1.14.89,4.67,4.67,0,0,1-1.85.33A6.57,6.57,0,0,1,109,203.84Z"/><path class="cls-2" d="M120.71,196.36a2.7,2.7,0,0,1,1.2,1,3,3,0,0,1,0,3.06,2.64,2.64,0,0,1-1.2,1,4.46,4.46,0,0,1-1.83.34h-1.6V204h-1.84v-8h3.44A4.3,4.3,0,0,1,120.71,196.36Zm-.67,3.55a1.25,1.25,0,0,0,.43-1,1.27,1.27,0,0,0-.43-1,2,2,0,0,0-1.26-.35h-1.5v2.76h1.5A1.93,1.93,0,0,0,120,199.91Z"/><path class="cls-2" d="M128.7,204l-1.53-2.22h-1.69V204h-1.84v-8h3.44a4.3,4.3,0,0,1,1.83.35,2.7,2.7,0,0,1,1.2,1,2.71,2.71,0,0,1-1.21,4l1.78,2.56Zm-.46-6.1a2,2,0,0,0-1.26-.35h-1.5v2.77H127a1.88,1.88,0,0,0,1.26-.37,1.25,1.25,0,0,0,.43-1A1.27,1.27,0,0,0,128.24,197.86Z"/><path class="cls-2" d="M132,196h1.83v8H132Z"/><path class="cls-2" d="M143,196v8h-1.51l-4-4.83V204h-1.82v-8h1.52l4,4.82V196Z"/><path class="cls-2" d="M146.53,197.51H144V196h6.93v1.5h-2.55V204h-1.84Z"/><path class="cls-2" d="M160.49,199.86h1.68v3.22a4.59,4.59,0,0,1-1.5.75,5.64,5.64,0,0,1-1.71.26,4.67,4.67,0,0,1-2.23-.52,4,4,0,0,1-1.55-1.47,4.29,4.29,0,0,1,0-4.24,4,4,0,0,1,1.56-1.46,4.79,4.79,0,0,1,2.25-.53,5,5,0,0,1,1.9.35,3.89,3.89,0,0,1,1.43,1l-1.18,1.09a2.74,2.74,0,0,0-2.06-.9,2.7,2.7,0,0,0-1.35.32,2.32,2.32,0,0,0-.92.89,2.83,2.83,0,0,0,0,2.65,2.25,2.25,0,0,0,.91.9,2.69,2.69,0,0,0,1.34.33,3,3,0,0,0,1.43-.34Z"/><path class="cls-2" d="M165.49,203.56a4,4,0,0,1-2.12-3.58,3.94,3.94,0,0,1,.57-2.1,3.85,3.85,0,0,1,1.55-1.47,4.87,4.87,0,0,1,4.46,0,3.85,3.85,0,0,1,1.55,1.47,3.94,3.94,0,0,1,.57,2.1,4,4,0,0,1-2.12,3.58,5,5,0,0,1-4.46,0ZM169,202.2a2.33,2.33,0,0,0,.89-.9,2.74,2.74,0,0,0,.32-1.32,2.67,2.67,0,0,0-.32-1.31,2.43,2.43,0,0,0-.89-.91,2.61,2.61,0,0,0-1.28-.32,2.58,2.58,0,0,0-1.27.32,2.36,2.36,0,0,0-.89.91,2.57,2.57,0,0,0-.32,1.31,2.63,2.63,0,0,0,.32,1.32,2.27,2.27,0,0,0,.89.9,2.48,2.48,0,0,0,1.27.33A2.52,2.52,0,0,0,169,202.2Z"/><path class="cls-2" d="M178.58,202.25h-3.69l-.71,1.71H172.3l3.54-8h1.82l3.55,8h-1.93Zm-.58-1.39-1.26-3.05-1.26,3.05Z"/><path class="cls-2" d="M182,196h1.84v6.45h4V204H182Z"/><path class="cls-2" d="M189.7,195.74a1.06,1.06,0,0,1,.3.79,1.73,1.73,0,0,1-.05.45,6.57,6.57,0,0,1-.24.69l-.66,1.63h-1.12l.48-1.79a1.08,1.08,0,0,1-.44-.38,1.14,1.14,0,0,1-.16-.6,1.07,1.07,0,0,1,.31-.79,1.11,1.11,0,0,1,.79-.3A1.09,1.09,0,0,1,189.7,195.74Zm2.68,0a1.06,1.06,0,0,1,.3.79,1.73,1.73,0,0,1-.05.45,6.57,6.57,0,0,1-.24.69l-.66,1.63h-1.12l.48-1.79a1.08,1.08,0,0,1-.44-.38,1.14,1.14,0,0,1-.16-.6,1,1,0,0,1,.32-.79,1.07,1.07,0,0,1,.78-.3A1.09,1.09,0,0,1,192.38,195.74Z"/><path class="cls-2" d="M179.25,58.06l-9.91-4.66h-.05a1.42,1.42,0,0,0,0-.16q-2.33-4.95-4.66-9.91a1.12,1.12,0,0,0-1.74-.22l-10,8.67a17.54,17.54,0,0,0-1.52,1.32c-.51.55-.35,1.12-.22,1.76l1.35,7.21c.35,1.86.71,3.72,1.06,5.58-.8.8-1.6,1.59-2.39,2.39a42.28,42.28,0,0,0-4.68-4.15,50.05,50.05,0,0,0-28.34-10,46.2,46.2,0,0,0-7.34.32A43.89,43.89,0,0,0,85.16,68.88,52.58,52.58,0,0,0,72.09,92.82c-2.57,10.2-2.69,21.45.81,31.44a35.14,35.14,0,0,0,8,13.09,48.58,48.58,0,0,0,11.91,8.82c8.5,4.56,18.45,7.47,28.15,7a41.32,41.32,0,0,0,24.43-9.6,51,51,0,0,0,15-21.81A55.39,55.39,0,0,0,163,93.93a44.65,44.65,0,0,0-10.31-22.26c.83-.85,1.67-1.69,2.5-2.53l12,2.26c.57.11,1.51.43,2.05.11a5.33,5.33,0,0,0,1.12-1.2l5.14-5.91,4-4.6A1.13,1.13,0,0,0,179.25,58.06ZM167,53.64c-3.68,4.18-7.6,8.16-11.55,12.11q-1.08-5.7-2.15-11.41l10-8.66C164.49,48.33,165.74,51,167,53.64Zm-8.27,32.6a52.55,52.55,0,0,1-10.23,51.23,40.43,40.43,0,0,1-21.18,12.64c-9,2-18.25.44-26.72-2.79C92,144,83.37,138.58,78.33,130.63c-5.65-8.91-6.7-20.34-5.37-30.6a53.82,53.82,0,0,1,9.49-24.52A41.86,41.86,0,0,1,103.3,60.13a42.9,42.9,0,0,1,7.5-1.72A47.83,47.83,0,0,1,139,63.7a43.32,43.32,0,0,1,10.61,7.91q-4.59,4.62-9.21,9.2a28.62,28.62,0,0,0-3-2.68,34.43,34.43,0,0,0-19.5-7,30.69,30.69,0,0,0-5.07.22l-.17,0h-.13a29.9,29.9,0,0,0-17.38,8.7,35.93,35.93,0,0,0-9,16.5A38,38,0,0,0,86.72,118a24.52,24.52,0,0,0,5.48,9,33.18,33.18,0,0,0,8.23,6.08,37.92,37.92,0,0,0,19.21,4.77,28.42,28.42,0,0,0,16.84-6.62c9.72-8,14.06-21.66,12.07-34a30.67,30.67,0,0,0-6.69-14.85q4.63-4.6,9.23-9.22A40.23,40.23,0,0,1,158.72,86.24ZM112.91,73.58a32.08,32.08,0,0,1,18.88,3.59,28.79,28.79,0,0,1,7,5.22l-6.08,6a18.24,18.24,0,0,0-2-1.75,23.26,23.26,0,0,0-13.1-4.7,20.92,20.92,0,0,0-3.45.14l-.17,0a.56.56,0,0,0-.13,0c-9,1.25-15.64,8.38-17.79,17a25.56,25.56,0,0,0,.43,14.55,18.74,18.74,0,0,0,9.17,10.12,25.61,25.61,0,0,0,13,3.27,19.37,19.37,0,0,0,11.42-4.41c6.63-5.41,9.57-14.63,8.26-23a20.86,20.86,0,0,0-4.16-9.66l3.54-3.49L140.28,84a26.68,26.68,0,0,1,4.78,8.47,35.15,35.15,0,0,1-7,34.22,27.05,27.05,0,0,1-14.29,8.42c-6,1.29-12.24.21-17.9-2S94.28,127.26,91,121.89c-3.73-6-4.42-13.73-3.46-20.62,1.63-11.77,8.87-23,20.6-26.63A29.18,29.18,0,0,1,112.91,73.58Zm1.42,10.73A20.66,20.66,0,0,1,131.1,90l-5.17,5.11-1.34,1.31a11.1,11.1,0,0,0-8.93-3l-.15,0h-.14a10.9,10.9,0,0,0-8.81,8.55,12.46,12.46,0,0,0,.28,7.18,9.43,9.43,0,0,0,4.55,5c3.88,2.09,8.55,2.27,12.1-.58a12.34,12.34,0,0,0,4.13-11.3,10.22,10.22,0,0,0-1.6-4.13q3.29-3.23,6.56-6.46a17,17,0,0,1,2.7,4.93A23,23,0,0,1,130.71,119a17.64,17.64,0,0,1-9.42,5.53,20.71,20.71,0,0,1-11.58-1.32c-3.81-1.45-7.61-3.89-9.78-7.43-2.38-3.91-2.82-8.89-2.21-13.35a23.14,23.14,0,0,1,5-11.8A18.45,18.45,0,0,1,114.33,84.31Zm10.77,16.86A10.23,10.23,0,0,1,123,111c-2.44,2.67-5.91,3.08-9.2,1.85a8.62,8.62,0,0,1-4.33-3.24,9.14,9.14,0,0,1-1-5.94c.55-4,3.23-7.37,7.32-8A9.33,9.33,0,0,1,123,97.93q-3.53,3.45-7.07,6.86c-1,1,.54,2.56,1.57,1.57,2.31-2.21,4.6-4.46,6.89-6.69A7.28,7.28,0,0,1,125.1,101.17Zm43.13-31.82L157,67.24c1.38-1.41,2.77-2.82,4.14-4.23,2.44-2.5,4.89-5,7.21-7.61l8.52,4Z"/></svg>