<svg id="Layer_1" data-name="Layer 1" xmlns="http://www.w3.org/2000/svg" viewBox="0 0 350 350"><defs><style>.cls-1{fill:#282d40;}</style></defs><path class="cls-1" d="M339.15,54.14l-30-14.09c-.05,0-.1,0-.15-.06a2.75,2.75,0,0,0-.17-.45q-7-15-14.09-30c-1-2.09-3.78-2-5.27-.68L259.34,35.1a60.57,60.57,0,0,0-4.6,4c-1.53,1.65-1,3.39-.66,5.33l4.11,21.8,3.18,16.89q-3.63,3.62-7.23,7.23A126.68,126.68,0,0,0,240,77.8c-24.41-18.64-55.11-29.2-85.75-30.3a137.23,137.23,0,0,0-22.2,1A132.82,132.82,0,0,0,54.46,86.87c-19.53,19.91-32.75,45.52-39.54,72.45-7.78,30.85-8.14,64.89,2.44,95.11a106.88,106.88,0,0,0,24.09,39.62,146.46,146.46,0,0,0,36,26.67c25.71,13.82,55.8,22.6,85.17,21.2a125.13,125.13,0,0,0,73.92-29.07c20.82-17.26,36.1-40.68,45.32-66a167.79,167.79,0,0,0,8-84.2,135.3,135.3,0,0,0-31.21-67.35c2.53-2.55,5.06-5.09,7.58-7.65l36.3,6.84c1.74.33,4.58,1.31,6.21.35,1.34-.8,2.39-2.5,3.39-3.64l15.56-17.88,12.11-13.92C341.12,57.93,341.24,55.12,339.15,54.14ZM302,40.76c-11.12,12.65-23,24.7-34.94,36.64q-3.25-17.25-6.5-34.51l30.12-26.21Q296.38,28.73,302,40.76Zm-25,98.65c9.83,27.66,10.76,58.18,4.08,86.67-5.9,25.13-17.68,49.09-35,68.32-17,18.88-39.17,32.73-64.09,38.24-27.07,6-55.22,1.33-80.83-8.44-26.16-10-52.11-26.44-67.36-50.5-17.09-26.95-20.28-61.53-16.24-92.58,3.45-26.52,13-52.45,28.7-74.18s37.65-38.3,63.08-46.54a129,129,0,0,1,22.71-5.19,144.5,144.5,0,0,1,85.21,16,129.91,129.91,0,0,1,32.1,23.94Q235.47,109.1,221.51,123a86.19,86.19,0,0,0-9.11-8.13,104.25,104.25,0,0,0-59-21.11,95,95,0,0,0-15.36.66c-.19,0-.35.08-.52.12s-.25,0-.37,0a90.61,90.61,0,0,0-52.6,26.32C71.12,134.56,62,152.23,57.42,170.79c-5.23,21-5.45,44.18,1.75,64.75a73.67,73.67,0,0,0,16.6,27.33,100.14,100.14,0,0,0,24.9,18.4c17.56,9.39,38.09,15.38,58.12,14.44a86.25,86.25,0,0,0,50.93-20c29.41-24.38,42.55-65.55,36.53-102.76A93,93,0,0,0,226,128q14-13.9,27.9-27.89A120.8,120.8,0,0,1,277,139.41Zm-138.6-38.33A97.26,97.26,0,0,1,195.55,112a87.14,87.14,0,0,1,21.18,15.81q-9.18,9.12-18.4,18.19a57.9,57.9,0,0,0-6-5.28,70.44,70.44,0,0,0-39.62-14.23,64,64,0,0,0-10.45.43,2.82,2.82,0,0,0-.52.12c-.13,0-.25,0-.37,0-27.37,3.77-47.32,25.36-53.83,51.52-3.55,14.26-3.69,30.05,1.28,44,4.89,13.71,15.08,23.8,27.75,30.63,11.83,6.39,25.71,10.48,39.24,9.9a58.53,58.53,0,0,0,34.56-13.36c20.07-16.36,29-44.26,25-69.46A62.87,62.87,0,0,0,202.8,151q5.35-5.3,10.71-10.59,3.87-3.82,7.72-7.67a81.11,81.11,0,0,1,14.48,25.64c11.95,34.77,3.44,76.31-21.31,103.53-11.51,12.67-26.44,21.88-43.25,25.49-18.16,3.89-37,.61-54.16-6-17.52-6.75-34.94-17.91-45-34.14-11.3-18.21-13.36-41.54-10.47-62.39,4.93-35.62,26.83-69.5,62.33-80.57A91.78,91.78,0,0,1,138.41,101.08Zm4.3,32.47c18.57-2.14,37.8,4.27,50.76,17.19-5.22,5.15-10.42,10.32-15.66,15.46l-4.06,4a33.49,33.49,0,0,0-27-9.17c-.16,0-.31.07-.46.1s-.28,0-.43,0c-13.6,2-23.55,12.78-26.67,25.86-1.68,7.06-1.72,14.89.86,21.74s7.5,11.69,13.76,15.05c11.75,6.32,25.89,6.88,36.61-1.74,10-8,14.39-21.76,12.51-34.21a30.66,30.66,0,0,0-4.86-12.48q10-9.75,19.87-19.54a51.62,51.62,0,0,1,8.17,14.89c7.91,22.77,2.41,50.06-13.82,67.92a53.5,53.5,0,0,1-28.52,16.72c-11.75,2.46-24,.27-35-4-11.51-4.41-23-11.78-29.57-22.49C91.94,217,90.62,202,92.46,188.48c1.75-12.9,6.77-25.72,15.24-35.7A55.91,55.91,0,0,1,142.71,133.55Zm32.59,51A31,31,0,0,1,169,214.19c-7.4,8.09-17.87,9.34-27.84,5.6-5.06-1.9-10.22-5.13-13.1-9.81-3.24-5.24-3.82-12-3-18,1.67-12.19,9.78-22.29,22.15-24.31a28.16,28.16,0,0,1,21.87,7.07q-10.65,10.42-21.38,20.77c-3.12,3,1.63,7.74,4.75,4.75,7-6.71,13.91-13.49,20.84-20.26A23,23,0,0,1,175.3,184.57ZM305.81,88.3,271.9,81.91q6.28-6.39,12.54-12.8c7.37-7.57,14.8-15.13,21.82-23L332,58.18Z"/></svg>