<svg id="Layer_1" data-name="Layer 1" xmlns="http://www.w3.org/2000/svg" viewBox="0 0 250 250"><defs><style>.cls-1{fill:#5cfa9d;}.cls-2{fill:#282d40;}</style></defs><circle class="cls-1" cx="125" cy="125" r="125"/><path class="cls-2" d="M102,179.34v7.94h-1.51l-4-4.82v4.82H94.71v-7.94h1.52l4,4.82v-4.82Z"/><path class="cls-2" d="M105.5,186.89a4.06,4.06,0,0,1,0-7.16,5,5,0,0,1,4.46,0,4.06,4.06,0,0,1,0,7.16,5,5,0,0,1-4.46,0Zm3.5-1.36a2.43,2.43,0,0,0,.9-.9,2.88,2.88,0,0,0,0-2.64,2.43,2.43,0,0,0-2.17-1.22,2.47,2.47,0,0,0-1.27.32,2.4,2.4,0,0,0-.89.9,2.88,2.88,0,0,0,0,2.64,2.4,2.4,0,0,0,.89.9,2.47,2.47,0,0,0,1.27.32A2.45,2.45,0,0,0,109,185.53Z"/><path class="cls-2" d="M122.84,185.81v1.47h-6.16v-7.94h6v1.47h-4.18v1.73h3.69V184h-3.69v1.84Z"/><path class="cls-2" d="M129.23,187.28l-1.92-2.76-1.88,2.76h-2.12l2.94-4-2.79-3.9h2.09l1.83,2.57,1.79-2.57h2l-2.77,3.83,3,4.11Z"/><path class="cls-2" d="M132.08,179.34h1.84v7.94h-1.84Z"/><path class="cls-2" d="M136.59,187.16a4.4,4.4,0,0,1-1.41-.66l.63-1.38a4.15,4.15,0,0,0,1.21.6,4.61,4.61,0,0,0,1.41.22,2.22,2.22,0,0,0,1.16-.23.69.69,0,0,0,.37-.62.59.59,0,0,0-.22-.47,1.91,1.91,0,0,0-.57-.3,9.56,9.56,0,0,0-.93-.25,12.44,12.44,0,0,1-1.49-.43,2.47,2.47,0,0,1-1-.69,1.93,1.93,0,0,1-.41-1.28,2.19,2.19,0,0,1,.37-1.25,2.51,2.51,0,0,1,1.13-.89,4.64,4.64,0,0,1,1.85-.33,6.2,6.2,0,0,1,1.49.18,4.57,4.57,0,0,1,1.27.52l-.57,1.4a4.39,4.39,0,0,0-2.2-.63,2.09,2.09,0,0,0-1.14.25.76.76,0,0,0-.37.66.64.64,0,0,0,.42.61,7.21,7.21,0,0,0,1.3.39,14.64,14.64,0,0,1,1.49.43,2.57,2.57,0,0,1,1,.69,1.85,1.85,0,0,1,.41,1.26,2.21,2.21,0,0,1-.38,1.24,2.55,2.55,0,0,1-1.14.89,4.67,4.67,0,0,1-1.85.33A6.23,6.23,0,0,1,136.59,187.16Z"/><path class="cls-2" d="M144.58,180.83H142v-1.49H149v1.49h-2.55v6.45h-1.84Z"/><path class="cls-2" d="M156.11,185.81v1.47H150v-7.94h6v1.47h-4.18v1.73h3.69V184h-3.69v1.84Z"/><path class="cls-2" d="M76.56,194.46H74V193h6.92v1.5H78.4v6.45H76.56Z"/><path class="cls-2" d="M81.93,193h1.84v7.95H81.93Z"/><path class="cls-2" d="M91.81,199.44v1.47H85.66V193h6v1.48H87.48v1.72h3.7v1.44h-3.7v1.84Z"/><path class="cls-2" d="M100.51,200.91v-4.77l-2.34,3.93h-.83L95,196.24v4.67H93.28V193H94.8l3,4.94L100.7,193h1.51l0,7.95Z"/><path class="cls-2" d="M109.4,193.31a2.64,2.64,0,0,1,1.61,2.54,2.73,2.73,0,0,1-.42,1.52,2.67,2.67,0,0,1-1.19,1,4.51,4.51,0,0,1-1.84.35H106v2.19h-1.84V193h3.44A4.51,4.51,0,0,1,109.4,193.31Zm-.68,3.55a1.23,1.23,0,0,0,.43-1,1.25,1.25,0,0,0-.43-1,1.93,1.93,0,0,0-1.26-.36H106v2.76h1.5A1.93,1.93,0,0,0,108.72,196.86Z"/><path class="cls-2" d="M114.05,200.51A3.85,3.85,0,0,1,112.5,199a3.94,3.94,0,0,1-.57-2.1,4,4,0,0,1,2.12-3.58,5,5,0,0,1,4.46,0,3.94,3.94,0,0,1,2.12,3.58,4,4,0,0,1-.56,2.1,3.94,3.94,0,0,1-1.56,1.47,4.87,4.87,0,0,1-4.46,0Zm3.51-1.35a2.43,2.43,0,0,0,.89-.91,2.67,2.67,0,0,0,.32-1.31,2.71,2.71,0,0,0-.32-1.32,2.33,2.33,0,0,0-.89-.9,2.52,2.52,0,0,0-1.28-.33,2.48,2.48,0,0,0-1.27.33,2.27,2.27,0,0,0-.89.9,2.61,2.61,0,0,0-.32,1.32,2.57,2.57,0,0,0,.32,1.31,2.36,2.36,0,0,0,.89.91,2.58,2.58,0,0,0,1.27.32A2.61,2.61,0,0,0,117.56,199.16Z"/><path class="cls-2" d="M132.47,200.91v-4.77l-2.34,3.93h-.83L127,196.24v4.67h-1.73V193h1.52l3,4.94,2.93-4.94h1.51l0,7.95Z"/><path class="cls-2" d="M137,200.11a3.66,3.66,0,0,1-1-2.7V193h1.84v4.39q0,2.13,1.77,2.13a1.64,1.64,0,0,0,1.32-.52,2.4,2.4,0,0,0,.45-1.61V193h1.82v4.45a3.29,3.29,0,0,1-3.6,3.64A3.62,3.62,0,0,1,137,200.11Z"/><path class="cls-2" d="M151.18,199.44v1.47H145V193h6v1.48h-4.18v1.72h3.7v1.44h-3.7v1.84Z"/><path class="cls-2" d="M157.71,200.91l-1.53-2.21h-1.69v2.21h-1.84V193h3.44a4.49,4.49,0,0,1,1.83.35,2.63,2.63,0,0,1,1.62,2.54,2.61,2.61,0,0,1-.43,1.52,2.66,2.66,0,0,1-1.21,1l1.79,2.55Zm-.46-6.09a1.94,1.94,0,0,0-1.27-.36h-1.49v2.77H156a1.94,1.94,0,0,0,1.27-.36,1.44,1.44,0,0,0,0-2.05Z"/><path class="cls-2" d="M162.53,194.46H160V193h6.93v1.5h-2.54v6.45h-1.84Z"/><path class="cls-2" d="M169.4,200.51a3.85,3.85,0,0,1-1.55-1.47,3.94,3.94,0,0,1-.57-2.1,4,4,0,0,1,2.12-3.58,5,5,0,0,1,4.46,0,3.94,3.94,0,0,1,2.12,3.58,4,4,0,0,1-.56,2.1,3.94,3.94,0,0,1-1.56,1.47,4.87,4.87,0,0,1-4.46,0Zm3.51-1.35a2.43,2.43,0,0,0,.89-.91,2.67,2.67,0,0,0,.32-1.31,2.71,2.71,0,0,0-.32-1.32,2.33,2.33,0,0,0-.89-.9,2.52,2.52,0,0,0-1.28-.33,2.48,2.48,0,0,0-1.27.33,2.27,2.27,0,0,0-.89.9,2.71,2.71,0,0,0-.32,1.32,2.67,2.67,0,0,0,.32,1.31,2.36,2.36,0,0,0,.89.91,2.58,2.58,0,0,0,1.27.32A2.61,2.61,0,0,0,172.91,199.16Z"/><path class="cls-2" d="M111.59,137.78c0-2.65.18-5.52-.63-8.08-1.36-4.27-5-7.53-8.09-10.61-1.58-1.57-3.18-3.13-4.82-4.65a29.87,29.87,0,0,0-3.8-3.21,4.9,4.9,0,0,0-5-.15,4.37,4.37,0,0,0-2.13,2.65c-.07-.19-.12-.39-.18-.62-.76-3-.66-6.37-.71-9.48-.09-5.06.11-10.17-.25-15.21a5.34,5.34,0,0,0-2.44-4.55,7,7,0,0,0-5-.51,5.58,5.58,0,0,0-4,4.23A15.36,15.36,0,0,0,74.32,91c0,1.59,0,3.19,0,4.78q0,8.75-.08,17.48l0,5a44.4,44.4,0,0,0,.06,4.47c.3,3,2.42,4.94,4.4,7a92.73,92.73,0,0,0,13,11.1l-.42,12.93a1.14,1.14,0,0,0,1.11,1.11l16,.08h2.3a1.12,1.12,0,0,0,1.11-1.11c0-3-.09-6-.13-9Q111.64,141.32,111.59,137.78ZM94.68,152.64H93.53c.06-2,.13-3.93.19-5.9l.15-4.63c0-.74.29-2-.27-2.62a11.8,11.8,0,0,0-1.71-1.23c-.67-.48-1.34-1-2-1.48q-1.86-1.43-3.64-3a88.11,88.11,0,0,1-6.72-6.39,11.52,11.52,0,0,1-2.81-3.6,13.31,13.31,0,0,1-.31-4.63c0-3.43,0-6.87,0-10.3s0-7,0-10.49l0-5.16a26.89,26.89,0,0,1,.15-4.75c.43-2.38,2.42-3.47,4.75-3s2.39,2.86,2.44,4.91c.13,5.63.06,11.27.29,16.9.11,2.78,0,6.28,1.66,8.69a48.45,48.45,0,0,0,6.93,7.39q3.19,3,6.52,5.88l.37.32c1.08.93,2.66-.63,1.57-1.56-3.63-3.13-7.21-6.35-10.55-9.79-.48-.5-1-1-1.45-1.55-.28-1.51,0-3.26,1.62-3.8a2.91,2.91,0,0,1,2.76.64,87.26,87.26,0,0,1,8,7.5c2.78,2.79,6.34,5.85,7.34,9.8.58,2.28.38,4.79.42,7.13l.1,6.59c0,2.74.09,5.48.13,8.23Z"/><path class="cls-2" d="M175.76,117.54l-.08-17.67q0-4.43,0-8.83c0-2.2-.12-4.64-1.8-6.27-2.38-2.3-7.37-2.33-9.14.77-1.18,2-.84,4.84-.88,7.11q-.06,3.85-.09,7.73a91.75,91.75,0,0,1-.46,11.12,13.06,13.06,0,0,1-.47,2.24,4.43,4.43,0,0,0-1.55-2.26,4.9,4.9,0,0,0-5-.57,14.3,14.3,0,0,0-3.25,2.5c-1.61,1.45-3.18,3-4.72,4.48-3.08,3-6.45,6-8.49,9.91-1.38,2.61-1.37,5.44-1.42,8.33,0,2.33-.07,4.67-.11,7,0,3.57-.11,7.14-.16,10.7a1.12,1.12,0,0,0,1.11,1.11l16-.08h2.3a1.13,1.13,0,0,0,1.11-1.11l-.42-12.93a92.17,92.17,0,0,0,11.64-9.69c1-.93,1.87-1.88,2.78-2.85a14.45,14.45,0,0,0,2.28-2.89C176.19,123,175.77,120.07,175.76,117.54ZM173.19,124a12.35,12.35,0,0,1-2.75,3.45c-1.07,1.12-2.17,2.22-3.29,3.28a87.12,87.12,0,0,1-7.08,6.07l-1.86,1.39a9.27,9.27,0,0,0-1.94,1.43,1.55,1.55,0,0,0-.22,1.09c0,1.18.08,2.37.11,3.55l.27,8.4-14.89.08h-1.18c0-2.18.07-4.36.11-6.54.06-4.34,0-8.71.22-13.05a12.64,12.64,0,0,1,3.13-7.37A47.12,47.12,0,0,1,147.3,122c2.69-2.72,5.4-5.46,8.32-7.93.88-.75,1.75-1.56,3-1.38,2,.27,2.4,2.2,2.1,3.89l0,0a130.56,130.56,0,0,1-12,11.31c-1.09.93.49,2.49,1.57,1.56a116.08,116.08,0,0,0,12.11-11.46.93.93,0,0,0,.34-.39l.1-.12a10.22,10.22,0,0,0,2-3,17.48,17.48,0,0,0,.76-4.32c.43-5,.31-10,.37-15,0-1.67.05-3.34.1-5,0-1.2-.11-2.64.62-3.68.95-1.38,3.35-1.4,4.71-.73,2.61,1.27,2,5.11,2,7.48,0,3.5,0,7,0,10.49l.05,10.31c0,1.72,0,3.44,0,5.15C173.56,120.73,173.79,122.51,173.19,124Z"/><path class="cls-2" d="M152.69,77.1a27.06,27.06,0,0,0-10.1-17.24,31,31,0,0,0-17.49-6.24,27.68,27.68,0,0,0-4.55.2l-.17,0h-.12a27,27,0,0,0-15.66,7.85,32.44,32.44,0,0,0-8,14.81,34,34,0,0,0,.54,19.29c2.14,6,6.63,10.47,12.2,13.48a34.23,34.23,0,0,0,17.29,4.36,25.69,25.69,0,0,0,15.15-5.88C150.58,100.53,154.5,88.21,152.69,77.1ZM130.32,111c-5.36,1.16-10.94.18-16-1.78s-10.3-5.29-13.25-10.08c-3.3-5.35-3.9-12.17-3.07-18.29,1.42-10.5,7.87-20.51,18.31-23.8a27.42,27.42,0,0,1,4.36-1c12-1.43,24.58,5.1,28.64,16.75a31.36,31.36,0,0,1-6.26,30.68A24.1,24.1,0,0,1,130.32,111Z"/><path class="cls-2" d="M125.73,84.65a.36.36,0,0,1,0-.1h0C125.74,84.61,125.73,84.64,125.73,84.65Z"/><path class="cls-2" d="M123.41,83.51l0,0,0,0Z"/><path class="cls-2" d="M123.2,84.87c0-.16,0-.08,0,0Z"/><path class="cls-2" d="M124.64,83h0C124.49,83,124.47,83,124.64,83Z"/><path class="cls-2" d="M125.47,85.22h0a.35.35,0,0,1,0-.08S125.49,85.17,125.47,85.22Z"/><path class="cls-2" d="M125,83.14Z"/><path class="cls-2" d="M125.5,83.52c-.06-.09-.16-.13,0,0Z"/><path class="cls-2" d="M134.41,84,128,83.72h-.06a3.48,3.48,0,0,0-4.24-2.85L119,72.72c-.23-.41-.46-.81-.7-1.21a1.11,1.11,0,0,0-1.91,1.12q2.43,4.23,4.87,8.47l.54.93a3.87,3.87,0,0,0-.35.45,3.51,3.51,0,0,0-.54,2.09,3.56,3.56,0,0,0,6.64,1.57,1.47,1.47,0,0,0,.1-.22l5.86.29.93.05a1.11,1.11,0,0,0,1.11-1.11A1.13,1.13,0,0,0,134.41,84Zm-8.68.61a1.41,1.41,0,0,1-.06.22l0,.07,0,0-.1.16s0,0,0,.07h0s0,0,0,0,0,0,0,0l-.09.1-.1.08,0,0-.27.15-.12,0c-.08,0-.21,0-.29.07h-.32l-.29-.08h0l-.09,0-.17-.1h0c0-.07-.17-.15-.23-.21l-.09-.11-.15-.26s0,0,0,0,0,0,0,0a1.39,1.39,0,0,0-.06-.19,1.05,1.05,0,0,1-.05-.19,1.93,1.93,0,0,0,0-.34c0-.07,0-.13,0-.19a.88.88,0,0,0,0-.15l0,0,.06-.12.11-.15s-.08.06,0,0,0,0,0,0a0,0,0,0,1,0,0,0,0,0,0,0,0,0c0-.05.09-.11.14-.15l.09-.08.06,0a.41.41,0,0,1,.11-.07c.07,0,.36-.16,0,0l.17-.08h0l.12,0h.47l.31.08.12,0-.06,0h0l.26.16.13.13.09.1,0,0h0l.14.25a1.18,1.18,0,0,0,.07.2c0,.11,0,.45,0,.09,0,.11,0,.22,0,.33v.15l0-.05s0,0,0,.06A.25.25,0,0,1,125.73,84.65Z"/><path class="cls-2" d="M145.41,78.73a20.16,20.16,0,0,0-7.55-12.8A23,23,0,0,0,125,61.33h-.46a.65.65,0,0,0-.24,0l-.14,0a20.75,20.75,0,0,0-2.61.14.53.53,0,0,0-.17,0h-.12c-9,1.23-15.52,8.35-17.61,16.95a25.13,25.13,0,0,0,.5,14.4,18.62,18.62,0,0,0,9,9.86A25.36,25.36,0,0,0,126,105.94a19.11,19.11,0,0,0,11.3-4.4C143.88,96.15,146.77,87,145.41,78.73ZM137.86,98a17.46,17.46,0,0,1-9.22,5.43,16,16,0,0,1-3.23.34v-2.22a1.11,1.11,0,0,0-2.22,0v2.11a24.4,24.4,0,0,1-6.13-1.54c-3.72-1.44-7.45-3.83-9.57-7.29a18.89,18.89,0,0,1-2.43-10.16h2.35a1.11,1.11,0,1,0,0-2.22H105.2c0-.26.06-.53.1-.79a22.8,22.8,0,0,1,5-11.71,18.21,18.21,0,0,1,11.39-6.23c.5-.06,1-.11,1.5-.13v2a1.11,1.11,0,0,0,2.22,0V63.6c7.41.51,14.46,5,17,12.19a21.61,21.61,0,0,1,1.14,6.62h-2.46a1.11,1.11,0,0,0,0,2.22h2.41A22.5,22.5,0,0,1,137.86,98Z"/></svg>