<svg id="Layer_1" data-name="Layer 1" xmlns="http://www.w3.org/2000/svg" viewBox="0 0 350 350"><defs><style>.cls-1{fill:#282d40;}</style></defs><path class="cls-1" d="M130.86,285.28c-.13-8.75.6-18.17-2.07-26.6-4.46-14.07-16.47-24.78-26.63-34.91-5.19-5.19-10.44-10.32-15.83-15.31-4-3.67-8-7.58-12.51-10.57a16.2,16.2,0,0,0-16.29-.48,14.26,14.26,0,0,0-7,8.7,19.41,19.41,0,0,1-.6-2c-2.49-10-2.15-21-2.33-31.22-.3-16.63.35-33.45-.81-50-.42-6-2.6-11.88-8.06-15-4.69-2.66-11.15-3-16.28-1.68A18.35,18.35,0,0,0,9.17,120.12a51.23,51.23,0,0,0-.95,11.33c0,5.25-.05,10.49-.07,15.74Q8,176,7.89,204.73l-.07,16.35c0,4.87-.33,9.84.16,14.7,1,9.75,8,16.26,14.49,22.93a305.26,305.26,0,0,0,42.91,36.53q-.67,21.27-1.36,42.54a3.7,3.7,0,0,0,3.65,3.65l52.78.27,7.57,0a3.7,3.7,0,0,0,3.66-3.65q-.24-14.77-.46-29.53ZM75.24,334.16l-3.8,0q.32-9.72.62-19.43l.49-15.22c.08-2.45,1-6.63-.88-8.62-1.49-1.61-3.85-2.76-5.63-4q-3.32-2.4-6.56-4.89c-4.09-3.13-8.07-6.38-12-9.73a298.92,298.92,0,0,1-22.14-21c-3.33-3.51-7.54-7.21-9.24-11.86s-1-10.31-1-15.23l.15-33.91.15-34.52q0-8.47.08-17c0-5.13-.41-10.56.51-15.63,1.42-7.83,8-11.43,15.62-10,8.14,1.48,7.88,9.4,8,16.17.44,18.52.2,37.07.94,55.59.37,9.17.08,20.67,5.47,28.59,6.21,9.11,14.83,16.8,22.8,24.31q10.51,9.92,21.45,19.36l1.24,1.08c3.55,3,8.74-2.1,5.17-5.17C84.76,242.7,73,232.08,62,220.76c-1.59-1.64-3.22-3.36-4.78-5.09-.9-5-.16-10.73,5.32-12.5,3.48-1.13,6.45.08,9.09,2.12C81,212.5,89.6,221.53,98,230c9.16,9.17,20.87,19.24,24.17,32.25,1.91,7.49,1.24,15.76,1.36,23.45l.34,21.69q.21,13.53.41,27.07Z"/><path class="cls-1" d="M342.05,218.65l-.26-58.13c-.05-9.69-.07-19.38-.14-29.07,0-7.22-.41-15.26-5.93-20.61-7.83-7.59-24.24-7.68-30.09,2.52-3.88,6.75-2.74,15.92-2.87,23.39-.16,8.48-.23,17-.33,25.44-.13,12.16.1,24.54-1.5,36.61a39.93,39.93,0,0,1-1.56,7.38,14.52,14.52,0,0,0-5.07-7.47,16.23,16.23,0,0,0-16.38-1.86c-4,1.85-7.43,5.34-10.67,8.24-5.32,4.76-10.46,9.72-15.55,14.73-10.11,9.94-21.23,19.91-27.93,32.6-4.54,8.6-4.53,17.92-4.67,27.4l-.36,23.06-.54,35.21a3.7,3.7,0,0,0,3.65,3.65l52.78-.27,7.57,0a3.69,3.69,0,0,0,3.65-3.65q-.68-21.27-1.36-42.53a307.51,307.51,0,0,0,38.31-31.89q4.65-4.61,9.12-9.39c2.73-2.93,5.65-5.94,7.51-9.52C343.44,236.77,342.08,227,342.05,218.65Zm-8.47,21.17c-1.81,4.41-5.84,8-9.07,11.37q-5.26,5.54-10.8,10.79a289.33,289.33,0,0,1-23.31,20q-3,2.32-6.12,4.57c-2,1.42-4.89,2.81-6.37,4.73a5,5,0,0,0-.74,3.56q.19,5.85.38,11.69.43,13.83.88,27.65l-49,.26-3.86,0,.33-21.52c.22-14.29,0-28.67.73-42.94.49-9.41,4.52-17,10.3-24.26a152.64,152.64,0,0,1,11.47-12.26c8.84-8.95,17.76-18,27.36-26.11,2.9-2.45,5.78-5.11,10-4.53,6.54.9,7.89,7.25,6.91,12.82l-.14.16c-12,13.39-25.74,25.47-39.38,37.19-3.57,3.07,1.61,8.21,5.16,5.17,13.79-11.84,27.88-24,39.86-37.75a3,3,0,0,0,1.13-1.28l.33-.37c2.6-3.05,5.17-6.2,6.56-10,1.64-4.49,2.08-9.48,2.49-14.21,1.43-16.39,1-33,1.25-49.4q.1-8.25.3-16.51c.1-4-.34-8.68,2-12.12,3.14-4.54,11.05-4.6,15.52-2.41,8.58,4.2,6.56,16.82,6.59,24.63q.09,17.26.16,34.52l.15,33.92q0,8.47.08,16.95C334.79,229.15,335.55,235,333.58,239.82Z"/><path class="cls-1" d="M266.12,85.6C262.45,63.14,251,42.77,232.88,28.87A101.79,101.79,0,0,0,175.32,8.33,91.07,91.07,0,0,0,160.37,9a3.18,3.18,0,0,0-.57.13,2.67,2.67,0,0,0-.4,0A88.68,88.68,0,0,0,107.88,35C94.81,48.35,86,65.57,81.45,83.67c-5.12,20.6-5.33,43.34,1.79,63.5,7,19.88,21.8,34.46,40.14,44.35,17.16,9.26,37.25,15.18,56.87,14.33a84.34,84.34,0,0,0,49.86-19.34C259.17,162.7,272.08,122.15,266.12,85.6ZM192.52,197c-17.66,3.78-36,.56-52.67-5.88-17-6.55-33.89-17.41-43.6-33.17-10.84-17.61-12.84-40-10.11-60.17,4.7-34.56,25.89-67.51,60.28-78.34a89,89,0,0,1,14.34-3.2c39.34-4.7,80.87,16.81,94.24,55.15,11.8,33.87,3.58,74.41-20.59,101C223.25,184.6,208.8,193.5,192.52,197Z"/><path class="cls-1" d="M177.39,110.44l.09-.34v0C177.42,110.29,177.4,110.41,177.39,110.44Z"/><path class="cls-1" d="M169.76,106.68a.85.85,0,0,1-.1.18.32.32,0,0,0,.1-.19Z"/><path class="cls-1" d="M169.07,111.15c-.14-.53-.11-.27,0,0Z"/><path class="cls-1" d="M173.8,105.11l-.09,0C173.33,105,173.24,105.15,173.8,105.11Z"/><path class="cls-1" d="M176.55,112.31s0,0,0,0a1.1,1.1,0,0,1,.14-.26A.51.51,0,0,0,176.55,112.31Z"/><path class="cls-1" d="M175,105.47c-.26-.11-.59-.18,0,0Z"/><path class="cls-1" d="M176.64,106.72c-.21-.31-.51-.43,0,0Z"/><path class="cls-1" d="M206,108.43l-21.22-1.05h-.2a12.06,12.06,0,0,0-2.83-5.92A11.93,11.93,0,0,0,170.59,98q-7.71-13.41-15.43-26.83-1.14-2-2.3-4c-2.34-4.07-8.65-.4-6.3,3.69l16,27.88,1.76,3.06a13.1,13.1,0,0,0-1.13,1.48,11.44,11.44,0,0,0-1.79,6.9c.44,5,4,9.63,9,10.69a12,12,0,0,0,12.86-5.53c.13-.23.22-.48.33-.72l19.3,1,3.05.15a3.68,3.68,0,0,0,3.65-3.65A3.72,3.72,0,0,0,206,108.43Zm-28.58,2a5.8,5.8,0,0,1-.17.72s-.06.14-.09.24a.3.3,0,0,0,0,.08c-.08.15-.23.34-.36.53.05,0,.06,0-.12.23l0,0s-.07.09-.07.12,0,0,0-.08-.21.22-.32.32a3.85,3.85,0,0,1-.3.27l-.14.1c-.29.19-.59.34-.9.51l-.39.13c-.26.08-.68.11-.95.22l-.64,0-.42,0-1-.25h0a2.64,2.64,0,0,1-.29-.15,6.32,6.32,0,0,1-.56-.33h0a6.87,6.87,0,0,0-.75-.68c-.07-.08-.19-.24-.3-.36-.17-.28-.35-.55-.5-.85,0,0,0,0,0-.08a1.56,1.56,0,0,1,.05.16c-.05-.2-.15-.41-.21-.61s-.11-.41-.16-.61a7.23,7.23,0,0,0,0-1.14,6.42,6.42,0,0,1,.15-.63c0-.16.1-.32.15-.48l0-.09a2.93,2.93,0,0,1,.21-.39c.05-.09.23-.31.35-.5-.11.13-.25.19,0,0l.13-.14a.36.36,0,0,0,0-.07s0,0,0,.06c.16-.16.31-.34.47-.49l.29-.27.19-.12.37-.23c.23-.13,1.18-.53.13-.11l.55-.24.1,0,.41-.09a8.68,8.68,0,0,1,1.14,0,3.23,3.23,0,0,0,.53,0h-.14a8.64,8.64,0,0,1,1,.27l.4.15-.19-.06.09,0a7.52,7.52,0,0,1,.85.53l.43.41a3,3,0,0,0,.29.32l-.06,0h0a7.9,7.9,0,0,1,.46.8c0,.21.19.51.23.67.1.36.15,1.47.11.31,0,.36.06.71.06,1.08,0,.14,0,.28,0,.43s0,0,0,0,0-.1,0-.16,0,.12,0,.19S177.38,110.52,177.39,110.44Z"/><path class="cls-1" d="M242.15,91A66.17,66.17,0,0,0,217.3,48.85,75.67,75.67,0,0,0,175,33.69c-.52,0-1,0-1.55,0a3.21,3.21,0,0,0-.76-.07,3.46,3.46,0,0,0-.48.07,68.32,68.32,0,0,0-8.58.46,3.63,3.63,0,0,0-.57.13,2.67,2.67,0,0,0-.4,0c-29.56,4.07-51.06,27.49-57.95,55.77-3.75,15.4-3.83,32.41,1.66,47.4,5.32,14.51,16.22,25.18,29.67,32.43,12.76,6.88,27.71,11.28,42.28,10.63a63,63,0,0,0,37.2-14.5C237.12,148.28,246.62,118.12,242.15,91Zm-24.84,63.28A57.48,57.48,0,0,1,187,172.11a53.55,53.55,0,0,1-10.61,1.12v-7.3a3.66,3.66,0,1,0-7.31,0v6.92a80.26,80.26,0,0,1-20.19-5.06c-12.24-4.72-24.51-12.6-31.47-24-6-9.86-8.22-21.78-8-33.41h7.7a3.65,3.65,0,1,0,0-7.3h-7.25c.09-.88.19-1.76.31-2.62C112,86.54,117.46,72.7,126.63,62a60,60,0,0,1,37.48-20.54c1.65-.18,3.3-.33,4.94-.39v6.52a3.66,3.66,0,0,0,7.31,0V41.17c24.36,1.66,47.57,16.3,55.82,40.12A70.7,70.7,0,0,1,236,103.08h-8.1a3.65,3.65,0,0,0,0,7.3h7.92C234.52,126.52,228.15,142.33,217.31,154.24Z"/></svg>