<svg id="Layer_1" data-name="Layer 1" xmlns="http://www.w3.org/2000/svg" viewBox="0 0 500 121.54"><defs><style>.cls-1{fill:#011f3a;}</style></defs><path class="cls-1" d="M91,23a21.81,21.81,0,0,0-43.61,0v5.46H58.32V23A10.88,10.88,0,1,1,69.19,33.83H25.71V44.75H69.19A21.83,21.83,0,0,0,91,23Z"/><path class="cls-1" d="M79.38,98.42A10.88,10.88,0,1,1,68.5,87.54h53.78V76.62H68.5a21.8,21.8,0,1,0,21.81,21.8V93H79.38Z"/><rect class="cls-1" x="6.84" y="57.1" width="115.43" height="10.93"/><polygon class="cls-1" points="135.96 86.44 155.31 86.44 155.31 17.18 180.93 17.18 180.93 0.96 110.33 0.96 110.33 17.18 135.96 17.18 135.96 86.44"/><polygon class="cls-1" points="253.99 70.22 234.02 70.22 234.02 17.18 253.99 17.18 253.99 0.96 194.72 0.96 194.72 17.18 214.68 17.18 214.68 70.22 194.72 70.22 194.72 86.44 253.99 86.44 253.99 70.22"/><path class="cls-1" d="M296.57,1H273V86.44h24.71c23.71,0,40-13.73,40-43.14S321.37,1,296.57,1Zm-1.07,69.9h-3.2V16.54h3.2c13.3,0,22.34,6.35,22.34,26.76S308.8,70.86,295.5,70.86Z"/><path class="cls-1" d="M368.59,66.11h25.72l5.19,20.33H420L393.38,1H370.19L343.57,86.44h19.8Zm12.52-50.52h.53c2.05,9,4.66,19,6.82,27.57l2,7.88h-18l2-7.88C376.64,34.63,379,24.61,381.11,15.59Z"/><polygon class="cls-1" points="454.44 70.22 454.44 0.96 435.14 0.96 435.14 86.44 492.5 86.44 492.5 70.22 454.44 70.22"/><path class="cls-1" d="M121.25,108.82a21.65,21.65,0,0,0-2.71-.79,12,12,0,0,1-2.36-.71,1.18,1.18,0,0,1-.77-1.11,1.41,1.41,0,0,1,.66-1.2,3.82,3.82,0,0,1,2.08-.45,8.05,8.05,0,0,1,4,1.14l1-2.54a7.78,7.78,0,0,0-2.31-1,11.11,11.11,0,0,0-2.71-.33,8.51,8.51,0,0,0-3.35.59,4.64,4.64,0,0,0-2.06,1.63,4,4,0,0,0-.68,2.28,3.41,3.41,0,0,0,.75,2.31,4.44,4.44,0,0,0,1.81,1.26,24.35,24.35,0,0,0,2.71.78c.71.17,1.28.32,1.7.46a3,3,0,0,1,1,.55,1.06,1.06,0,0,1,.41.85,1.28,1.28,0,0,1-.69,1.13,4.08,4.08,0,0,1-2.1.42,8.4,8.4,0,0,1-2.56-.41,7.62,7.62,0,0,1-2.21-1.1l-1.14,2.52a7.78,7.78,0,0,0,2.57,1.21,11.84,11.84,0,0,0,3.32.47,8.59,8.59,0,0,0,3.36-.6,4.68,4.68,0,0,0,2.08-1.62,4,4,0,0,0,.69-2.27,3.34,3.34,0,0,0-.75-2.29A4.46,4.46,0,0,0,121.25,108.82Z"/><path class="cls-1" d="M127.49,100.33a2.05,2.05,0,0,0-1.45.51,1.71,1.71,0,0,0-.56,1.28,1.67,1.67,0,0,0,.56,1.28,2.25,2.25,0,0,0,2.89,0,1.75,1.75,0,0,0,.56-1.33,1.61,1.61,0,0,0-.56-1.24A2.08,2.08,0,0,0,127.49,100.33Z"/><rect class="cls-1" x="125.87" y="105.47" width="3.22" height="11.11"/><path class="cls-1" d="M138.92,110.37a19.29,19.29,0,0,0-2.23-.48,9.49,9.49,0,0,1-1.78-.4.72.72,0,0,1-.55-.72.84.84,0,0,1,.52-.74,3.26,3.26,0,0,1,1.54-.29,6.45,6.45,0,0,1,3.21.83l1.07-2.3a7,7,0,0,0-1.93-.71,11,11,0,0,0-2.35-.26,7.61,7.61,0,0,0-2.75.46,3.88,3.88,0,0,0-1.78,1.27,3,3,0,0,0-.61,1.87,2.72,2.72,0,0,0,.65,1.94,3.59,3.59,0,0,0,1.54,1,15.56,15.56,0,0,0,2.25.47,9,9,0,0,1,1.71.35.72.72,0,0,1,.56.68q0,1-2,1a7.56,7.56,0,0,1-2.07-.3,6.57,6.57,0,0,1-1.79-.78L131,115.55a7.08,7.08,0,0,0,2.1.85,10.65,10.65,0,0,0,2.71.34,8.17,8.17,0,0,0,2.81-.44,4,4,0,0,0,1.81-1.25,3,3,0,0,0,.62-1.84,2.67,2.67,0,0,0-.64-1.9A3.48,3.48,0,0,0,138.92,110.37Z"/><path class="cls-1" d="M148.05,114.18a1.3,1.3,0,0,1-1-.38,1.48,1.48,0,0,1-.37-1.08v-4.53h2.77v-2.47h-2.77V103h-3.22v2.71h-1.71v2.47h1.71v4.57a3.88,3.88,0,0,0,1.09,3,4.29,4.29,0,0,0,3.07,1,5.76,5.76,0,0,0,1.45-.17,3.36,3.36,0,0,0,1.16-.53l-.86-2.27A2,2,0,0,1,148.05,114.18Z"/><path class="cls-1" d="M159.74,106a6.53,6.53,0,0,0-6,0,5.5,5.5,0,0,0-2.13,2,6,6,0,0,0,0,5.9,5.42,5.42,0,0,0,2.23,2,7.25,7.25,0,0,0,3.33.73,5.76,5.76,0,0,0,4.58-1.79l-1.71-1.86a3.72,3.72,0,0,1-1.25.81,4.11,4.11,0,0,1-1.54.26,3.57,3.57,0,0,1-2.11-.6,2.62,2.62,0,0,1-1.07-1.63h8.4c.05-.54.06-.82.06-.86a5.92,5.92,0,0,0-.75-3A5,5,0,0,0,159.74,106Zm-5.68,4a2.62,2.62,0,0,1,.91-1.69,2.76,2.76,0,0,1,1.83-.62,2.7,2.7,0,0,1,1.82.63,2.64,2.64,0,0,1,.91,1.68Z"/><path class="cls-1" d="M178.94,105.3a5.39,5.39,0,0,0-2.28.48,4.39,4.39,0,0,0-1.72,1.34,3.83,3.83,0,0,0-1.53-1.35,4.82,4.82,0,0,0-2.13-.47,5.2,5.2,0,0,0-2,.37,4.06,4.06,0,0,0-1.52,1.08v-1.28h-3.08v11.11h3.22V111a3.13,3.13,0,0,1,.67-2.18,2.29,2.29,0,0,1,1.77-.73c1.41,0,2.11.88,2.11,2.63v5.86h3.22V111a3.17,3.17,0,0,1,.66-2.18,2.33,2.33,0,0,1,1.8-.73,1.92,1.92,0,0,1,1.55.65,3,3,0,0,1,.55,2v5.86h3.22v-6.36a5,5,0,0,0-1.23-3.69A4.45,4.45,0,0,0,178.94,105.3Z"/><path class="cls-1" d="M190.85,105.3a9.51,9.51,0,0,0-2.61.36,6.83,6.83,0,0,0-2.18,1l1.15,2.25a4.8,4.8,0,0,1,1.46-.76,5.81,5.81,0,0,1,1.75-.27,2.82,2.82,0,0,1,1.92.56,2,2,0,0,1,.64,1.62h-2.56a5.92,5.92,0,0,0-3.6.89,2.89,2.89,0,0,0-1.17,2.44,3.12,3.12,0,0,0,.49,1.73,3.31,3.31,0,0,0,1.44,1.2,5.2,5.2,0,0,0,2.22.43,3.59,3.59,0,0,0,3.39-1.55v1.39h3v-6.34a4.69,4.69,0,0,0-1.39-3.71A5.76,5.76,0,0,0,190.85,105.3Zm2.13,7.77a2.12,2.12,0,0,1-.91,1.12,2.77,2.77,0,0,1-1.46.39,2.22,2.22,0,0,1-1.34-.37,1.15,1.15,0,0,1-.48-1c0-.86.66-1.3,2-1.3H193Z"/><path class="cls-1" d="M215.91,103a9.22,9.22,0,0,0-4.16-.9h-6.57v14.46h6.57a9.22,9.22,0,0,0,4.16-.9,6.76,6.76,0,0,0,2.81-2.53,7.72,7.72,0,0,0,0-7.6A6.83,6.83,0,0,0,215.91,103Zm-.87,9.6a4.83,4.83,0,0,1-3.46,1.21h-3.05v-9h3.05a4.83,4.83,0,0,1,3.46,1.21,4.79,4.79,0,0,1,0,6.54Z"/><path class="cls-1" d="M230.06,106a6.13,6.13,0,0,0-2.95-.71,6.22,6.22,0,0,0-3,.74,5.5,5.5,0,0,0-2.13,2,6,6,0,0,0,0,5.9,5.42,5.42,0,0,0,2.23,2,7.24,7.24,0,0,0,3.32.73,5.8,5.8,0,0,0,4.59-1.79l-1.71-1.86a3.82,3.82,0,0,1-1.25.81,4.11,4.11,0,0,1-1.54.26,3.57,3.57,0,0,1-2.11-.6,2.62,2.62,0,0,1-1.07-1.63h8.4c0-.54.06-.82.06-.86a6,6,0,0,0-.75-3A5,5,0,0,0,230.06,106Zm-5.67,4a2.62,2.62,0,0,1,.91-1.69,2.76,2.76,0,0,1,1.83-.62,2.7,2.7,0,0,1,1.82.63,2.64,2.64,0,0,1,.91,1.68Z"/><path class="cls-1" d="M245.66,102.12l-6.45,14.46h3.43l1.28-3.1h6.71l1.28,3.1h3.51L249,102.12Zm-.67,8.82,2.3-5.53,2.29,5.53Z"/><path class="cls-1" d="M263.43,110.37a19.29,19.29,0,0,0-2.23-.48,9.49,9.49,0,0,1-1.78-.4.73.73,0,0,1-.56-.72.86.86,0,0,1,.52-.74,3.28,3.28,0,0,1,1.55-.29,6.42,6.42,0,0,1,3.2.83l1.07-2.3a6.77,6.77,0,0,0-1.92-.71,11.06,11.06,0,0,0-2.35-.26,7.67,7.67,0,0,0-2.76.46A3.79,3.79,0,0,0,256.4,107a3,3,0,0,0-.61,1.87,2.72,2.72,0,0,0,.65,1.94,3.48,3.48,0,0,0,1.54,1,15.27,15.27,0,0,0,2.25.47,9,9,0,0,1,1.71.35.73.73,0,0,1,.56.68c0,.68-.68,1-2.05,1a7.49,7.49,0,0,1-2.06-.3,6.78,6.78,0,0,1-1.8-.78l-1.07,2.32a7.27,7.27,0,0,0,2.11.85,10.63,10.63,0,0,0,2.7.34,8.19,8.19,0,0,0,2.82-.44,3.93,3.93,0,0,0,1.8-1.25,2.9,2.9,0,0,0,.62-1.84,2.67,2.67,0,0,0-.64-1.9A3.44,3.44,0,0,0,263.43,110.37Z"/><path class="cls-1" d="M269.17,100.33a2,2,0,0,0-1.44.51,1.71,1.71,0,0,0-.56,1.28,1.67,1.67,0,0,0,.56,1.28,2.25,2.25,0,0,0,2.89,0,1.74,1.74,0,0,0,.55-1.33,1.6,1.6,0,0,0-.55-1.24A2.09,2.09,0,0,0,269.17,100.33Z"/><rect class="cls-1" x="267.56" y="105.47" width="3.22" height="11.11"/><path class="cls-1" d="M280.61,110.37a19.29,19.29,0,0,0-2.23-.48,9.49,9.49,0,0,1-1.78-.4.72.72,0,0,1-.55-.72.84.84,0,0,1,.52-.74,3.26,3.26,0,0,1,1.54-.29,6.39,6.39,0,0,1,3.2.83l1.08-2.3a7,7,0,0,0-1.93-.71,11,11,0,0,0-2.35-.26,7.57,7.57,0,0,0-2.75.46,3.88,3.88,0,0,0-1.78,1.27,3,3,0,0,0-.61,1.87,2.72,2.72,0,0,0,.65,1.94,3.59,3.59,0,0,0,1.54,1,15.27,15.27,0,0,0,2.25.47,9,9,0,0,1,1.71.35.72.72,0,0,1,.56.68q0,1-2,1a7.56,7.56,0,0,1-2.07-.3,6.57,6.57,0,0,1-1.79-.78l-1.08,2.32a7.27,7.27,0,0,0,2.11.85,10.63,10.63,0,0,0,2.7.34,8.19,8.19,0,0,0,2.82-.44,4,4,0,0,0,1.81-1.25,3,3,0,0,0,.62-1.84,2.67,2.67,0,0,0-.64-1.9A3.48,3.48,0,0,0,280.61,110.37Z"/><path class="cls-1" d="M289.74,114.18a1.3,1.3,0,0,1-1-.38,1.48,1.48,0,0,1-.37-1.08v-4.53h2.77v-2.47h-2.77V103h-3.22v2.71h-1.71v2.47h1.71v4.57a3.91,3.91,0,0,0,1.08,3,4.33,4.33,0,0,0,3.08,1,5.76,5.76,0,0,0,1.45-.17,3.36,3.36,0,0,0,1.16-.53l-.86-2.27A2,2,0,0,1,289.74,114.18Z"/><path class="cls-1" d="M301.42,106a6.53,6.53,0,0,0-6,0,5.4,5.4,0,0,0-2.12,2,5.67,5.67,0,0,0-.78,2.94,5.56,5.56,0,0,0,.79,3,5.4,5.4,0,0,0,2.22,2,7.28,7.28,0,0,0,3.33.73,5.76,5.76,0,0,0,4.58-1.79l-1.71-1.86a3.72,3.72,0,0,1-1.25.81,4.08,4.08,0,0,1-1.54.26,3.52,3.52,0,0,1-2.1-.6,2.58,2.58,0,0,1-1.07-1.63h8.4c0-.54.06-.82.06-.86a6,6,0,0,0-.75-3A5.09,5.09,0,0,0,301.42,106Zm-5.68,4a2.66,2.66,0,0,1,.91-1.69,2.79,2.79,0,0,1,1.84-.62,2.67,2.67,0,0,1,2.73,2.31Z"/><path class="cls-1" d="M313.15,105.3a5.48,5.48,0,0,0-2.09.39,4.24,4.24,0,0,0-1.59,1.08v-1.3H306.4v11.11h3.22v-5.49a3.11,3.11,0,0,1,.72-2.24,2.54,2.54,0,0,1,1.94-.76,2.12,2.12,0,0,1,1.67.65,2.89,2.89,0,0,1,.58,2v5.86h3.22v-6.36a4.91,4.91,0,0,0-1.27-3.68A4.57,4.57,0,0,0,313.15,105.3Z"/><path class="cls-1" d="M326.14,108a2.74,2.74,0,0,1,2.5,1.53l2.5-1.35a4.33,4.33,0,0,0-1.92-2.09,6.13,6.13,0,0,0-3.06-.74A6.82,6.82,0,0,0,323,106a5.6,5.6,0,0,0,0,10,6.81,6.81,0,0,0,3.19.73,6,6,0,0,0,3.06-.74,4.45,4.45,0,0,0,1.92-2.06l-2.5-1.37a2.7,2.7,0,0,1-2.5,1.53,2.87,2.87,0,0,1-2.09-.82,3.08,3.08,0,0,1-.82-2.26,3,3,0,0,1,.82-2.25A2.83,2.83,0,0,1,326.14,108Z"/><path class="cls-1" d="M334.6,100.33a2,2,0,0,0-1.44.51,1.71,1.71,0,0,0-.56,1.28,1.67,1.67,0,0,0,.56,1.28,2,2,0,0,0,1.44.52,2,2,0,0,0,1.45-.53,1.74,1.74,0,0,0,.55-1.33,1.6,1.6,0,0,0-.55-1.24A2.11,2.11,0,0,0,334.6,100.33Z"/><rect class="cls-1" x="332.99" y="105.47" width="3.22" height="11.11"/><path class="cls-1" d="M343.69,105.3a9.51,9.51,0,0,0-2.61.36,6.83,6.83,0,0,0-2.18,1l1.15,2.25a4.8,4.8,0,0,1,1.46-.76,5.81,5.81,0,0,1,1.75-.27,2.82,2.82,0,0,1,1.92.56,2,2,0,0,1,.64,1.62h-2.56a5.92,5.92,0,0,0-3.6.89,2.89,2.89,0,0,0-1.17,2.44,3.12,3.12,0,0,0,.49,1.73,3.37,3.37,0,0,0,1.44,1.2,5.2,5.2,0,0,0,2.22.43,3.59,3.59,0,0,0,3.39-1.55v1.39h3v-6.34a4.72,4.72,0,0,0-1.38-3.71A5.81,5.81,0,0,0,343.69,105.3Zm2.13,7.77a2.07,2.07,0,0,1-.91,1.12,2.77,2.77,0,0,1-1.46.39,2.22,2.22,0,0,1-1.34-.37,1.15,1.15,0,0,1-.48-1c0-.86.66-1.3,2-1.3h2.21Z"/><path class="cls-1" d="M369.78,110.15a4.9,4.9,0,0,0,.77-2.78,4.78,4.78,0,0,0-2.94-4.61,8.12,8.12,0,0,0-3.34-.64H358v14.46h3.34v-4h3.08l2.79,4h3.59l-3.24-4.65A5,5,0,0,0,369.78,110.15Zm-3.4-.92a3.47,3.47,0,0,1-2.29.66h-2.73v-5h2.73a3.53,3.53,0,0,1,2.29.65,2.62,2.62,0,0,1,0,3.73Z"/><path class="cls-1" d="M381,106a6.51,6.51,0,0,0-6,0,5.36,5.36,0,0,0-2.13,2,5.66,5.66,0,0,0-.77,2.94,5.55,5.55,0,0,0,.78,3,5.36,5.36,0,0,0,2.23,2,7.21,7.21,0,0,0,3.32.73,5.8,5.8,0,0,0,4.59-1.79l-1.72-1.86a3.63,3.63,0,0,1-1.25.81,4.08,4.08,0,0,1-1.54.26,3.52,3.52,0,0,1-2.1-.6,2.62,2.62,0,0,1-1.07-1.63h8.4c0-.54.06-.82.06-.86a6,6,0,0,0-.75-3A5,5,0,0,0,381,106Zm-5.68,4a2.66,2.66,0,0,1,.91-1.69,2.8,2.8,0,0,1,1.84-.62,2.72,2.72,0,0,1,1.82.63,2.69,2.69,0,0,1,.91,1.68Z"/><path class="cls-1" d="M392.84,110.37a19.52,19.52,0,0,0-2.24-.48,9.15,9.15,0,0,1-1.77-.4.73.73,0,0,1-.56-.72.84.84,0,0,1,.52-.74,3.26,3.26,0,0,1,1.54-.29,6.45,6.45,0,0,1,3.21.83l1.07-2.3a7,7,0,0,0-1.93-.71,11,11,0,0,0-2.35-.26,7.61,7.61,0,0,0-2.75.46A3.88,3.88,0,0,0,385.8,107a3.06,3.06,0,0,0-.61,1.87,2.72,2.72,0,0,0,.65,1.94,3.59,3.59,0,0,0,1.54,1,15.85,15.85,0,0,0,2.25.47,8.86,8.86,0,0,1,1.71.35.72.72,0,0,1,.56.68q0,1-2,1a7.56,7.56,0,0,1-2.07-.3,6.57,6.57,0,0,1-1.79-.78l-1.07,2.32a7.2,7.2,0,0,0,2.1.85,10.65,10.65,0,0,0,2.71.34,8.13,8.13,0,0,0,2.81-.44,4,4,0,0,0,1.81-1.25,3,3,0,0,0,.62-1.84,2.67,2.67,0,0,0-.64-1.9A3.5,3.5,0,0,0,392.84,110.37Z"/><path class="cls-1" d="M406.35,106a5.64,5.64,0,0,0-2.82-.72,4.29,4.29,0,0,0-3.49,1.45v-1.28H397v15.11h3.22V115.4a4.28,4.28,0,0,0,3.35,1.34,5.63,5.63,0,0,0,2.82-.71,5,5,0,0,0,2-2,6.63,6.63,0,0,0,0-6A5,5,0,0,0,406.35,106ZM405,113.26a2.87,2.87,0,0,1-4.06,0,3.1,3.1,0,0,1-.8-2.24,3.13,3.13,0,0,1,.8-2.24,2.9,2.9,0,0,1,4.06,0,3.13,3.13,0,0,1,.8,2.24A3.1,3.1,0,0,1,405,113.26Z"/><path class="cls-1" d="M420.4,106.93v-1.46h-3.07v11.11h3.22v-5.25a3.14,3.14,0,0,1,.78-2.32,2.94,2.94,0,0,1,2.17-.78l.72,0v-3a5.73,5.73,0,0,0-2.26.42A3.63,3.63,0,0,0,420.4,106.93Z"/><path class="cls-1" d="M430.56,105.3a9.51,9.51,0,0,0-2.61.36,6.83,6.83,0,0,0-2.18,1l1.15,2.25a4.8,4.8,0,0,1,1.46-.76,5.81,5.81,0,0,1,1.75-.27,2.82,2.82,0,0,1,1.92.56,2,2,0,0,1,.64,1.62h-2.56a5.92,5.92,0,0,0-3.6.89,2.89,2.89,0,0,0-1.17,2.44,3.12,3.12,0,0,0,.49,1.73,3.31,3.31,0,0,0,1.44,1.2,5.2,5.2,0,0,0,2.22.43,3.59,3.59,0,0,0,3.39-1.55v1.39h3v-6.34a4.69,4.69,0,0,0-1.39-3.71A5.76,5.76,0,0,0,430.56,105.3Zm2.13,7.77a2.12,2.12,0,0,1-.91,1.12,2.77,2.77,0,0,1-1.46.39,2.22,2.22,0,0,1-1.34-.37,1.15,1.15,0,0,1-.48-1c0-.86.66-1.3,2-1.3h2.21Z"/><path class="cls-1" d="M443.82,114.18a1.32,1.32,0,0,1-1-.38,1.52,1.52,0,0,1-.36-1.08v-4.53h2.77v-2.47h-2.77V103h-3.22v2.71H437.5v2.47h1.71v4.57a3.88,3.88,0,0,0,1.08,3,4.31,4.31,0,0,0,3.07,1,5.65,5.65,0,0,0,1.45-.17A3.33,3.33,0,0,0,446,116l-.87-2.27A2,2,0,0,1,443.82,114.18Z"/><path class="cls-1" d="M455.87,106a7,7,0,0,0-6.28,0,5.48,5.48,0,0,0-2.18,2,6,6,0,0,0,0,5.91,5.48,5.48,0,0,0,2.18,2,7.12,7.12,0,0,0,6.28,0,5.64,5.64,0,0,0,0-10Zm-1.1,7.22a2.68,2.68,0,0,1-2,.84,2.71,2.71,0,0,1-2-.84,3.11,3.11,0,0,1-.81-2.24,3.14,3.14,0,0,1,.81-2.24,2.74,2.74,0,0,1,2-.83,2.71,2.71,0,0,1,2,.83,3.13,3.13,0,0,1,.79,2.24A3.1,3.1,0,0,1,454.77,113.26Z"/><path class="cls-1" d="M464.05,106.93v-1.46H461v11.11h3.22v-5.25A3.14,3.14,0,0,1,465,109a2.94,2.94,0,0,1,2.17-.78l.72,0v-3a5.73,5.73,0,0,0-2.26.42A3.63,3.63,0,0,0,464.05,106.93Z"/><path class="cls-1" d="M471.4,100.33a2,2,0,0,0-1.44.51,1.71,1.71,0,0,0-.56,1.28,1.67,1.67,0,0,0,.56,1.28,2,2,0,0,0,1.44.52,2,2,0,0,0,1.45-.53,1.74,1.74,0,0,0,.55-1.33,1.6,1.6,0,0,0-.55-1.24A2.11,2.11,0,0,0,471.4,100.33Z"/><rect class="cls-1" x="469.79" y="105.47" width="3.22" height="11.11"/><rect class="cls-1" x="411.17" y="105.47" width="3.22" height="11.11"/><path class="cls-1" d="M412.78,100.33a2,2,0,0,0-1.44.51,1.71,1.71,0,0,0-.56,1.28,1.67,1.67,0,0,0,.56,1.28,2.24,2.24,0,0,0,2.88,0,1.72,1.72,0,0,0,.56-1.33,1.57,1.57,0,0,0-.56-1.24A2.08,2.08,0,0,0,412.78,100.33Z"/><path class="cls-1" d="M480.48,105.3a9.56,9.56,0,0,0-2.61.36,6.78,6.78,0,0,0-2.17,1l1.15,2.25a4.69,4.69,0,0,1,1.46-.76,5.75,5.75,0,0,1,1.74-.27,2.87,2.87,0,0,1,1.93.56,2.07,2.07,0,0,1,.63,1.62h-2.56a6,6,0,0,0-3.6.89,2.89,2.89,0,0,0-1.17,2.44,3.13,3.13,0,0,0,.5,1.73,3.28,3.28,0,0,0,1.43,1.2,5.27,5.27,0,0,0,2.22.43c1.66,0,2.78-.51,3.39-1.55v1.39h3v-6.34a4.72,4.72,0,0,0-1.39-3.71A5.77,5.77,0,0,0,480.48,105.3Zm2.13,7.77a2.07,2.07,0,0,1-.91,1.12,2.72,2.72,0,0,1-1.46.39,2.22,2.22,0,0,1-1.34-.37,1.15,1.15,0,0,1-.48-1c0-.86.66-1.3,2-1.3h2.21Z"/></svg>