<svg id="Layer_1" data-name="Layer 1" xmlns="http://www.w3.org/2000/svg" viewBox="0 0 532.76 121.54"><defs><style>.cls-1{fill:#011f3a;}</style></defs><path class="cls-1" d="M529.35,41.92c-.53-1.42-.91-2.4-2.43-2.91-2.2-.72-4.48-.73-6.22,1l-9.63.08A3.06,3.06,0,0,0,508.21,38a3.2,3.2,0,0,0-2.89,1.5H452.23l-9.4,8.33V111l9.4,8.39h27.45l9.5-8.39v-7.8a3.44,3.44,0,0,0,2.14-3.36,3.28,3.28,0,0,0-2.14-3s0-2.67,0-4.81a2.39,2.39,0,0,0,.84-.53l2.11-2.25h0V67h2.34a.28.28,0,0,0,.28-.28V63a.29.29,0,0,0-.28-.28H469.65a.29.29,0,0,0-.29.28V66.7a.28.28,0,0,0,.29.28h2.56V89.2h0l2.11,2.25s0,0,.05,0c0,2.18,0,5.28,0,5.28a3.27,3.27,0,0,0-2.16,3,3.45,3.45,0,0,0,2.16,3.37v1.44H457.57V54.25l47.68,0a3.21,3.21,0,0,0,3,1.62,3.06,3.06,0,0,0,2.86-2.09l9.63.08c1.74,1.74,4,1.73,6.22,1,1.52-.5,1.9-1.48,2.43-2.9C530,50.22,530,43.71,529.35,41.92Z"/><path class="cls-1" d="M411,54.07h4.22V71.86H398.46V54.07h4.27V39.33H379.5V54.07h4.22v50.37H379.5v14.74h20.24a3.24,3.24,0,0,0,2.88,1.5,3.08,3.08,0,0,0,2.87-2.09l9.63.08c1.73,1.73,4,1.72,6.22,1,1.52-.5,1.9-1.49,2.43-2.91.66-1.78.66-8.3,0-10.08-.53-1.42-.91-2.41-2.43-2.91-2.2-.72-4.49-.73-6.22,1l-9.63.08a3.08,3.08,0,0,0-2.87-2.09,3.21,3.21,0,0,0-3,1.68h-1.18V86.65h16.72v14.78h19V86.7h-4.27V54.07h4.27V39.33H411Z"/><path class="cls-1" d="M28.72,39.61a3.25,3.25,0,0,0-3.21-2.33,3.12,3.12,0,0,0-2.87,2.26L13,39.46c-1.73-1.89-4-1.87-6.22-1.09-1.52.54-1.9,1.61-2.42,3.15A21.64,21.64,0,0,0,3.87,47a21.9,21.9,0,0,0,.5,5.45c.52,1.53.9,2.6,2.42,3.14,2.21.79,4.49.8,6.22-1.08l9.63-.09a3.11,3.11,0,0,0,2.87,2.26,3.24,3.24,0,0,0,3.21-2.33h5V94.62a3.26,3.26,0,0,0-2.31,3.2,3.13,3.13,0,0,0,2.27,2.87l-.09,9.63c-1.88,1.73-1.87,4-1.09,6.22.55,1.52,1.62,1.9,3.15,2.42a21.55,21.55,0,0,0,5.47.5,21.51,21.51,0,0,0,5.46-.5c1.54-.52,2.6-.9,3.15-2.42.78-2.2.79-4.49-1.09-6.22q0-4.81-.08-9.63a3.13,3.13,0,0,0,2.26-2.87,3.26,3.26,0,0,0-2.31-3.2V54.35h4.12v6.46H67.37V39.61H28.72Z"/><path class="cls-1" d="M376.58,59.92a3.18,3.18,0,0,0-1.5-2.88V48l-9.66-8.44H339.14L329.74,48v56.86H288.3V77.76l8.54,22.2h23.38V54.48h4.27V39.74H301.32V54.48h4.27V81.62L289.42,39.74h-20V54.48h4.22V104.8l-4.27,0v14.74h78.83v-.13h17.25l9.66-8.34V91.92H360.34v12.8H344.48V54.35h15.86v2.59a3.2,3.2,0,0,0-1.67,3,3.09,3.09,0,0,0,2.09,2.87c0,3.21-.05,2.62-.08,5.82-1.74,1.74-1.73,4-1,6.22.5,1.53,1.49,1.9,2.9,2.43,1.79.66,8.31.66,10.09,0,1.42-.53,2.41-.9,2.91-2.43.72-2.2.73-4.48-1-6.22,0-3.2-.05-2.61-.08-5.82A3.09,3.09,0,0,0,376.58,59.92Z"/><path class="cls-1" d="M193.08,39.65l-41.55.15h-9.7V38a3.25,3.25,0,0,0,1.92-3.12,3.08,3.08,0,0,0-2.09-2.86c0-.84,0-1.42,0-1.87l.12,0a2.45,2.45,0,0,0,.94-.57l2.11-2.25h0V5.1h2.34a.28.28,0,0,0,.28-.28V1.14a.29.29,0,0,0-.28-.28H122.39a.28.28,0,0,0-.28.28V4.82a.27.27,0,0,0,.28.28H125V27.32h0l2.11,2.25a2.47,2.47,0,0,0,.71.48l.13.05h0c0,.46,0,1.06,0,1.95a3.08,3.08,0,0,0-2.09,2.86,3.25,3.25,0,0,0,2,3.14l0,3.55,0,10a2.86,2.86,0,0,0,2.85,2.88l8.3,0h19.31l.18,50.37h-4.22l.06,14.74,23.23-.08-.06-14.74h-4.27l0-12.35,20.18-.07,9.52-8.53-.13-35.83Zm-5,38.13h-15V54.5h15Z"/><path class="cls-1" d="M263.52,65.29H238.71a.28.28,0,0,0-.29.28v3.68a.29.29,0,0,0,.29.28h2.56V91.74h0L243.38,94a3,3,0,0,0,.46.34c0,1.34,0,2.44,0,2.44a3.28,3.28,0,0,0-2.17,3,3.46,3.46,0,0,0,2.17,3.37v1.44H227V54.25l9.67,0a3.2,3.2,0,0,0,2.95,1.62,3.08,3.08,0,0,0,2.87-2.09l9.63.08c1.73,1.74,4,1.73,6.22,1,1.52-.5,1.9-1.48,2.42-2.9.67-1.79.67-8.3,0-10.09-.52-1.42-.9-2.4-2.42-2.91-2.2-.72-4.49-.73-6.22,1l-9.63.08A3.08,3.08,0,0,0,239.64,38a3.19,3.19,0,0,0-2.88,1.5H221.69l-9.41,8.33V111l9.41,8.39h27.44l9.51-8.39v-7.8a3.45,3.45,0,0,0,2.13-3.36,3.27,3.27,0,0,0-2.13-3s0-1.1,0-2.45h0a2.46,2.46,0,0,0,.44-.34l2.11-2.26h0V69.53h2.34a.29.29,0,0,0,.28-.28V65.57A.28.28,0,0,0,263.52,65.29Z"/><path class="cls-1" d="M147.16,62H122.35a.29.29,0,0,0-.29.28V66a.29.29,0,0,0,.29.28h2.56V88.46h0L127,90.72a2.61,2.61,0,0,0,.71.48l.17.07c0,1.49,0,3,0,4.48a3.09,3.09,0,0,0-2.09,2.87,3.23,3.23,0,0,0,1.94,3.13v3h-8.5l0-.07-13-65H85.54l-13,65.11H68.61v14.74H91.84V104.74H87.57l1.27-6.45H103l1.27,6.45h-4.16v14.74H139a2.86,2.86,0,0,0,2.86-2.86V101.75a3.23,3.23,0,0,0,1.94-3.13,3.09,3.09,0,0,0-2.09-2.87l0-4.44.06,0a2.45,2.45,0,0,0,.94-.57l2.11-2.25h0V66.25h2.34a.29.29,0,0,0,.28-.28V62.29A.29.29,0,0,0,147.16,62ZM96,83.55H91.84l4.07-20.49,0,.25L100,83.55Z"/></svg>