<svg id="Layer_1" data-name="Layer 1" xmlns="http://www.w3.org/2000/svg" viewBox="0 0 200 200"><defs><style>.cls-1{fill:#5cfa9d;}</style></defs><path class="cls-1" d="M199.46,20.5c-.11-1.27-.23-2.54-.34-3.7l-.06-.45C197.91,8.81,190.51.67,180.6.67l-.44,0c-.61-.05-1.21-.08-1.77-.08H21.16c-.56,0-1.17,0-1.77.08L19,.67l-.7,0C7.82,1.52.5,9.72.5,20.65V179.13c0,12,8.31,20.31,20.2,20.31H179.19c12.15,0,20.31-8.21,20.31-20.43V21.33ZM181.61,179a4.18,4.18,0,0,1-.38,2.19,4.1,4.1,0,0,1-2,.35H130.35V153.3h-.12c0-10.32.12-20.64,0-31,0-2.32.47-3.24,3-3.13,6.73.23,13.45.12,20.18.12.93,0,2,.35,2.09-1.28.11-2.43.46-4.87.58-7.31.23-4.4.23-8.93.69-13.33.24-2.21-.34-2.67-2.55-2.56H132.32c-1.27,0-2.2,0-2.2-1.74.11-5.79-.12-11.48.11-17.28.24-7.07,3-9.62,10.21-9.62,4.52-.12,8.93-.12,13.45,0,1.74,0,2.21-.58,2.21-2.21,0-4.75.23-9.39.35-14.15.11-2,.69-4.52-.24-5.91-1-1.74-3.82-.7-5.91-1a1.56,1.56,0,0,0-.7-.11c-6.84-.35-13.68-.81-20.41.69-15.54,3.48-24.47,14.39-24.59,30.39-.12,6.26-.12,12.41,0,18.56,0,1.85-.58,2.55-2.55,2.43-4.52-.23-8.93,0-13.45-.11-1.51-.12-2.09.35-2.09,2q.17,10.26,0,20.53c0,1.62.58,2,2.09,2h12.64c3.24,0,3.24,0,3.24,3.13,0,19.78,0,39.45-.1,59.22H20.7c-1.87,0-2.31-.09-2.31-2.42V20.65c0-1.8.51-2,1.09-2.09l1.29-.08.39,0H178.33l.45,0c.6.05,1.21.08,1.77.08a1.59,1.59,0,0,1,.82.65c.08.81.16,1.66.24,2.52Z"/></svg>