<svg id="Layer_1" data-name="Layer 1" xmlns="http://www.w3.org/2000/svg" viewBox="0 0 200 200"><defs><style>.cls-1{fill:#5cfa9d;}</style></defs><path class="cls-1" d="M84.62,108.05v29.64a2.78,2.78,0,0,0,3.07,3h13.52c2.68,0,3.65-1,3.65-3.64V108.78a23,23,0,0,1,.24-4,21.16,21.16,0,0,1,2.35-7.36,9.6,9.6,0,0,1,6.64-4.94,13.91,13.91,0,0,1,3.72-.25,9.1,9.1,0,0,1,8.34,6.64,21.4,21.4,0,0,1,1.14,7.45v31.66a3,3,0,0,0,2.91,2.75h15.14a2.87,2.87,0,0,0,2.92-2.75V107.65a83.74,83.74,0,0,0-.73-11.82,32.24,32.24,0,0,0-3.16-10.61A18.28,18.28,0,0,0,138,78a22.53,22.53,0,0,0-10.85-3.41c-1.86-.16-3.64,0-5.5,0a22.94,22.94,0,0,0-4.7.65,18.47,18.47,0,0,0-11.33,7.53l-.08.08c-.17.17-.25.49-.57.33s-.24-.41-.24-.65V78.18a2.69,2.69,0,0,0-1.87-2.51,3.28,3.28,0,0,0-1.21-.25H87.45a2.92,2.92,0,0,0-2.75,1.7,4,4,0,0,0-.25,1.95C84.62,88.78,84.62,98.42,84.62,108.05Z"/><path class="cls-1" d="M75.06,108.13V78.5a3,3,0,0,0-1-2.19,3.92,3.92,0,0,0-2.92-1H58.79a5.83,5.83,0,0,0-1.7.25,2.86,2.86,0,0,0-2.19,2.18A10.2,10.2,0,0,0,54.66,80v56.27a8,8,0,0,0,.08,1.38,3.29,3.29,0,0,0,3.56,3.07c3.89-.08,7.78,0,11.74,0h1.7a3.16,3.16,0,0,0,3.4-3.48v-1.13C75.06,126.84,75.06,117.45,75.06,108.13Z"/><path class="cls-1" d="M78.06,56.48c.32-7-6-13.28-13.12-13.2a13.24,13.24,0,1,0,13.12,13.2Z"/><path class="cls-1" d="M100,200A100,100,0,1,1,200,100,100.11,100.11,0,0,1,100,200ZM100,8.47A91.53,91.53,0,1,0,191.53,100,91.63,91.63,0,0,0,100,8.47Z"/></svg>