<svg id="Layer_1" data-name="Layer 1" xmlns="http://www.w3.org/2000/svg" viewBox="0 0 200 200"><defs><style>.cls-1{fill:#fff;}</style></defs><path class="cls-1" d="M147.47,68.12A18.63,18.63,0,0,0,151,61.34c-.51.26-.94.43-1.28.6a40.41,40.41,0,0,1-11.52,4.32,1.72,1.72,0,0,1-1.78-.51c-5.84-5.42-12.7-7.29-20.33-5.51A21,21,0,0,0,100.88,74a21.5,21.5,0,0,0-.94,11.52c.09.42.34.85-.5.76a65.16,65.16,0,0,1-15.76-3A61.13,61.13,0,0,1,58.35,67.36c-1.1-1.19-2.2-2.46-3.3-3.64a21.39,21.39,0,0,0-2.38,15.75,22.22,22.22,0,0,0,9.07,13.3,22.72,22.72,0,0,1-9.83-2.71A21.36,21.36,0,0,0,56.74,104a21.89,21.89,0,0,0,12.45,7.7c-.25.09-.25.09-.34.17a1.35,1.35,0,0,1-.59.09,20.93,20.93,0,0,1-8,.25c-.59-.08-.68,0-.43.6a22.07,22.07,0,0,0,15.25,13.89,22.82,22.82,0,0,0,4.92.68,44.74,44.74,0,0,1-31.94,9.15,55.06,55.06,0,0,0,7.45,4.15,61.91,61.91,0,0,0,23.64,5.5,63.48,63.48,0,0,0,25.75-4.4,58.74,58.74,0,0,0,26-20.42,63.06,63.06,0,0,0,12.2-39.22,1.48,1.48,0,0,1,.67-1.36,44,44,0,0,0,7.63-7.28c.85-1,1.61-2.12,2.37-3.14a45.16,45.16,0,0,1-11.86,3A32,32,0,0,0,147.47,68.12Z"/><path class="cls-1" d="M100,200A100,100,0,1,1,200,100,100.11,100.11,0,0,1,100,200ZM100,8.47A91.53,91.53,0,1,0,191.53,100,91.63,91.63,0,0,0,100,8.47Z"/></svg>