<svg id="Layer_1" data-name="Layer 1" xmlns="http://www.w3.org/2000/svg" viewBox="0 0 200 200"><defs><style>.cls-1{fill:#5cfa9d;}</style></defs><path class="cls-1" d="M100,200A100,100,0,1,1,200,100,100.11,100.11,0,0,1,100,200ZM100,8.47A91.53,91.53,0,1,0,191.53,100,91.63,91.63,0,0,0,100,8.47Z"/><path class="cls-1" d="M156.09,94.8c-.15-5.94-.59-11.9-1.33-17.94-1.52-12.35-6.4-17.08-18.7-18.72a269.71,269.71,0,0,0-75.5.54c-8,1.19-13.27,6.85-14.8,16.68a158.23,158.23,0,0,0,.44,51.75c1.45,8.32,7,12.84,17.82,14.38a259.65,259.65,0,0,0,75.77-.47c8.67-1.31,13.73-7.39,14.94-17.66A199,199,0,0,0,156.09,94.8ZM84.18,119.91V79.83l40.11,20Z"/></svg>