<svg id="Layer_1" data-name="Layer 1" xmlns="http://www.w3.org/2000/svg" viewBox="0 0 376.25 96.23"><defs><style>.cls-1{fill:#011f3a;}</style></defs><path class="cls-1" d="M3.33,4.37H41.41v12.3H21V39.86H36.77V52.27H21v27.4H41.63V91.75H3.33Z"/><path class="cls-1" d="M47.67,4.37H65.36v75.3H86V91.75H47.67Z"/><path class="cls-1" d="M118.53,86.31q-6-6.65-6.58-20.56l15.32-2.58c.14,5.53.92,9.62,2.32,12.24a6.76,6.76,0,0,0,6.31,3.94,5.14,5.14,0,0,0,4.53-2,8.67,8.67,0,0,0,1.4-5.12,15.91,15.91,0,0,0-2.32-8.79,38.65,38.65,0,0,0-7.28-7.93l-9.06-7.88a39.31,39.31,0,0,1-8.31-9.76q-2.81-4.9-2.8-12.35,0-10.68,6.36-16.46T136,3.29q11.76,0,16.34,6.85t5.23,17.43l-15.42,2.26q-.22-6.79-1.51-10.14a5,5,0,0,0-5.07-3.34,5.72,5.72,0,0,0-4.8,2.15,8.37,8.37,0,0,0-1.68,5.29,12.94,12.94,0,0,0,2,7.34A35.42,35.42,0,0,0,137,37.6l8.85,7.77a51.79,51.79,0,0,1,9.87,11.81,27.42,27.42,0,0,1,3.5,14.08,22.07,22.07,0,0,1-2.8,11.16,20,20,0,0,1-7.93,7.72,24.23,24.23,0,0,1-11.81,2.8Q124.57,92.94,118.53,86.31Z"/><path class="cls-1" d="M178.19,4.37h19.74l16.83,87.38h-16.4l-3.24-19.2h-13.8L178,91.75H161.25ZM193.4,61.55l-5.29-35.17-5.18,35.17Z"/><path class="cls-1" d="M220.58,4.37H233l19.42,45.42V4.37h14.78V91.75h-12L235.79,43.42V91.75H220.58Z"/><path class="cls-1" d="M287.92,17.53H274V4.37h45.41V17.53h-13.7V91.75h-17.8Z"/><path class="cls-1" d="M353.94,64.14c-4.55,1.19-9.08.77-13.61-.08-.26,0-.61-.17-.76,0a8,8,0,0,0-2.27,2c-.29.53.21,1.51.37,2.29a2.61,2.61,0,0,0,.25.9,2,2,0,0,0,.78.79q3.81,1.83,7.66,3.58a1.71,1.71,0,0,0,1.16.13c2.6-1.09,5.18-2.24,7.76-3.39.38-.18.88-.44,1-.77.33-1,.5-2.09.71-3C357,65.56,354.86,63.9,353.94,64.14Z"/><path class="cls-1" d="M333.18,25.34c3.69,3.22,7.31,6.54,11.06,9.69,2.48,2.08,2.6,2,5.18.15,3.16-2.29,6.27-4.67,9.37-7a7.57,7.57,0,0,0,2-2c.88-1.54,2.25-1.74,3.78-2,2.52-.41,5-1,7.59-1.53a25.91,25.91,0,0,0-5.23-12.15q-6-7.19-19.79-7.18t-19.85,7.12a25.45,25.45,0,0,0-5.12,11.75,29.83,29.83,0,0,0,9.67,2.39A2.64,2.64,0,0,1,333.18,25.34Z"/><path class="cls-1" d="M367,37.48a18.27,18.27,0,0,1,.15-2.55c.08-1.49.14-3,.21-4.52l-12.87,8.65v9.19c3.56-2.16,6.73-4.16,10-6A4.57,4.57,0,0,0,367,37.48Z"/><path class="cls-1" d="M372.59,26.09C371.71,33,370.77,39.9,370,46.82a2.86,2.86,0,0,1-2.76,2.92c-2.43.37-4.81,1-7.4,1.65l2.69,6.53-4.31,2.7,5,.39c-1.49,4.87-3.71,9.45-3.88,14.82-2.4.37-4.86.85-7.33,1.12a43.33,43.33,0,0,1-15.68-.85c-1.11-.29-1.62-.72-1.67-1.95a29.81,29.81,0,0,0-3.69-13l5-.44c-1.34-.88-2.31-1.58-3.35-2.17-.74-.41-.87-.82-.52-1.61.8-1.75,1.48-3.54,2.25-5.43-2.35-.49-4.6-.93-6.82-1.44s-2.36-.57-2.69-2.92q-1.56-10.94-3.11-21.88a56.08,56.08,0,0,0-.35,6.41V64.24q0,14.15,5.94,21.42t19.85,7.28q13.8,0,19.79-7.28t6-21.31V31.67a55.86,55.86,0,0,0-.31-5.81C372.6,25.94,372.6,26,372.59,26.09Z"/><path class="cls-1" d="M327.78,40.74c3.9,2.46,7.82,4.89,11.73,7.33l.46-.24c0-2.86,0-5.72,0-8.58,0-.29-.4-.64-.7-.84-1.88-1.22-3.81-2.37-5.67-3.61-2.16-1.43-4.26-2.92-6.35-4.36,0,3.22,0,6.34,0,9.46A1.24,1.24,0,0,0,327.78,40.74Z"/><path class="cls-1" d="M339.69,54.39c0,.37.1.88.34,1.07,4.32,3.46,9.44,4,14,.1.42-.36.54-.68.28-1.14a66.28,66.28,0,0,0-3.67-6.27,26.46,26.46,0,0,0-3.84-3.58c-2.64,3-5.17,5.76-6.86,9.14A1.47,1.47,0,0,0,339.69,54.39Z"/></svg>