<svg id="Layer_1" data-name="Layer 1" xmlns="http://www.w3.org/2000/svg" viewBox="0 0 1920 1867.13"><defs><style>.cls-1{fill:#282d40;}.cls-2{fill:#f1c165;}</style></defs><path class="cls-1" d="M1309.75,265.31l-2.67-114.07c-.21-9.1-6.27-17.08-16.08-14.56l-91.25,23.48c-13.22,3.4-23.2,18.57-25.38,31.42-1.76,10.33,2,24.49,15.5,21l44.22-11.38L1167,284,934.12,571,652.58,918,408.13,1219.24l-79.94,98.52c-10.13,12.49-21.93,24.79-31.78,37.9H37.24c-18.12,0-31.06,22.1-31.06,38.35v359.43c0,10.76,5.59,14.58,12.34,14.26l-1.34.74h399c11.19,0,26.28,2.45,37-1.54,13.86-5.14,27.21-26.19,36.51-36.8q31.13-35.53,62.26-71.06l111.16-126.87c7.41-8.46,15.3-26.78,7.35-37.18-8.39-11-22.48-.37-28.83,6.88L454.86,1715.09H81.29c-9.35,0-21.47-1.38-33.06-.89V1409H255.41c10.53,0,23,1.55,34.1-.4l-.71.39c4.5,0,8.92-1.86,13.19-4.82a27.35,27.35,0,0,0,6.39-5.27c9.44-9,17.73-21.82,23.64-29.1l69-85L632.92,999,916.67,649.22l247.54-305.09c33.78-41.64,68.51-82.72,101.87-124.76l1.62,69.29c.3,12.77,10.46,17.81,21.43,12.37C1301.11,295.1,1310.06,278.48,1309.75,265.31Z"/><path class="cls-1" d="M1868.94,45.81h-462.3c-22.71,0-45,53.36-20.06,53.36h451.3V376.92H1596.7c-10.54,0-23-1.55-34.11.4l.71-.39c-5.6,0-10.51,2.45-14.94,6a27,27,0,0,0-4.85,4.39c-4,4-7.52,8.47-10.89,12.23q-17.41,19.44-34.82,38.87L1376.16,574.14,1094.93,888q-27.15,30.29-54.28,60.58l-1.59-67.87c-.3-12.76-10.46-17.81-21.43-12.37-12,5.93-20.93,22.55-20.63,35.72q1.34,57,2.68,114.08c.21,9.09,6.27,17.07,16.08,14.55l91.24-23.48c13.23-3.4,23.21-18.57,25.39-31.42,1.76-10.33-2-24.49-15.5-21l-45.42,11.69q76.5-85.38,153-170.75l275.66-307.67,53.56-59.78h295.2c18.12,0,31.06-22.1,31.06-38.36V60.82C1879.94,54.6,1876.55,45.81,1868.94,45.81Z"/><path class="cls-1" d="M1410.85,1715a8,8,0,0,0-.67-.52l.39.51Z"/><path class="cls-1" d="M1879.68,1768.32a5.29,5.29,0,0,0,1.35.53,11.25,11.25,0,0,1-1.13-.51Z"/><path class="cls-1" d="M1902.83,1384H1639.52c-.88,0-6.4-.69-7.16,0a7.62,7.62,0,0,0-1.07,0h-.09c-22.69,0-45,53.21-20.17,53.36h.18c.34.09.74-.06,1.08,0,2.2.44,5,0,7.17,0h252.31v277.74h-359.9c-32.27,0-67.59-4.09-99.65,0-.15,0-.69,0-1.37-.06,2.77,2.4,5,7.07,1.15,1.83-.45-.62-.94-1.23-1.43-1.84-1.59-.1-3.75-.22-3.89.07.84-1.71,2.19-1.49,3.5-.58-5.1-6.31-11.65-12-17.12-17.83l-80.15-85.41-231.19-246.36q-76.83-81.89-153.67-163.75c-9.3-9.91-21.66-1.3-28.83,6.87q-83,94.67-165.94,189.31-.88-37.54-1.76-75.1c-.3-12.77-10.46-17.81-21.44-12.38-12,5.94-20.93,22.56-20.62,35.73l2.67,114.07c.14,5.69,3.33,15.66,11,15l94.44-8c13.73-1.17,23.93-12.36,28.52-25,2.53-7,5.46-29.59-8.46-28.41l-54.33,4.62q70.17-80.07,140.36-160.12l347.9,370.73q45.33,48.32,90.67,96.61c11.72,12.5,23,27.81,36.29,38.68,7.51,6.13,14.45,4.65,23.83,4.65h455.57c6,0,12.39.65,18.32,0a20.65,20.65,0,0,1,3.44-.12,16.28,16.28,0,0,1-5-4.52,16,16,0,0,0,5.2,4.54c1.95.17,2.1.72,1.13.51,15.2,5.79,32.79-27.16,32.79-38.75V1399C1913.82,1392.77,1910.43,1384,1902.83,1384Z"/><path class="cls-2" d="M954.11,1044.68,679.81,759.23,332.42,397.7c-4.6-4.79-9-10.21-14-14.57-.4-.36-.81-.73-1.21-1.12.09-.12-.58-.8-2-2.06l-.11,0c-.55-.55-1.09-1.08-1.63-1.56l-4.55-1.42.42.27c-.32-.1-.65-.2-1-.28-2.07-.51-4.71.08-6.83,0-39.43-1.63-79.22-.24-118.74,0q14.39-15,28.76-30.08c7.73-8.09,15.1-27.05,7.35-37.19-8.57-11.21-22.21,0-28.82,6.88L111.16,399c-9.31,9.73-15.65,30.43-3.84,40.41l72.39,61.17c17.1,14.46,48-34.58,29.17-50.51l-23.4-19.77h82.88c2.07,0,12.08,1.25,16.85.72,1.89,1.71,3.87,3.31,4.57,4L415,565.35,815.83,982.49l102.1,106.25C936.43,1108,969.52,1060.72,954.11,1044.68ZM288.3,430.31a1,1,0,0,1,.35,0C288.62,430.36,288.49,430.36,288.3,430.31Z"/><path class="cls-1" d="M40.83,45.91C39,44.6,37.88,44.64,37.6,45a10.44,10.44,0,0,1,2.66,1Z"/><path class="cls-1" d="M1594.55,1313.16q-4-47.22-8-94.44c-2.93-34.47-44,.9-42.06,23.34l2,23.57L1404.34,1096.8,1037.66,661.27Q856.88,446.56,676.12,231.84L560.58,94.62,530.82,59.26c-5.11-6.06-8.72-11.93-17-13.45-7.49-1.39-16.61,0-24.2,0H52.07c-3.26,0-7.62-.78-10.78,0l-.46.09a22.8,22.8,0,0,1,4.47,4.55,16.07,16.07,0,0,0-5-4.45c-2.16.26-3-.59-2.66-1C22.74,41.57,6.18,72.92,6.18,84.16V415.27c0,12.85,10.66,17.71,21.43,12.37,12.21-6,20.62-22.45,20.62-35.72V99.18H463.72c7.67,0,18.53,1.93,26.46.42,4.2,6.7,13.27,14.2,17.42,19.13l97.47,115.77L951.5,646l377.26,448.1c57.53,68.33,113.61,138.39,172.13,206l-31.41.74c-22.7.53-44.74,53.94-20.06,53.36l114.07-2.67C1580.63,1351.11,1596,1329.64,1594.55,1313.16Z"/></svg>