<svg id="Layer_1" data-name="Layer 1" xmlns="http://www.w3.org/2000/svg" viewBox="0 0 376.25 96.23"><defs><style>.cls-1{fill:#011f3a;}</style></defs><rect class="cls-1" x="1.18" y="3.6" width="17.8" height="13.78" rx="1.07"/><path class="cls-1" d="M85.66,73.68H72.24L104,49.08c.57-.55.52-1.19.52-2.17V28.55a1.07,1.07,0,0,0-1.07-1.07H61.72V4.67A1.07,1.07,0,0,0,60.65,3.6H45a1.07,1.07,0,0,0-1.07,1.07V27.49l-25,0V22.41a1.07,1.07,0,0,0-1.07-1.07H2.25a1.06,1.06,0,0,0-1.07,1.07V67.07a1.06,1.06,0,0,0,1.07,1.07H17.9A1.07,1.07,0,0,0,19,67.07V44.75l25,0v21a1.07,1.07,0,0,0,1.74.83L61.32,54.06a1.11,1.11,0,0,0,.4-.84v-8.5H80.06L44.68,73.09c-.71.59-.81.89-.76,2.21V90.4A1.07,1.07,0,0,0,45,91.47H85.66a1.07,1.07,0,0,0,1.07-1.07V74.75A1.07,1.07,0,0,0,85.66,73.68Z"/><rect class="cls-1" x="90.69" y="73.68" width="13.78" height="17.8" rx="1.07"/><path class="cls-1" d="M130.48,3.45V19h13.08V3.45H153v40h-9.47V27.13H130.48V43.44H121v-40Z"/><path class="cls-1" d="M167.79,30.49a3.75,3.75,0,0,0,1.48,2.88,4.86,4.86,0,0,0,3.29,1.28h5.36a4.73,4.73,0,0,0,3.26-1.28,3.78,3.78,0,0,0,1.45-2.88v-27h9.59V31.7a11.73,11.73,0,0,1-.84,4.56,11,11,0,0,1-2.32,3.53,11.41,11.41,0,0,1-3.48,2.41,16.13,16.13,0,0,1-4.37,1.24h-9.66a17,17,0,0,1-5.16-.77,12.94,12.94,0,0,1-4.24-2.25,10.46,10.46,0,0,1-2.85-3.69,11.72,11.72,0,0,1-1-5V3.45h9.53Z"/><path class="cls-1" d="M231.34,11.84H214.5a6.84,6.84,0,0,0-4,1,6.76,6.76,0,0,0-2.25,2.71,12.2,12.2,0,0,0-1,3.79,37.93,37.93,0,0,0-.24,4.27,19.39,19.39,0,0,0,.37,3.48,13.08,13.08,0,0,0,1.27,3.67,9.53,9.53,0,0,0,2.32,2.88,5.39,5.39,0,0,0,3.56,1.17H222V21.23h9.33V43.44H213.43a13.42,13.42,0,0,1-7-1.78,16.49,16.49,0,0,1-5-4.59,20,20,0,0,1-3-6.34,26.07,26.07,0,0,1-1-6.95,28.68,28.68,0,0,1,.91-7,22.37,22.37,0,0,1,2.79-6.57,16.24,16.24,0,0,1,4.72-4.9,11.89,11.89,0,0,1,6.75-1.91h18.72Z"/><path class="cls-1" d="M237.31,10.26a11.17,11.17,0,0,1,2.05-3.42,10.24,10.24,0,0,1,3.11-2.45,8.44,8.44,0,0,1,4-.94H260.6a8.43,8.43,0,0,1,3.95.94,10.79,10.79,0,0,1,3.15,2.45,11.08,11.08,0,0,1,2.09,3.42,10.49,10.49,0,0,1,.73,3.79V31.7a11.92,11.92,0,0,1-.83,4.56,11.16,11.16,0,0,1-2.32,3.53,11.45,11.45,0,0,1-3.49,2.41,16.06,16.06,0,0,1-4.36,1.24h-9.66a17,17,0,0,1-5.17-.77,13,13,0,0,1-4.23-2.25,10.35,10.35,0,0,1-2.85-3.69,11.57,11.57,0,0,1-1-5V14.05A10.29,10.29,0,0,1,237.31,10.26Zm10.26,23.11a4.88,4.88,0,0,0,3.29,1.28h5.37a4.75,4.75,0,0,0,3.26-1.28,3.77,3.77,0,0,0,1.44-2.88V14.85a3.49,3.49,0,0,0-1.71-2.31,6.75,6.75,0,0,0-3-1h-5.37a7.16,7.16,0,0,0-3.05,1,3.2,3.2,0,0,0-1.71,2.31V30.49A3.74,3.74,0,0,0,247.57,33.37Z"/><path class="cls-1" d="M121.29,92.78v-8h17.45a3.58,3.58,0,0,0,1.61-.4,5.51,5.51,0,0,0,1.4-1,5.69,5.69,0,0,0,1-1.34,3.14,3.14,0,0,0,.41-1.47,4.62,4.62,0,0,0-.51-2.25,4.43,4.43,0,0,0-1.24-1.45,4.53,4.53,0,0,0-1.71-.73,8.82,8.82,0,0,0-1.85-.21h-7A8.47,8.47,0,0,1,127,75a9.53,9.53,0,0,1-3.13-2.48,12.47,12.47,0,0,1-2.14-4,16.21,16.21,0,0,1-.81-5.3,9.88,9.88,0,0,1,.74-3.73,11.8,11.8,0,0,1,2-3.35,10.25,10.25,0,0,1,3.12-2.45,8.44,8.44,0,0,1,4-.94h21.87v8.05H135.38a5.62,5.62,0,0,0-3.09,1,2.94,2.94,0,0,0-1.47,2.52,3.82,3.82,0,0,0,.39,1.85,3.27,3.27,0,0,0,1,1.1,4.53,4.53,0,0,0,1.38.61,10.44,10.44,0,0,0,1.51.27h8.06a8.25,8.25,0,0,1,3.78.9,9.36,9.36,0,0,1,3.13,2.62,13.66,13.66,0,0,1,2.14,4.09,16.58,16.58,0,0,1,.81,5.34,12.12,12.12,0,0,1-.71,3.93,13.3,13.3,0,0,1-2,3.75,11.79,11.79,0,0,1-3.09,2.85,7.1,7.1,0,0,1-3.92,1.14Z"/><path class="cls-1" d="M168.53,52.79h9.53l14.09,40h-10.4l-8.32-26.44-5.77,17.85h9.46v8.59H154.44Z"/><path class="cls-1" d="M206.11,70.84V92.78h-9.6v-40h9.6L219.25,75V52.79h9.6v40h-9.6Z"/><path class="cls-1" d="M268,61.18H252.74a8.07,8.07,0,0,0-4.23,1,8.44,8.44,0,0,0-2.82,2.72,12.38,12.38,0,0,0-1.58,3.79,18.58,18.58,0,0,0-.5,4.26,19.39,19.39,0,0,0,.37,3.48,14.38,14.38,0,0,0,1.21,3.67A8.64,8.64,0,0,0,247.44,83,5.39,5.39,0,0,0,251,84.19h17v8.59H250.06A13.44,13.44,0,0,1,243,91a16.34,16.34,0,0,1-5-4.59,19.8,19.8,0,0,1-3-6.34,26,26,0,0,1-1-6.95,26.43,26.43,0,0,1,1-6.94,23.61,23.61,0,0,1,2.88-6.58,16.64,16.64,0,0,1,4.74-4.89,11.3,11.3,0,0,1,6.57-1.92H268Z"/><path class="cls-1" d="M282.74,52.79V68.36h13.08V52.79h9.47v40h-9.47V76.47H282.74V92.78h-9.53v-40Z"/><path class="cls-1" d="M337.63,92.78H310.52v-40h27.11v8.59H320V84.19h17.59Zm-3.7-24.42v8.11H323.07V68.36Z"/><path class="cls-1" d="M375.07,92.78H342.86V84.19L363.4,61.38H342.86V52.79h32.21v8.59L354.54,84.19h20.53Z"/></svg>