<?xml version="1.0" encoding="utf-8"?>
<!-- Generator: Adobe Illustrator 25.2.3, SVG Export Plug-In . SVG Version: 6.00 Build 0)  -->
<svg version="1.1" id="Layer_1" xmlns="http://www.w3.org/2000/svg" xmlns:xlink="http://www.w3.org/1999/xlink" x="0px" y="0px"
	 viewBox="0 0 376.2 96.2" style="enable-background:new 0 0 376.2 96.2;" xml:space="preserve">
<style type="text/css">
	.st0{fill:#011F3A;}
</style>
<path class="st0" d="M130.5,3.5V19h13.1V3.5h9.4v40h-9.5V27.1h-13.1v16.3H121v-40L130.5,3.5z"/>
<path class="st0" d="M167.8,30.5c0,1.1,0.6,2.2,1.5,2.9c0.9,0.8,2.1,1.3,3.3,1.3h5.4c1.2,0,2.4-0.5,3.3-1.3c0.9-0.7,1.4-1.8,1.4-2.9
	v-27h9.6v28.2c0,1.6-0.3,3.1-0.8,4.6c-0.5,1.3-1.3,2.5-2.3,3.5c-1,1-2.2,1.8-3.5,2.4c-1.4,0.6-2.9,1-4.4,1.2h-9.7
	c-1.7,0-3.5-0.2-5.2-0.8c-1.5-0.5-3-1.2-4.2-2.2c-1.2-1-2.2-2.3-2.9-3.7c-0.7-1.6-1-3.3-1-5V3.5h9.5L167.8,30.5z"/>
<path class="st0" d="M231.3,11.8h-16.8c-1.4-0.1-2.8,0.3-4,1c-1,0.7-1.8,1.6-2.2,2.7c-0.5,1.2-0.9,2.5-1,3.8
	c-0.2,1.4-0.2,2.8-0.2,4.3c0,1.2,0.1,2.3,0.4,3.5c0.2,1.3,0.7,2.5,1.3,3.7c0.6,1.1,1.4,2.1,2.3,2.9c1,0.8,2.3,1.2,3.6,1.2h7.5V21.2
	h9.3v22.2h-17.9c-2.5,0.1-4.9-0.6-7-1.8c-2-1.2-3.7-2.7-5-4.6c-1.4-1.9-2.4-4.1-3-6.3c-0.6-2.3-1-4.6-1-7c0-2.4,0.3-4.7,0.9-7
	c0.6-2.3,1.5-4.5,2.8-6.6c1.2-1.9,2.8-3.6,4.7-4.9c2-1.3,4.4-2,6.8-1.9h18.7L231.3,11.8z"/>
<path class="st0" d="M237.3,10.3c0.5-1.3,1.2-2.4,2.1-3.4c0.9-1,1.9-1.8,3.1-2.4c1.2-0.6,2.6-1,4-0.9h14.1c1.4,0,2.7,0.3,4,0.9
	c1.2,0.6,2.3,1.4,3.1,2.4c0.9,1,1.6,2.2,2.1,3.4c0.5,1.2,0.7,2.5,0.7,3.8v17.7c0,1.6-0.3,3.1-0.8,4.6c-0.5,1.3-1.3,2.5-2.3,3.5
	c-1,1-2.2,1.8-3.5,2.4c-1.4,0.6-2.9,1-4.4,1.2h-9.7c-1.8,0-3.5-0.2-5.2-0.8c-1.5-0.5-3-1.2-4.2-2.2c-1.2-1-2.2-2.3-2.9-3.7
	c-0.7-1.6-1-3.3-1-5V14.1C236.6,12.8,236.8,11.5,237.3,10.3z M247.6,33.4c0.9,0.8,2.1,1.3,3.3,1.3h5.4c1.2,0,2.4-0.5,3.3-1.3
	c0.9-0.7,1.4-1.8,1.4-2.9V14.9c-0.2-1-0.8-1.8-1.7-2.3c-0.9-0.6-1.9-0.9-3-1h-5.4c-1.1,0.1-2.1,0.4-3.1,1c-0.9,0.5-1.5,1.3-1.7,2.3
	v15.6C246.1,31.6,246.7,32.7,247.6,33.4L247.6,33.4z"/>
<path class="st0" d="M121.3,92.8v-8h17.5c0.6,0,1.1-0.1,1.6-0.4c0.5-0.3,1-0.6,1.4-1c0.4-0.4,0.7-0.8,1-1.3c0.3-0.4,0.4-1,0.4-1.5
	c0-0.8-0.2-1.6-0.5-2.2c-0.3-0.6-0.7-1.1-1.2-1.4c-0.5-0.4-1.1-0.6-1.7-0.7c-0.6-0.1-1.2-0.2-1.9-0.2h-7c-1.3,0-2.7-0.3-3.8-0.9
	c-1.2-0.6-2.3-1.4-3.1-2.5c-1-1.2-1.7-2.5-2.1-4c-0.6-1.7-0.8-3.5-0.8-5.3c0-1.3,0.3-2.5,0.7-3.7c0.5-1.2,1.2-2.4,2-3.3
	c0.9-1,1.9-1.8,3.1-2.5c1.2-0.6,2.6-1,4-0.9h21.9v8h-17.3c-1.1,0-2.2,0.4-3.1,1c-0.9,0.5-1.5,1.5-1.5,2.5c0,0.6,0.1,1.3,0.4,1.8
	c0.2,0.4,0.6,0.8,1,1.1c0.4,0.3,0.9,0.5,1.4,0.6c0.5,0.1,1,0.2,1.5,0.3h8.1c1.3,0,2.6,0.3,3.8,0.9c1.2,0.6,2.3,1.5,3.1,2.6
	c0.9,1.2,1.7,2.6,2.1,4.1c0.6,1.7,0.8,3.5,0.8,5.3c0,1.3-0.3,2.7-0.7,3.9c-0.5,1.3-1.1,2.6-2,3.8c-0.9,1.1-1.9,2.1-3.1,2.8
	c-1.2,0.8-2.5,1.2-3.9,1.1L121.3,92.8z"/>
<path class="st0" d="M168.5,52.8h9.5l14.1,40h-10.4l-8.3-26.4l-5.8,17.8h9.5v8.6h-22.7L168.5,52.8z"/>
<path class="st0" d="M206.1,70.8v21.9h-9.6v-40h9.6L219.2,75V52.8h9.6v40h-9.6L206.1,70.8z"/>
<path class="st0" d="M268,61.2h-15.3c-1.5-0.1-2.9,0.3-4.2,1c-1.1,0.7-2.1,1.6-2.8,2.7c-0.7,1.2-1.3,2.4-1.6,3.8
	c-0.3,1.4-0.5,2.8-0.5,4.3c0,1.2,0.1,2.3,0.4,3.5c0.2,1.3,0.6,2.5,1.2,3.7c0.5,1.1,1.3,2.1,2.2,2.9c1,0.8,2.3,1.2,3.6,1.2h17v8.6
	h-17.9c-2.5,0.1-4.9-0.5-7.1-1.8c-2-1.2-3.7-2.7-5-4.6c-1.4-1.9-2.4-4.1-3-6.3c-0.6-2.3-1-4.6-1-6.9c0-2.3,0.4-4.7,1-6.9
	c0.6-2.3,1.6-4.5,2.9-6.6c1.2-1.9,2.8-3.6,4.7-4.9c1.9-1.3,4.2-2,6.6-1.9H268V61.2z"/>
<path class="st0" d="M282.7,52.8v15.6h13.1V52.8h9.5v40h-9.5V76.5h-13.1v16.3h-9.5v-40L282.7,52.8z"/>
<path class="st0" d="M337.6,92.8h-27.1v-40h27.1v8.6H320v22.8h17.6L337.6,92.8z M333.9,68.4v8.1h-10.9v-8.1H333.9z"/>
<path class="st0" d="M375.1,92.8h-32.2v-8.6l20.5-22.8h-20.5v-8.6h32.2v8.6l-20.5,22.8h20.5V92.8z"/>
<g>
	<g>
		<path class="st0" d="M105.3,30.1H67.5c-0.9,0-1.6,0.5-1.6,1.2v13.9c0,0.7,0.7,1.2,1.6,1.2h37.9c0.9,0,1.6-0.5,1.6-1.2V31.3
			C106.9,30.6,106.2,30.1,105.3,30.1z"/>
		<path class="st0" d="M61,70.7H47.1c-0.7,0-1.2,0.5-1.2,1.2v13.9c0,0.7,0.5,1.2,1.2,1.2H61c0.7,0,1.2-0.5,1.2-1.2V71.9
			C62.2,71.2,61.7,70.7,61,70.7z"/>
		<path class="st0" d="M105.7,50.4H63.5c-0.7,0-1.2-0.5-1.2-1.2V9.8c0-0.7-0.5-1.2-1.2-1.2H47.1c-0.7,0-1.2,0.5-1.2,1.2v20.3H17.5
			v-4c0-0.7-0.5-1.2-1.2-1.2H2.4c-0.7,0-1.2,0.5-1.2,1.2v5.2v13.9v21.5c0,0.7,0.5,1.2,1.2,1.2h13.9c0.7,0,1.2-0.5,1.2-1.2V46.5h28.3
			v19.1v0.1c0,0.7,0.5,1.2,1.2,1.2h41c0.7,0,1.2,0.5,1.2,1.2v1.5c0,0.7-0.5,1.2-1.2,1.2l-21,0.1c-0.7,0-1.2,0.5-1.2,1.2V86
			c0,0.7,0.5,1,1.2,1l38.6,0.2c0.7,0,1.2-0.5,1.2-1.2V51.6C106.9,50.9,106.4,50.4,105.7,50.4z"/>
		<path class="st0" d="M2.4,21.3h13.9c0.7,0,1.2-0.5,1.2-1.2V9.8c0-0.7-0.5-1.2-1.2-1.2H2.4c-0.7,0-1.2,0.5-1.2,1.2v10.2
			C1.2,20.7,1.7,21.3,2.4,21.3z"/>
	</g>
</g>
</svg>
